<svg xmlns="http://www.w3.org/2000/svg" xmlns:xlink="http://www.w3.org/1999/xlink" width="250" zoomAndPan="magnify" viewBox="0 0 187.5 89.999999" height="120" preserveAspectRatio="xMidYMid meet" version="1.0"><defs><g/></defs><g fill="#3d3d3d" fill-opacity="1"><g transform="translate(64.089129, 75.771965)"><g><path d="M 2.78125 0 L 2.78125 -0.796875 L 4.453125 -0.796875 C 6.296875 -0.796875 7.734375 -1.21875 8.765625 -2.0625 C 9.804688 -2.90625 10.328125 -4.332031 10.328125 -6.34375 L 10.328125 -50.578125 C 10.328125 -52.484375 9.804688 -53.84375 8.765625 -54.65625 C 7.734375 -55.476562 6.296875 -55.890625 4.453125 -55.890625 L 2.78125 -55.890625 L 2.78125 -56.6875 L 27.078125 -56.6875 L 27.078125 -55.890625 L 25.40625 -55.890625 C 23.550781 -55.890625 22.117188 -55.460938 21.109375 -54.609375 C 20.109375 -53.765625 19.609375 -52.363281 19.609375 -50.40625 L 19.609375 -0.796875 L 33.421875 -0.796875 C 36.335938 -0.796875 38.664062 -1.21875 40.40625 -2.0625 C 42.15625 -2.90625 43.46875 -4.289062 44.34375 -6.21875 C 45.21875 -8.15625 45.757812 -10.816406 45.96875 -14.203125 L 46.203125 -17.234375 L 47 -17.234375 L 46.4375 0 Z M 2.78125 0 "/></g></g></g><g fill="#3d3d3d" fill-opacity="1"><g transform="translate(14.623147, 75.771965)"><g><path d="M 24.609375 0 L 6.4375 -51.765625 C 5.851562 -53.347656 5.132812 -54.429688 4.28125 -55.015625 C 3.4375 -55.597656 2.328125 -55.890625 0.953125 -55.890625 L 0 -55.890625 L 0 -56.6875 L 23.015625 -56.6875 L 23.015625 -55.890625 L 20.328125 -55.890625 C 18.898438 -55.890625 17.800781 -55.675781 17.03125 -55.25 C 16.257812 -54.832031 15.875 -54.066406 15.875 -52.953125 C 15.875 -52.003906 16.140625 -50.785156 16.671875 -49.296875 L 26.359375 -21.125 C 28.210938 -15.820312 29.664062 -11.082031 30.71875 -6.90625 C 31.300781 -8.863281 31.960938 -11.03125 32.703125 -13.40625 C 33.453125 -15.789062 34.171875 -18.046875 34.859375 -20.171875 L 43.984375 -48.75 C 44.566406 -50.382812 44.859375 -51.679688 44.859375 -52.640625 C 44.859375 -53.859375 44.445312 -54.703125 43.625 -55.171875 C 42.800781 -55.648438 41.488281 -55.890625 39.6875 -55.890625 L 34.859375 -55.890625 L 34.859375 -56.6875 L 54.0625 -56.6875 L 54.0625 -55.890625 L 51.359375 -55.890625 C 49.828125 -55.890625 48.609375 -55.453125 47.703125 -54.578125 C 46.804688 -53.703125 46.015625 -52.128906 45.328125 -49.859375 L 29.21875 0 Z M 24.609375 0 "/></g></g></g><g fill="#3d3d3d" fill-opacity="1"><g transform="translate(109.635909, 75.668216)"><g><path d="M 0.078125 0 L 0.078125 -0.796875 L 2.625 -0.796875 C 4.257812 -0.796875 5.550781 -1.242188 6.5 -2.140625 C 7.457031 -3.046875 8.332031 -4.632812 9.125 -6.90625 L 26.75 -56.6875 L 31.828125 -56.6875 L 51.125 -5.40625 C 51.8125 -3.65625 52.523438 -2.445312 53.265625 -1.78125 C 54.003906 -1.125 54.984375 -0.796875 56.203125 -0.796875 L 57 -0.796875 L 57 0 L 33.984375 0 L 33.984375 -0.796875 L 36.515625 -0.796875 C 38.316406 -0.796875 39.613281 -1.019531 40.40625 -1.46875 C 41.195312 -1.914062 41.59375 -2.722656 41.59375 -3.890625 C 41.59375 -4.316406 41.539062 -4.832031 41.4375 -5.4375 C 41.332031 -6.039062 41.148438 -6.71875 40.890625 -7.46875 L 36.125 -20.640625 L 14.921875 -20.640625 L 10.484375 -8.171875 C 10.210938 -7.378906 10 -6.675781 9.84375 -6.0625 C 9.6875 -5.457031 9.609375 -4.890625 9.609375 -4.359375 C 9.609375 -3.035156 10.148438 -2.109375 11.234375 -1.578125 C 12.316406 -1.054688 14.078125 -0.796875 16.515625 -0.796875 L 19.375 -0.796875 L 19.375 0 Z M 15.15625 -21.4375 L 35.8125 -21.4375 L 30.25 -36.671875 C 29.34375 -39.160156 28.46875 -41.660156 27.625 -44.171875 C 26.78125 -46.691406 26.09375 -49.007812 25.5625 -51.125 C 24.820312 -48.90625 24.09375 -46.789062 23.375 -44.78125 C 22.664062 -42.769531 21.859375 -40.46875 20.953125 -37.875 Z M 15.15625 -21.4375 "/></g></g></g></svg>