<svg xmlns="http://www.w3.org/2000/svg" xmlns:xlink="http://www.w3.org/1999/xlink" width="800" zoomAndPan="magnify" viewBox="0 0 600 89.999999" height="120" preserveAspectRatio="xMidYMid meet" version="1.0"><defs><g/></defs><g fill="#ffffff" fill-opacity="1"><g transform="translate(23.703065, 39.979513)"><g><path d="M 20.28125 -18.953125 C 20.34375 -18.953125 20.375 -18.890625 20.375 -18.765625 C 20.375 -18.640625 20.34375 -18.578125 20.28125 -18.578125 C 19.59375 -18.578125 18.992188 -18.394531 18.484375 -18.03125 C 17.984375 -17.664062 17.5625 -17.050781 17.21875 -16.1875 L 10.765625 -0.03125 C 10.742188 0.0507812 10.628906 0.09375 10.421875 0.09375 C 10.265625 0.09375 10.15625 0.0507812 10.09375 -0.03125 L 2.546875 -16.421875 C 2.203125 -17.210938 1.835938 -17.769531 1.453125 -18.09375 C 1.066406 -18.414062 0.570312 -18.578125 -0.03125 -18.578125 C -0.09375 -18.578125 -0.125 -18.640625 -0.125 -18.765625 C -0.125 -18.890625 -0.09375 -18.953125 -0.03125 -18.953125 L 1.125 -18.921875 C 1.6875 -18.878906 2.140625 -18.859375 2.484375 -18.859375 C 3.296875 -18.859375 4.164062 -18.878906 5.09375 -18.921875 L 6.328125 -18.953125 C 6.390625 -18.953125 6.421875 -18.890625 6.421875 -18.765625 C 6.421875 -18.640625 6.390625 -18.578125 6.328125 -18.578125 C 5.703125 -18.578125 5.234375 -18.492188 4.921875 -18.328125 C 4.609375 -18.171875 4.453125 -17.898438 4.453125 -17.515625 C 4.453125 -17.273438 4.546875 -16.953125 4.734375 -16.546875 L 11.0625 -2.671875 L 16.515625 -16.34375 C 16.679688 -16.757812 16.765625 -17.09375 16.765625 -17.34375 C 16.765625 -17.757812 16.570312 -18.066406 16.1875 -18.265625 C 15.800781 -18.472656 15.207031 -18.578125 14.40625 -18.578125 C 14.34375 -18.578125 14.3125 -18.640625 14.3125 -18.765625 C 14.3125 -18.890625 14.34375 -18.953125 14.40625 -18.953125 L 15.703125 -18.921875 C 16.390625 -18.878906 17.015625 -18.859375 17.578125 -18.859375 C 18.003906 -18.859375 18.476562 -18.878906 19 -18.921875 Z M 20.28125 -18.953125 "/></g></g></g><g fill="#ffffff" fill-opacity="1"><g transform="translate(48.55776, 39.979513)"><g><path d="M 6.03125 -2.453125 C 6.03125 -1.847656 6.085938 -1.398438 6.203125 -1.109375 C 6.328125 -0.816406 6.566406 -0.617188 6.921875 -0.515625 C 7.273438 -0.410156 7.835938 -0.359375 8.609375 -0.359375 C 8.671875 -0.359375 8.703125 -0.296875 8.703125 -0.171875 C 8.703125 -0.0546875 8.671875 0 8.609375 0 C 8.003906 0 7.519531 -0.0078125 7.15625 -0.03125 L 5 -0.0625 L 2.90625 -0.03125 C 2.539062 -0.0078125 2.046875 0 1.421875 0 C 1.359375 0 1.328125 -0.0546875 1.328125 -0.171875 C 1.328125 -0.296875 1.359375 -0.359375 1.421875 -0.359375 C 2.191406 -0.359375 2.753906 -0.410156 3.109375 -0.515625 C 3.460938 -0.617188 3.703125 -0.816406 3.828125 -1.109375 C 3.960938 -1.398438 4.03125 -1.847656 4.03125 -2.453125 L 4.03125 -16.484375 C 4.03125 -17.097656 3.960938 -17.546875 3.828125 -17.828125 C 3.703125 -18.109375 3.460938 -18.300781 3.109375 -18.40625 C 2.753906 -18.519531 2.191406 -18.578125 1.421875 -18.578125 C 1.359375 -18.578125 1.328125 -18.640625 1.328125 -18.765625 C 1.328125 -18.890625 1.359375 -18.953125 1.421875 -18.953125 L 2.90625 -18.921875 C 3.757812 -18.878906 4.457031 -18.859375 5 -18.859375 C 5.601562 -18.859375 6.332031 -18.878906 7.1875 -18.921875 L 8.609375 -18.953125 C 8.671875 -18.953125 8.703125 -18.890625 8.703125 -18.765625 C 8.703125 -18.640625 8.671875 -18.578125 8.609375 -18.578125 C 7.859375 -18.578125 7.304688 -18.515625 6.953125 -18.390625 C 6.597656 -18.273438 6.351562 -18.070312 6.21875 -17.78125 C 6.09375 -17.488281 6.03125 -17.035156 6.03125 -16.421875 Z M 6.03125 -2.453125 "/></g></g></g><g fill="#ffffff" fill-opacity="1"><g transform="translate(63.289766, 39.979513)"><g><path d="M 5.609375 -2.578125 C 5.609375 -1.992188 5.664062 -1.566406 5.78125 -1.296875 C 5.90625 -1.035156 6.128906 -0.859375 6.453125 -0.765625 C 6.773438 -0.679688 7.300781 -0.640625 8.03125 -0.640625 L 11.34375 -0.640625 C 12.488281 -0.640625 13.40625 -0.992188 14.09375 -1.703125 C 14.78125 -2.410156 15.234375 -3.390625 15.453125 -4.640625 C 15.453125 -4.703125 15.507812 -4.726562 15.625 -4.71875 C 15.738281 -4.707031 15.796875 -4.671875 15.796875 -4.609375 C 15.609375 -2.929688 15.515625 -1.546875 15.515625 -0.453125 C 15.515625 -0.296875 15.484375 -0.179688 15.421875 -0.109375 C 15.367188 -0.0351562 15.25 0 15.0625 0 L 1.0625 0 C 1.019531 0 1 -0.0546875 1 -0.171875 C 1 -0.296875 1.019531 -0.359375 1.0625 -0.359375 C 1.832031 -0.359375 2.394531 -0.410156 2.75 -0.515625 C 3.101562 -0.617188 3.335938 -0.816406 3.453125 -1.109375 C 3.578125 -1.398438 3.640625 -1.847656 3.640625 -2.453125 L 3.640625 -16.484375 C 3.640625 -17.097656 3.578125 -17.546875 3.453125 -17.828125 C 3.335938 -18.109375 3.101562 -18.300781 2.75 -18.40625 C 2.394531 -18.519531 1.832031 -18.578125 1.0625 -18.578125 C 1.019531 -18.578125 1 -18.640625 1 -18.765625 C 1 -18.890625 1.019531 -18.953125 1.0625 -18.953125 L 2.546875 -18.921875 C 3.390625 -18.878906 4.078125 -18.859375 4.609375 -18.859375 C 5.171875 -18.859375 5.878906 -18.878906 6.734375 -18.921875 L 8.1875 -18.953125 C 8.25 -18.953125 8.28125 -18.890625 8.28125 -18.765625 C 8.28125 -18.640625 8.25 -18.578125 8.1875 -18.578125 C 7.4375 -18.578125 6.882812 -18.519531 6.53125 -18.40625 C 6.175781 -18.300781 5.929688 -18.101562 5.796875 -17.8125 C 5.671875 -17.519531 5.609375 -17.066406 5.609375 -16.453125 Z M 5.609375 -2.578125 "/></g></g></g><g fill="#ffffff" fill-opacity="1"><g transform="translate(84.113557, 39.979513)"><g><path d="M 5.609375 -2.578125 C 5.609375 -1.992188 5.664062 -1.566406 5.78125 -1.296875 C 5.90625 -1.035156 6.128906 -0.859375 6.453125 -0.765625 C 6.773438 -0.679688 7.300781 -0.640625 8.03125 -0.640625 L 11.34375 -0.640625 C 12.488281 -0.640625 13.40625 -0.992188 14.09375 -1.703125 C 14.78125 -2.410156 15.234375 -3.390625 15.453125 -4.640625 C 15.453125 -4.703125 15.507812 -4.726562 15.625 -4.71875 C 15.738281 -4.707031 15.796875 -4.671875 15.796875 -4.609375 C 15.609375 -2.929688 15.515625 -1.546875 15.515625 -0.453125 C 15.515625 -0.296875 15.484375 -0.179688 15.421875 -0.109375 C 15.367188 -0.0351562 15.25 0 15.0625 0 L 1.0625 0 C 1.019531 0 1 -0.0546875 1 -0.171875 C 1 -0.296875 1.019531 -0.359375 1.0625 -0.359375 C 1.832031 -0.359375 2.394531 -0.410156 2.75 -0.515625 C 3.101562 -0.617188 3.335938 -0.816406 3.453125 -1.109375 C 3.578125 -1.398438 3.640625 -1.847656 3.640625 -2.453125 L 3.640625 -16.484375 C 3.640625 -17.097656 3.578125 -17.546875 3.453125 -17.828125 C 3.335938 -18.109375 3.101562 -18.300781 2.75 -18.40625 C 2.394531 -18.519531 1.832031 -18.578125 1.0625 -18.578125 C 1.019531 -18.578125 1 -18.640625 1 -18.765625 C 1 -18.890625 1.019531 -18.953125 1.0625 -18.953125 L 2.546875 -18.921875 C 3.390625 -18.878906 4.078125 -18.859375 4.609375 -18.859375 C 5.171875 -18.859375 5.878906 -18.878906 6.734375 -18.921875 L 8.1875 -18.953125 C 8.25 -18.953125 8.28125 -18.890625 8.28125 -18.765625 C 8.28125 -18.640625 8.25 -18.578125 8.1875 -18.578125 C 7.4375 -18.578125 6.882812 -18.519531 6.53125 -18.40625 C 6.175781 -18.300781 5.929688 -18.101562 5.796875 -17.8125 C 5.671875 -17.519531 5.609375 -17.066406 5.609375 -16.453125 Z M 5.609375 -2.578125 "/></g></g></g><g fill="#ffffff" fill-opacity="1"><g transform="translate(104.937348, 39.979513)"><g><path d="M 21.1875 -0.359375 C 21.269531 -0.359375 21.3125 -0.296875 21.3125 -0.171875 C 21.3125 -0.0546875 21.269531 0 21.1875 0 C 20.800781 0 20.207031 -0.0195312 19.40625 -0.0625 C 18.59375 -0.101562 18.003906 -0.125 17.640625 -0.125 C 17.191406 -0.125 16.625 -0.101562 15.9375 -0.0625 C 15.289062 -0.0195312 14.796875 0 14.453125 0 C 14.378906 0 14.34375 -0.0546875 14.34375 -0.171875 C 14.34375 -0.296875 14.378906 -0.359375 14.453125 -0.359375 C 15.203125 -0.359375 15.75 -0.425781 16.09375 -0.5625 C 16.4375 -0.707031 16.609375 -0.953125 16.609375 -1.296875 C 16.609375 -1.585938 16.476562 -2.023438 16.21875 -2.609375 L 12.734375 -10.03125 L 7 -10.03125 L 4.390625 -3.84375 C 4.109375 -3.15625 3.96875 -2.59375 3.96875 -2.15625 C 3.96875 -0.957031 4.957031 -0.359375 6.9375 -0.359375 C 7.039062 -0.359375 7.09375 -0.296875 7.09375 -0.171875 C 7.09375 -0.0546875 7.039062 0 6.9375 0 C 6.570312 0 6.046875 -0.0195312 5.359375 -0.0625 C 4.597656 -0.101562 3.929688 -0.125 3.359375 -0.125 C 2.835938 -0.125 2.234375 -0.101562 1.546875 -0.0625 C 0.941406 -0.0195312 0.4375 0 0.03125 0 C -0.0703125 0 -0.125 -0.0546875 -0.125 -0.171875 C -0.125 -0.296875 -0.0703125 -0.359375 0.03125 -0.359375 C 0.59375 -0.359375 1.070312 -0.460938 1.46875 -0.671875 C 1.863281 -0.890625 2.238281 -1.265625 2.59375 -1.796875 C 2.945312 -2.335938 3.335938 -3.113281 3.765625 -4.125 L 10.15625 -19.21875 C 10.195312 -19.28125 10.265625 -19.3125 10.359375 -19.3125 C 10.460938 -19.3125 10.523438 -19.28125 10.546875 -19.21875 L 17.703125 -4.15625 C 18.390625 -2.65625 18.972656 -1.644531 19.453125 -1.125 C 19.941406 -0.613281 20.519531 -0.359375 21.1875 -0.359375 Z M 7.28125 -10.671875 L 12.421875 -10.671875 L 9.703125 -16.421875 Z M 7.28125 -10.671875 "/></g></g></g><g fill="#ffffff" fill-opacity="1"><g transform="translate(130.883118, 39.979513)"><g><path d="M 20.703125 -0.359375 C 20.742188 -0.359375 20.765625 -0.296875 20.765625 -0.171875 C 20.765625 -0.0546875 20.742188 0 20.703125 0 L 16.796875 0 C 16.285156 0 15.335938 -0.863281 13.953125 -2.59375 C 12.566406 -4.320312 10.882812 -6.734375 8.90625 -9.828125 C 8.425781 -9.679688 7.882812 -9.609375 7.28125 -9.609375 C 6.894531 -9.609375 6.4375 -9.628906 5.90625 -9.671875 L 5.90625 -2.453125 C 5.90625 -1.828125 5.96875 -1.375 6.09375 -1.09375 C 6.21875 -0.8125 6.453125 -0.617188 6.796875 -0.515625 C 7.148438 -0.410156 7.710938 -0.359375 8.484375 -0.359375 C 8.546875 -0.359375 8.578125 -0.296875 8.578125 -0.171875 C 8.578125 -0.0546875 8.546875 0 8.484375 0 C 7.859375 0 7.363281 -0.0078125 7 -0.03125 L 4.90625 -0.0625 L 2.84375 -0.03125 C 2.476562 -0.0078125 1.960938 0 1.296875 0 C 1.265625 0 1.25 -0.0546875 1.25 -0.171875 C 1.25 -0.296875 1.265625 -0.359375 1.296875 -0.359375 C 2.066406 -0.359375 2.632812 -0.414062 3 -0.53125 C 3.363281 -0.644531 3.613281 -0.84375 3.75 -1.125 C 3.894531 -1.40625 3.96875 -1.847656 3.96875 -2.453125 L 3.96875 -16.484375 C 3.96875 -17.097656 3.898438 -17.546875 3.765625 -17.828125 C 3.640625 -18.109375 3.398438 -18.300781 3.046875 -18.40625 C 2.691406 -18.519531 2.128906 -18.578125 1.359375 -18.578125 C 1.296875 -18.578125 1.265625 -18.640625 1.265625 -18.765625 C 1.265625 -18.890625 1.296875 -18.953125 1.359375 -18.953125 L 2.84375 -18.921875 C 3.695312 -18.878906 4.382812 -18.859375 4.90625 -18.859375 C 5.269531 -18.859375 5.613281 -18.867188 5.9375 -18.890625 C 6.257812 -18.910156 6.546875 -18.929688 6.796875 -18.953125 C 7.441406 -19.003906 8.023438 -19.03125 8.546875 -19.03125 C 10.179688 -19.03125 11.441406 -18.695312 12.328125 -18.03125 C 13.222656 -17.363281 13.671875 -16.4375 13.671875 -15.25 C 13.671875 -14.28125 13.382812 -13.363281 12.8125 -12.5 C 12.25 -11.644531 11.503906 -10.960938 10.578125 -10.453125 C 12.296875 -7.890625 13.738281 -5.882812 14.90625 -4.4375 C 16.082031 -3 17.125 -1.957031 18.03125 -1.3125 C 18.945312 -0.675781 19.835938 -0.359375 20.703125 -0.359375 Z M 5.90625 -10.421875 C 6.414062 -10.347656 7.015625 -10.3125 7.703125 -10.3125 C 9.097656 -10.3125 10.097656 -10.609375 10.703125 -11.203125 C 11.304688 -11.796875 11.609375 -12.789062 11.609375 -14.1875 C 11.609375 -17.113281 10.375 -18.578125 7.90625 -18.578125 C 7.363281 -18.578125 6.957031 -18.53125 6.6875 -18.4375 C 6.414062 -18.351562 6.21875 -18.164062 6.09375 -17.875 C 5.96875 -17.582031 5.90625 -17.097656 5.90625 -16.421875 Z M 5.90625 -10.421875 "/></g></g></g><g fill="#ffffff" fill-opacity="1"><g transform="translate(155.949971, 39.979513)"><g><path d="M 20.703125 -0.359375 C 20.742188 -0.359375 20.765625 -0.296875 20.765625 -0.171875 C 20.765625 -0.0546875 20.742188 0 20.703125 0 L 16.796875 0 C 16.285156 0 15.335938 -0.863281 13.953125 -2.59375 C 12.566406 -4.320312 10.882812 -6.734375 8.90625 -9.828125 C 8.425781 -9.679688 7.882812 -9.609375 7.28125 -9.609375 C 6.894531 -9.609375 6.4375 -9.628906 5.90625 -9.671875 L 5.90625 -2.453125 C 5.90625 -1.828125 5.96875 -1.375 6.09375 -1.09375 C 6.21875 -0.8125 6.453125 -0.617188 6.796875 -0.515625 C 7.148438 -0.410156 7.710938 -0.359375 8.484375 -0.359375 C 8.546875 -0.359375 8.578125 -0.296875 8.578125 -0.171875 C 8.578125 -0.0546875 8.546875 0 8.484375 0 C 7.859375 0 7.363281 -0.0078125 7 -0.03125 L 4.90625 -0.0625 L 2.84375 -0.03125 C 2.476562 -0.0078125 1.960938 0 1.296875 0 C 1.265625 0 1.25 -0.0546875 1.25 -0.171875 C 1.25 -0.296875 1.265625 -0.359375 1.296875 -0.359375 C 2.066406 -0.359375 2.632812 -0.414062 3 -0.53125 C 3.363281 -0.644531 3.613281 -0.84375 3.75 -1.125 C 3.894531 -1.40625 3.96875 -1.847656 3.96875 -2.453125 L 3.96875 -16.484375 C 3.96875 -17.097656 3.898438 -17.546875 3.765625 -17.828125 C 3.640625 -18.109375 3.398438 -18.300781 3.046875 -18.40625 C 2.691406 -18.519531 2.128906 -18.578125 1.359375 -18.578125 C 1.296875 -18.578125 1.265625 -18.640625 1.265625 -18.765625 C 1.265625 -18.890625 1.296875 -18.953125 1.359375 -18.953125 L 2.84375 -18.921875 C 3.695312 -18.878906 4.382812 -18.859375 4.90625 -18.859375 C 5.269531 -18.859375 5.613281 -18.867188 5.9375 -18.890625 C 6.257812 -18.910156 6.546875 -18.929688 6.796875 -18.953125 C 7.441406 -19.003906 8.023438 -19.03125 8.546875 -19.03125 C 10.179688 -19.03125 11.441406 -18.695312 12.328125 -18.03125 C 13.222656 -17.363281 13.671875 -16.4375 13.671875 -15.25 C 13.671875 -14.28125 13.382812 -13.363281 12.8125 -12.5 C 12.25 -11.644531 11.503906 -10.960938 10.578125 -10.453125 C 12.296875 -7.890625 13.738281 -5.882812 14.90625 -4.4375 C 16.082031 -3 17.125 -1.957031 18.03125 -1.3125 C 18.945312 -0.675781 19.835938 -0.359375 20.703125 -0.359375 Z M 5.90625 -10.421875 C 6.414062 -10.347656 7.015625 -10.3125 7.703125 -10.3125 C 9.097656 -10.3125 10.097656 -10.609375 10.703125 -11.203125 C 11.304688 -11.796875 11.609375 -12.789062 11.609375 -14.1875 C 11.609375 -17.113281 10.375 -18.578125 7.90625 -18.578125 C 7.363281 -18.578125 6.957031 -18.53125 6.6875 -18.4375 C 6.414062 -18.351562 6.21875 -18.164062 6.09375 -17.875 C 5.96875 -17.582031 5.90625 -17.097656 5.90625 -16.421875 Z M 5.90625 -10.421875 "/></g></g></g><g fill="#ffffff" fill-opacity="1"><g transform="translate(181.016831, 39.979513)"><g><path d="M 11.09375 0.359375 C 9.21875 0.359375 7.546875 -0.078125 6.078125 -0.953125 C 4.609375 -1.835938 3.472656 -3.03125 2.671875 -4.53125 C 1.878906 -6.039062 1.484375 -7.679688 1.484375 -9.453125 C 1.484375 -11.535156 2.007812 -13.316406 3.0625 -14.796875 C 4.113281 -16.285156 5.460938 -17.40625 7.109375 -18.15625 C 8.753906 -18.90625 10.4375 -19.28125 12.15625 -19.28125 C 14.070312 -19.28125 15.757812 -18.828125 17.21875 -17.921875 C 18.675781 -17.023438 19.789062 -15.835938 20.5625 -14.359375 C 21.34375 -12.890625 21.734375 -11.328125 21.734375 -9.671875 C 21.734375 -7.828125 21.25 -6.132812 20.28125 -4.59375 C 19.3125 -3.0625 18.007812 -1.851562 16.375 -0.96875 C 14.75 -0.0820312 12.988281 0.359375 11.09375 0.359375 Z M 12.15625 -0.265625 C 13.53125 -0.265625 14.765625 -0.597656 15.859375 -1.265625 C 16.960938 -1.941406 17.832031 -2.925781 18.46875 -4.21875 C 19.113281 -5.507812 19.4375 -7.046875 19.4375 -8.828125 C 19.4375 -10.722656 19.082031 -12.40625 18.375 -13.875 C 17.664062 -15.351562 16.664062 -16.503906 15.375 -17.328125 C 14.09375 -18.160156 12.59375 -18.578125 10.875 -18.578125 C 8.65625 -18.578125 6.921875 -17.859375 5.671875 -16.421875 C 4.421875 -14.992188 3.796875 -13.023438 3.796875 -10.515625 C 3.796875 -8.617188 4.144531 -6.882812 4.84375 -5.3125 C 5.550781 -3.75 6.539062 -2.515625 7.8125 -1.609375 C 9.09375 -0.710938 10.539062 -0.265625 12.15625 -0.265625 Z M 12.15625 -0.265625 "/></g></g></g><g fill="#ffffff" fill-opacity="1"><g transform="translate(208.902267, 39.979513)"><g><path d="M 14.40625 -4.515625 C 14.40625 -4.554688 14.441406 -4.578125 14.515625 -4.578125 C 14.578125 -4.578125 14.632812 -4.566406 14.6875 -4.546875 C 14.738281 -4.523438 14.765625 -4.492188 14.765625 -4.453125 C 14.578125 -3.179688 14.484375 -1.847656 14.484375 -0.453125 C 14.484375 -0.296875 14.445312 -0.179688 14.375 -0.109375 C 14.3125 -0.0351562 14.1875 0 14 0 L 1.296875 0 C 1.265625 0 1.25 -0.0546875 1.25 -0.171875 C 1.25 -0.296875 1.265625 -0.359375 1.296875 -0.359375 C 2.066406 -0.359375 2.628906 -0.410156 2.984375 -0.515625 C 3.335938 -0.617188 3.578125 -0.816406 3.703125 -1.109375 C 3.835938 -1.398438 3.90625 -1.847656 3.90625 -2.453125 L 3.90625 -16.484375 C 3.90625 -17.097656 3.835938 -17.546875 3.703125 -17.828125 C 3.578125 -18.109375 3.335938 -18.300781 2.984375 -18.40625 C 2.628906 -18.519531 2.066406 -18.578125 1.296875 -18.578125 C 1.265625 -18.578125 1.25 -18.640625 1.25 -18.765625 C 1.25 -18.890625 1.265625 -18.953125 1.296875 -18.953125 L 13.484375 -18.953125 C 13.671875 -18.953125 13.765625 -18.859375 13.765625 -18.671875 L 13.828125 -14.9375 C 13.828125 -14.882812 13.773438 -14.851562 13.671875 -14.84375 C 13.566406 -14.832031 13.503906 -14.851562 13.484375 -14.90625 C 13.421875 -15.976562 13.097656 -16.8125 12.515625 -17.40625 C 11.929688 -18.007812 11.15625 -18.3125 10.1875 -18.3125 L 8.34375 -18.3125 C 7.632812 -18.3125 7.113281 -18.253906 6.78125 -18.140625 C 6.445312 -18.023438 6.210938 -17.832031 6.078125 -17.5625 C 5.941406 -17.289062 5.875 -16.882812 5.875 -16.34375 L 5.875 -10.1875 L 9.578125 -10.1875 C 10.546875 -10.1875 11.238281 -10.347656 11.65625 -10.671875 C 12.070312 -10.992188 12.28125 -11.539062 12.28125 -12.3125 C 12.28125 -12.351562 12.335938 -12.375 12.453125 -12.375 C 12.578125 -12.375 12.640625 -12.351562 12.640625 -12.3125 L 12.609375 -9.859375 C 12.609375 -9.265625 12.617188 -8.816406 12.640625 -8.515625 L 12.671875 -7.0625 C 12.671875 -7.019531 12.609375 -7 12.484375 -7 C 12.367188 -7 12.3125 -7.019531 12.3125 -7.0625 C 12.3125 -7.945312 12.09375 -8.582031 11.65625 -8.96875 C 11.21875 -9.351562 10.492188 -9.546875 9.484375 -9.546875 L 5.875 -9.546875 L 5.875 -2.578125 C 5.875 -2.015625 5.9375 -1.597656 6.0625 -1.328125 C 6.1875 -1.066406 6.410156 -0.882812 6.734375 -0.78125 C 7.054688 -0.6875 7.5625 -0.640625 8.25 -0.640625 L 10.671875 -0.640625 C 11.640625 -0.640625 12.445312 -0.984375 13.09375 -1.671875 C 13.738281 -2.359375 14.175781 -3.304688 14.40625 -4.515625 Z M 14.40625 -4.515625 "/></g></g></g><g fill="#ffffff" fill-opacity="1"><g transform="translate(229.847288, 39.979513)"><g><path d="M 5.609375 -2.578125 C 5.609375 -1.992188 5.664062 -1.566406 5.78125 -1.296875 C 5.90625 -1.035156 6.128906 -0.859375 6.453125 -0.765625 C 6.773438 -0.679688 7.300781 -0.640625 8.03125 -0.640625 L 11.34375 -0.640625 C 12.488281 -0.640625 13.40625 -0.992188 14.09375 -1.703125 C 14.78125 -2.410156 15.234375 -3.390625 15.453125 -4.640625 C 15.453125 -4.703125 15.507812 -4.726562 15.625 -4.71875 C 15.738281 -4.707031 15.796875 -4.671875 15.796875 -4.609375 C 15.609375 -2.929688 15.515625 -1.546875 15.515625 -0.453125 C 15.515625 -0.296875 15.484375 -0.179688 15.421875 -0.109375 C 15.367188 -0.0351562 15.25 0 15.0625 0 L 1.0625 0 C 1.019531 0 1 -0.0546875 1 -0.171875 C 1 -0.296875 1.019531 -0.359375 1.0625 -0.359375 C 1.832031 -0.359375 2.394531 -0.410156 2.75 -0.515625 C 3.101562 -0.617188 3.335938 -0.816406 3.453125 -1.109375 C 3.578125 -1.398438 3.640625 -1.847656 3.640625 -2.453125 L 3.640625 -16.484375 C 3.640625 -17.097656 3.578125 -17.546875 3.453125 -17.828125 C 3.335938 -18.109375 3.101562 -18.300781 2.75 -18.40625 C 2.394531 -18.519531 1.832031 -18.578125 1.0625 -18.578125 C 1.019531 -18.578125 1 -18.640625 1 -18.765625 C 1 -18.890625 1.019531 -18.953125 1.0625 -18.953125 L 2.546875 -18.921875 C 3.390625 -18.878906 4.078125 -18.859375 4.609375 -18.859375 C 5.171875 -18.859375 5.878906 -18.878906 6.734375 -18.921875 L 8.1875 -18.953125 C 8.25 -18.953125 8.28125 -18.890625 8.28125 -18.765625 C 8.28125 -18.640625 8.25 -18.578125 8.1875 -18.578125 C 7.4375 -18.578125 6.882812 -18.519531 6.53125 -18.40625 C 6.175781 -18.300781 5.929688 -18.101562 5.796875 -17.8125 C 5.671875 -17.519531 5.609375 -17.066406 5.609375 -16.453125 Z M 5.609375 -2.578125 "/></g></g></g><g fill="#ffffff" fill-opacity="1"><g transform="translate(250.671071, 39.979513)"><g><path d="M 3.09375 -2.15625 C 3.695312 -2.15625 4.171875 -1.925781 4.515625 -1.46875 C 4.859375 -1.007812 5.03125 -0.359375 5.03125 0.484375 C 5.03125 1.296875 4.847656 2.050781 4.484375 2.75 C 4.117188 3.445312 3.582031 4.132812 2.875 4.8125 C 2.851562 4.832031 2.820312 4.84375 2.78125 4.84375 C 2.726562 4.84375 2.679688 4.8125 2.640625 4.75 C 2.597656 4.695312 2.597656 4.648438 2.640625 4.609375 C 3.628906 3.597656 4.125 2.40625 4.125 1.03125 C 4.125 0.46875 4.019531 0.0507812 3.8125 -0.21875 C 3.632812 0.09375 3.320312 0.25 2.875 0.25 C 2.507812 0.25 2.222656 0.140625 2.015625 -0.078125 C 1.804688 -0.304688 1.703125 -0.59375 1.703125 -0.9375 C 1.703125 -1.75 2.164062 -2.15625 3.09375 -2.15625 Z M 3.09375 -2.15625 "/></g></g></g><g fill="#ffffff" fill-opacity="1"><g transform="translate(262.069274, 39.979513)"><g/></g></g><g fill="#ffffff" fill-opacity="1"><g transform="translate(273.831158, 39.979513)"><g><path d="M 5.609375 -2.578125 C 5.609375 -1.992188 5.664062 -1.566406 5.78125 -1.296875 C 5.90625 -1.035156 6.128906 -0.859375 6.453125 -0.765625 C 6.773438 -0.679688 7.300781 -0.640625 8.03125 -0.640625 L 11.34375 -0.640625 C 12.488281 -0.640625 13.40625 -0.992188 14.09375 -1.703125 C 14.78125 -2.410156 15.234375 -3.390625 15.453125 -4.640625 C 15.453125 -4.703125 15.507812 -4.726562 15.625 -4.71875 C 15.738281 -4.707031 15.796875 -4.671875 15.796875 -4.609375 C 15.609375 -2.929688 15.515625 -1.546875 15.515625 -0.453125 C 15.515625 -0.296875 15.484375 -0.179688 15.421875 -0.109375 C 15.367188 -0.0351562 15.25 0 15.0625 0 L 1.0625 0 C 1.019531 0 1 -0.0546875 1 -0.171875 C 1 -0.296875 1.019531 -0.359375 1.0625 -0.359375 C 1.832031 -0.359375 2.394531 -0.410156 2.75 -0.515625 C 3.101562 -0.617188 3.335938 -0.816406 3.453125 -1.109375 C 3.578125 -1.398438 3.640625 -1.847656 3.640625 -2.453125 L 3.640625 -16.484375 C 3.640625 -17.097656 3.578125 -17.546875 3.453125 -17.828125 C 3.335938 -18.109375 3.101562 -18.300781 2.75 -18.40625 C 2.394531 -18.519531 1.832031 -18.578125 1.0625 -18.578125 C 1.019531 -18.578125 1 -18.640625 1 -18.765625 C 1 -18.890625 1.019531 -18.953125 1.0625 -18.953125 L 2.546875 -18.921875 C 3.390625 -18.878906 4.078125 -18.859375 4.609375 -18.859375 C 5.171875 -18.859375 5.878906 -18.878906 6.734375 -18.921875 L 8.1875 -18.953125 C 8.25 -18.953125 8.28125 -18.890625 8.28125 -18.765625 C 8.28125 -18.640625 8.25 -18.578125 8.1875 -18.578125 C 7.4375 -18.578125 6.882812 -18.519531 6.53125 -18.40625 C 6.175781 -18.300781 5.929688 -18.101562 5.796875 -17.8125 C 5.671875 -17.519531 5.609375 -17.066406 5.609375 -16.453125 Z M 5.609375 -2.578125 "/></g></g></g><g fill="#ffffff" fill-opacity="1"><g transform="translate(294.654941, 39.979513)"><g><path d="M 14.40625 -4.515625 C 14.40625 -4.554688 14.441406 -4.578125 14.515625 -4.578125 C 14.578125 -4.578125 14.632812 -4.566406 14.6875 -4.546875 C 14.738281 -4.523438 14.765625 -4.492188 14.765625 -4.453125 C 14.578125 -3.179688 14.484375 -1.847656 14.484375 -0.453125 C 14.484375 -0.296875 14.445312 -0.179688 14.375 -0.109375 C 14.3125 -0.0351562 14.1875 0 14 0 L 1.296875 0 C 1.265625 0 1.25 -0.0546875 1.25 -0.171875 C 1.25 -0.296875 1.265625 -0.359375 1.296875 -0.359375 C 2.066406 -0.359375 2.628906 -0.410156 2.984375 -0.515625 C 3.335938 -0.617188 3.578125 -0.816406 3.703125 -1.109375 C 3.835938 -1.398438 3.90625 -1.847656 3.90625 -2.453125 L 3.90625 -16.484375 C 3.90625 -17.097656 3.835938 -17.546875 3.703125 -17.828125 C 3.578125 -18.109375 3.335938 -18.300781 2.984375 -18.40625 C 2.628906 -18.519531 2.066406 -18.578125 1.296875 -18.578125 C 1.265625 -18.578125 1.25 -18.640625 1.25 -18.765625 C 1.25 -18.890625 1.265625 -18.953125 1.296875 -18.953125 L 13.484375 -18.953125 C 13.671875 -18.953125 13.765625 -18.859375 13.765625 -18.671875 L 13.828125 -14.9375 C 13.828125 -14.882812 13.773438 -14.851562 13.671875 -14.84375 C 13.566406 -14.832031 13.503906 -14.851562 13.484375 -14.90625 C 13.421875 -15.976562 13.097656 -16.8125 12.515625 -17.40625 C 11.929688 -18.007812 11.15625 -18.3125 10.1875 -18.3125 L 8.34375 -18.3125 C 7.632812 -18.3125 7.113281 -18.253906 6.78125 -18.140625 C 6.445312 -18.023438 6.210938 -17.832031 6.078125 -17.5625 C 5.941406 -17.289062 5.875 -16.882812 5.875 -16.34375 L 5.875 -10.1875 L 9.578125 -10.1875 C 10.546875 -10.1875 11.238281 -10.347656 11.65625 -10.671875 C 12.070312 -10.992188 12.28125 -11.539062 12.28125 -12.3125 C 12.28125 -12.351562 12.335938 -12.375 12.453125 -12.375 C 12.578125 -12.375 12.640625 -12.351562 12.640625 -12.3125 L 12.609375 -9.859375 C 12.609375 -9.265625 12.617188 -8.816406 12.640625 -8.515625 L 12.671875 -7.0625 C 12.671875 -7.019531 12.609375 -7 12.484375 -7 C 12.367188 -7 12.3125 -7.019531 12.3125 -7.0625 C 12.3125 -7.945312 12.09375 -8.582031 11.65625 -8.96875 C 11.21875 -9.351562 10.492188 -9.546875 9.484375 -9.546875 L 5.875 -9.546875 L 5.875 -2.578125 C 5.875 -2.015625 5.9375 -1.597656 6.0625 -1.328125 C 6.1875 -1.066406 6.410156 -0.882812 6.734375 -0.78125 C 7.054688 -0.6875 7.5625 -0.640625 8.25 -0.640625 L 10.671875 -0.640625 C 11.640625 -0.640625 12.445312 -0.984375 13.09375 -1.671875 C 13.738281 -2.359375 14.175781 -3.304688 14.40625 -4.515625 Z M 14.40625 -4.515625 "/></g></g></g><g fill="#ffffff" fill-opacity="1"><g transform="translate(315.599962, 39.979513)"><g><path d="M 12.578125 -19.28125 C 13.546875 -19.28125 14.523438 -19.1875 15.515625 -19 C 16.503906 -18.820312 17.296875 -18.5625 17.890625 -18.21875 C 18.066406 -18.132812 18.179688 -18.046875 18.234375 -17.953125 C 18.285156 -17.867188 18.320312 -17.710938 18.34375 -17.484375 L 18.671875 -14.09375 C 18.671875 -14.03125 18.617188 -13.992188 18.515625 -13.984375 C 18.421875 -13.972656 18.363281 -14 18.34375 -14.0625 C 17.894531 -15.625 17.066406 -16.769531 15.859375 -17.5 C 14.660156 -18.238281 13.171875 -18.609375 11.390625 -18.609375 C 9.859375 -18.609375 8.515625 -18.269531 7.359375 -17.59375 C 6.210938 -16.914062 5.328125 -15.960938 4.703125 -14.734375 C 4.078125 -13.503906 3.765625 -12.078125 3.765625 -10.453125 C 3.765625 -8.578125 4.148438 -6.835938 4.921875 -5.234375 C 5.703125 -3.640625 6.753906 -2.378906 8.078125 -1.453125 C 9.398438 -0.523438 10.832031 -0.0625 12.375 -0.0625 C 13.820312 -0.0625 15.082031 -0.457031 16.15625 -1.25 C 17.226562 -2.050781 18.046875 -3.28125 18.609375 -4.9375 C 18.609375 -5 18.648438 -5.03125 18.734375 -5.03125 C 18.796875 -5.03125 18.847656 -5.019531 18.890625 -5 C 18.941406 -4.976562 18.96875 -4.945312 18.96875 -4.90625 L 18.546875 -1.484375 C 18.503906 -1.242188 18.457031 -1.085938 18.40625 -1.015625 C 18.363281 -0.941406 18.25 -0.863281 18.0625 -0.78125 C 16.25 -0.0195312 14.332031 0.359375 12.3125 0.359375 C 9.882812 0.359375 7.859375 -0.128906 6.234375 -1.109375 C 4.609375 -2.085938 3.410156 -3.332031 2.640625 -4.84375 C 1.867188 -6.363281 1.484375 -7.960938 1.484375 -9.640625 C 1.484375 -11.492188 2 -13.160156 3.03125 -14.640625 C 4.0625 -16.117188 5.425781 -17.257812 7.125 -18.0625 C 8.820312 -18.875 10.640625 -19.28125 12.578125 -19.28125 Z M 12.578125 -19.28125 "/></g></g></g><g fill="#ffffff" fill-opacity="1"><g transform="translate(340.545569, 39.979513)"><g><path d="M 21.1875 -0.359375 C 21.269531 -0.359375 21.3125 -0.296875 21.3125 -0.171875 C 21.3125 -0.0546875 21.269531 0 21.1875 0 C 20.800781 0 20.207031 -0.0195312 19.40625 -0.0625 C 18.59375 -0.101562 18.003906 -0.125 17.640625 -0.125 C 17.191406 -0.125 16.625 -0.101562 15.9375 -0.0625 C 15.289062 -0.0195312 14.796875 0 14.453125 0 C 14.378906 0 14.34375 -0.0546875 14.34375 -0.171875 C 14.34375 -0.296875 14.378906 -0.359375 14.453125 -0.359375 C 15.203125 -0.359375 15.75 -0.425781 16.09375 -0.5625 C 16.4375 -0.707031 16.609375 -0.953125 16.609375 -1.296875 C 16.609375 -1.585938 16.476562 -2.023438 16.21875 -2.609375 L 12.734375 -10.03125 L 7 -10.03125 L 4.390625 -3.84375 C 4.109375 -3.15625 3.96875 -2.59375 3.96875 -2.15625 C 3.96875 -0.957031 4.957031 -0.359375 6.9375 -0.359375 C 7.039062 -0.359375 7.09375 -0.296875 7.09375 -0.171875 C 7.09375 -0.0546875 7.039062 0 6.9375 0 C 6.570312 0 6.046875 -0.0195312 5.359375 -0.0625 C 4.597656 -0.101562 3.929688 -0.125 3.359375 -0.125 C 2.835938 -0.125 2.234375 -0.101562 1.546875 -0.0625 C 0.941406 -0.0195312 0.4375 0 0.03125 0 C -0.0703125 0 -0.125 -0.0546875 -0.125 -0.171875 C -0.125 -0.296875 -0.0703125 -0.359375 0.03125 -0.359375 C 0.59375 -0.359375 1.070312 -0.460938 1.46875 -0.671875 C 1.863281 -0.890625 2.238281 -1.265625 2.59375 -1.796875 C 2.945312 -2.335938 3.335938 -3.113281 3.765625 -4.125 L 10.15625 -19.21875 C 10.195312 -19.28125 10.265625 -19.3125 10.359375 -19.3125 C 10.460938 -19.3125 10.523438 -19.28125 10.546875 -19.21875 L 17.703125 -4.15625 C 18.390625 -2.65625 18.972656 -1.644531 19.453125 -1.125 C 19.941406 -0.613281 20.519531 -0.359375 21.1875 -0.359375 Z M 7.28125 -10.671875 L 12.421875 -10.671875 L 9.703125 -16.421875 Z M 7.28125 -10.671875 "/></g></g></g><g fill="#ffffff" fill-opacity="1"><g transform="translate(366.491331, 39.979513)"><g><path d="M 20.703125 -0.359375 C 20.742188 -0.359375 20.765625 -0.296875 20.765625 -0.171875 C 20.765625 -0.0546875 20.742188 0 20.703125 0 L 16.796875 0 C 16.285156 0 15.335938 -0.863281 13.953125 -2.59375 C 12.566406 -4.320312 10.882812 -6.734375 8.90625 -9.828125 C 8.425781 -9.679688 7.882812 -9.609375 7.28125 -9.609375 C 6.894531 -9.609375 6.4375 -9.628906 5.90625 -9.671875 L 5.90625 -2.453125 C 5.90625 -1.828125 5.96875 -1.375 6.09375 -1.09375 C 6.21875 -0.8125 6.453125 -0.617188 6.796875 -0.515625 C 7.148438 -0.410156 7.710938 -0.359375 8.484375 -0.359375 C 8.546875 -0.359375 8.578125 -0.296875 8.578125 -0.171875 C 8.578125 -0.0546875 8.546875 0 8.484375 0 C 7.859375 0 7.363281 -0.0078125 7 -0.03125 L 4.90625 -0.0625 L 2.84375 -0.03125 C 2.476562 -0.0078125 1.960938 0 1.296875 0 C 1.265625 0 1.25 -0.0546875 1.25 -0.171875 C 1.25 -0.296875 1.265625 -0.359375 1.296875 -0.359375 C 2.066406 -0.359375 2.632812 -0.414062 3 -0.53125 C 3.363281 -0.644531 3.613281 -0.84375 3.75 -1.125 C 3.894531 -1.40625 3.96875 -1.847656 3.96875 -2.453125 L 3.96875 -16.484375 C 3.96875 -17.097656 3.898438 -17.546875 3.765625 -17.828125 C 3.640625 -18.109375 3.398438 -18.300781 3.046875 -18.40625 C 2.691406 -18.519531 2.128906 -18.578125 1.359375 -18.578125 C 1.296875 -18.578125 1.265625 -18.640625 1.265625 -18.765625 C 1.265625 -18.890625 1.296875 -18.953125 1.359375 -18.953125 L 2.84375 -18.921875 C 3.695312 -18.878906 4.382812 -18.859375 4.90625 -18.859375 C 5.269531 -18.859375 5.613281 -18.867188 5.9375 -18.890625 C 6.257812 -18.910156 6.546875 -18.929688 6.796875 -18.953125 C 7.441406 -19.003906 8.023438 -19.03125 8.546875 -19.03125 C 10.179688 -19.03125 11.441406 -18.695312 12.328125 -18.03125 C 13.222656 -17.363281 13.671875 -16.4375 13.671875 -15.25 C 13.671875 -14.28125 13.382812 -13.363281 12.8125 -12.5 C 12.25 -11.644531 11.503906 -10.960938 10.578125 -10.453125 C 12.296875 -7.890625 13.738281 -5.882812 14.90625 -4.4375 C 16.082031 -3 17.125 -1.957031 18.03125 -1.3125 C 18.945312 -0.675781 19.835938 -0.359375 20.703125 -0.359375 Z M 5.90625 -10.421875 C 6.414062 -10.347656 7.015625 -10.3125 7.703125 -10.3125 C 9.097656 -10.3125 10.097656 -10.609375 10.703125 -11.203125 C 11.304688 -11.796875 11.609375 -12.789062 11.609375 -14.1875 C 11.609375 -17.113281 10.375 -18.578125 7.90625 -18.578125 C 7.363281 -18.578125 6.957031 -18.53125 6.6875 -18.4375 C 6.414062 -18.351562 6.21875 -18.164062 6.09375 -17.875 C 5.96875 -17.582031 5.90625 -17.097656 5.90625 -16.421875 Z M 5.90625 -10.421875 "/></g></g></g><g fill="#ffffff" fill-opacity="1"><g transform="translate(391.558176, 39.979513)"><g><path d="M 11.09375 0.359375 C 9.21875 0.359375 7.546875 -0.078125 6.078125 -0.953125 C 4.609375 -1.835938 3.472656 -3.03125 2.671875 -4.53125 C 1.878906 -6.039062 1.484375 -7.679688 1.484375 -9.453125 C 1.484375 -11.535156 2.007812 -13.316406 3.0625 -14.796875 C 4.113281 -16.285156 5.460938 -17.40625 7.109375 -18.15625 C 8.753906 -18.90625 10.4375 -19.28125 12.15625 -19.28125 C 14.070312 -19.28125 15.757812 -18.828125 17.21875 -17.921875 C 18.675781 -17.023438 19.789062 -15.835938 20.5625 -14.359375 C 21.34375 -12.890625 21.734375 -11.328125 21.734375 -9.671875 C 21.734375 -7.828125 21.25 -6.132812 20.28125 -4.59375 C 19.3125 -3.0625 18.007812 -1.851562 16.375 -0.96875 C 14.75 -0.0820312 12.988281 0.359375 11.09375 0.359375 Z M 12.15625 -0.265625 C 13.53125 -0.265625 14.765625 -0.597656 15.859375 -1.265625 C 16.960938 -1.941406 17.832031 -2.925781 18.46875 -4.21875 C 19.113281 -5.507812 19.4375 -7.046875 19.4375 -8.828125 C 19.4375 -10.722656 19.082031 -12.40625 18.375 -13.875 C 17.664062 -15.351562 16.664062 -16.503906 15.375 -17.328125 C 14.09375 -18.160156 12.59375 -18.578125 10.875 -18.578125 C 8.65625 -18.578125 6.921875 -17.859375 5.671875 -16.421875 C 4.421875 -14.992188 3.796875 -13.023438 3.796875 -10.515625 C 3.796875 -8.617188 4.144531 -6.882812 4.84375 -5.3125 C 5.550781 -3.75 6.539062 -2.515625 7.8125 -1.609375 C 9.09375 -0.710938 10.539062 -0.265625 12.15625 -0.265625 Z M 12.15625 -0.265625 "/></g></g></g><g fill="#ffffff" fill-opacity="1"><g transform="translate(419.443612, 39.979513)"><g><path d="M 4.390625 -15.40625 C 4.390625 -14.613281 4.582031 -13.921875 4.96875 -13.328125 C 5.351562 -12.742188 5.816406 -12.253906 6.359375 -11.859375 C 6.910156 -11.472656 7.679688 -10.972656 8.671875 -10.359375 C 9.722656 -9.734375 10.539062 -9.207031 11.125 -8.78125 C 11.707031 -8.363281 12.207031 -7.828125 12.625 -7.171875 C 13.039062 -6.515625 13.25 -5.726562 13.25 -4.8125 C 13.25 -3.84375 13.003906 -2.960938 12.515625 -2.171875 C 12.035156 -1.390625 11.320312 -0.769531 10.375 -0.3125 C 9.4375 0.132812 8.3125 0.359375 7 0.359375 C 5.445312 0.359375 4.023438 0.00390625 2.734375 -0.703125 C 2.628906 -0.753906 2.5625 -0.820312 2.53125 -0.90625 C 2.5 -0.988281 2.472656 -1.109375 2.453125 -1.265625 L 2.0625 -5.390625 C 2.039062 -5.472656 2.082031 -5.523438 2.1875 -5.546875 C 2.300781 -5.566406 2.367188 -5.535156 2.390625 -5.453125 C 2.710938 -4.003906 3.3125 -2.753906 4.1875 -1.703125 C 5.070312 -0.648438 6.242188 -0.125 7.703125 -0.125 C 8.710938 -0.125 9.566406 -0.398438 10.265625 -0.953125 C 10.960938 -1.503906 11.3125 -2.390625 11.3125 -3.609375 C 11.3125 -4.515625 11.109375 -5.300781 10.703125 -5.96875 C 10.296875 -6.632812 9.800781 -7.1875 9.21875 -7.625 C 8.644531 -8.0625 7.863281 -8.570312 6.875 -9.15625 C 5.90625 -9.738281 5.144531 -10.242188 4.59375 -10.671875 C 4.039062 -11.097656 3.570312 -11.632812 3.1875 -12.28125 C 2.800781 -12.925781 2.609375 -13.679688 2.609375 -14.546875 C 2.609375 -15.554688 2.875 -16.421875 3.40625 -17.140625 C 3.945312 -17.859375 4.644531 -18.394531 5.5 -18.75 C 6.363281 -19.101562 7.28125 -19.28125 8.25 -19.28125 C 9.4375 -19.28125 10.617188 -19.035156 11.796875 -18.546875 C 12.097656 -18.453125 12.25 -18.28125 12.25 -18.03125 L 12.453125 -14.546875 C 12.453125 -14.460938 12.398438 -14.421875 12.296875 -14.421875 C 12.203125 -14.421875 12.144531 -14.460938 12.125 -14.546875 C 11.957031 -15.597656 11.519531 -16.570312 10.8125 -17.46875 C 10.113281 -18.375 9.097656 -18.828125 7.765625 -18.828125 C 6.628906 -18.828125 5.78125 -18.5 5.21875 -17.84375 C 4.664062 -17.1875 4.390625 -16.375 4.390625 -15.40625 Z M 4.390625 -15.40625 "/></g></g></g><g fill="#ffffff" fill-opacity="1"><g transform="translate(438.994511, 39.979513)"><g/></g></g><g fill="#ffffff" fill-opacity="1"><g transform="translate(450.756395, 39.979513)"><g><path d="M 18.609375 -18.953125 C 18.648438 -18.953125 18.671875 -18.890625 18.671875 -18.765625 C 18.671875 -18.640625 18.648438 -18.578125 18.609375 -18.578125 C 17.878906 -18.578125 17.140625 -18.304688 16.390625 -17.765625 C 15.648438 -17.234375 14.988281 -16.503906 14.40625 -15.578125 L 10.34375 -9.34375 L 10.34375 -2.453125 C 10.34375 -1.828125 10.398438 -1.375 10.515625 -1.09375 C 10.640625 -0.8125 10.878906 -0.617188 11.234375 -0.515625 C 11.585938 -0.410156 12.144531 -0.359375 12.90625 -0.359375 C 12.96875 -0.359375 13 -0.296875 13 -0.171875 C 13 -0.0546875 12.96875 0 12.90625 0 C 12.28125 0 11.796875 -0.0078125 11.453125 -0.03125 L 9.34375 -0.0625 L 7.25 -0.03125 C 6.882812 -0.0078125 6.390625 0 5.765625 0 C 5.703125 0 5.671875 -0.0546875 5.671875 -0.171875 C 5.671875 -0.296875 5.703125 -0.359375 5.765625 -0.359375 C 6.523438 -0.359375 7.082031 -0.410156 7.4375 -0.515625 C 7.789062 -0.617188 8.03125 -0.816406 8.15625 -1.109375 C 8.289062 -1.398438 8.359375 -1.847656 8.359375 -2.453125 L 8.359375 -8.84375 L 3.328125 -16.21875 C 2.765625 -17.101562 2.226562 -17.71875 1.71875 -18.0625 C 1.21875 -18.40625 0.632812 -18.578125 -0.03125 -18.578125 C -0.09375 -18.578125 -0.125 -18.640625 -0.125 -18.765625 C -0.125 -18.890625 -0.09375 -18.953125 -0.03125 -18.953125 C 0.207031 -18.953125 0.570312 -18.929688 1.0625 -18.890625 L 2.125 -18.859375 C 2.8125 -18.859375 3.679688 -18.878906 4.734375 -18.921875 L 6.359375 -18.953125 C 6.398438 -18.953125 6.421875 -18.890625 6.421875 -18.765625 C 6.421875 -18.640625 6.398438 -18.578125 6.359375 -18.578125 C 5.316406 -18.578125 4.796875 -18.363281 4.796875 -17.9375 C 4.796875 -17.71875 4.894531 -17.46875 5.09375 -17.1875 L 9.96875 -10.03125 L 13.671875 -15.703125 C 14.117188 -16.410156 14.34375 -17.003906 14.34375 -17.484375 C 14.34375 -18.210938 13.796875 -18.578125 12.703125 -18.578125 C 12.660156 -18.578125 12.640625 -18.640625 12.640625 -18.765625 C 12.640625 -18.890625 12.660156 -18.953125 12.703125 -18.953125 L 14.125 -18.921875 C 14.894531 -18.878906 15.601562 -18.859375 16.25 -18.859375 C 16.59375 -18.859375 17.003906 -18.878906 17.484375 -18.921875 Z M 18.609375 -18.953125 "/></g></g></g><g fill="#ffffff" fill-opacity="1"><g transform="translate(473.883566, 39.979513)"><g/></g></g><g fill="#ffffff" fill-opacity="1"><g transform="translate(485.64545, 39.979513)"><g><path d="M 21.1875 -0.359375 C 21.269531 -0.359375 21.3125 -0.296875 21.3125 -0.171875 C 21.3125 -0.0546875 21.269531 0 21.1875 0 C 20.800781 0 20.207031 -0.0195312 19.40625 -0.0625 C 18.59375 -0.101562 18.003906 -0.125 17.640625 -0.125 C 17.191406 -0.125 16.625 -0.101562 15.9375 -0.0625 C 15.289062 -0.0195312 14.796875 0 14.453125 0 C 14.378906 0 14.34375 -0.0546875 14.34375 -0.171875 C 14.34375 -0.296875 14.378906 -0.359375 14.453125 -0.359375 C 15.203125 -0.359375 15.75 -0.425781 16.09375 -0.5625 C 16.4375 -0.707031 16.609375 -0.953125 16.609375 -1.296875 C 16.609375 -1.585938 16.476562 -2.023438 16.21875 -2.609375 L 12.734375 -10.03125 L 7 -10.03125 L 4.390625 -3.84375 C 4.109375 -3.15625 3.96875 -2.59375 3.96875 -2.15625 C 3.96875 -0.957031 4.957031 -0.359375 6.9375 -0.359375 C 7.039062 -0.359375 7.09375 -0.296875 7.09375 -0.171875 C 7.09375 -0.0546875 7.039062 0 6.9375 0 C 6.570312 0 6.046875 -0.0195312 5.359375 -0.0625 C 4.597656 -0.101562 3.929688 -0.125 3.359375 -0.125 C 2.835938 -0.125 2.234375 -0.101562 1.546875 -0.0625 C 0.941406 -0.0195312 0.4375 0 0.03125 0 C -0.0703125 0 -0.125 -0.0546875 -0.125 -0.171875 C -0.125 -0.296875 -0.0703125 -0.359375 0.03125 -0.359375 C 0.59375 -0.359375 1.070312 -0.460938 1.46875 -0.671875 C 1.863281 -0.890625 2.238281 -1.265625 2.59375 -1.796875 C 2.945312 -2.335938 3.335938 -3.113281 3.765625 -4.125 L 10.15625 -19.21875 C 10.195312 -19.28125 10.265625 -19.3125 10.359375 -19.3125 C 10.460938 -19.3125 10.523438 -19.28125 10.546875 -19.21875 L 17.703125 -4.15625 C 18.390625 -2.65625 18.972656 -1.644531 19.453125 -1.125 C 19.941406 -0.613281 20.519531 -0.359375 21.1875 -0.359375 Z M 7.28125 -10.671875 L 12.421875 -10.671875 L 9.703125 -16.421875 Z M 7.28125 -10.671875 "/></g></g></g><g fill="#ffffff" fill-opacity="1"><g transform="translate(511.591211, 39.979513)"><g><path d="M 4.390625 -15.40625 C 4.390625 -14.613281 4.582031 -13.921875 4.96875 -13.328125 C 5.351562 -12.742188 5.816406 -12.253906 6.359375 -11.859375 C 6.910156 -11.472656 7.679688 -10.972656 8.671875 -10.359375 C 9.722656 -9.734375 10.539062 -9.207031 11.125 -8.78125 C 11.707031 -8.363281 12.207031 -7.828125 12.625 -7.171875 C 13.039062 -6.515625 13.25 -5.726562 13.25 -4.8125 C 13.25 -3.84375 13.003906 -2.960938 12.515625 -2.171875 C 12.035156 -1.390625 11.320312 -0.769531 10.375 -0.3125 C 9.4375 0.132812 8.3125 0.359375 7 0.359375 C 5.445312 0.359375 4.023438 0.00390625 2.734375 -0.703125 C 2.628906 -0.753906 2.5625 -0.820312 2.53125 -0.90625 C 2.5 -0.988281 2.472656 -1.109375 2.453125 -1.265625 L 2.0625 -5.390625 C 2.039062 -5.472656 2.082031 -5.523438 2.1875 -5.546875 C 2.300781 -5.566406 2.367188 -5.535156 2.390625 -5.453125 C 2.710938 -4.003906 3.3125 -2.753906 4.1875 -1.703125 C 5.070312 -0.648438 6.242188 -0.125 7.703125 -0.125 C 8.710938 -0.125 9.566406 -0.398438 10.265625 -0.953125 C 10.960938 -1.503906 11.3125 -2.390625 11.3125 -3.609375 C 11.3125 -4.515625 11.109375 -5.300781 10.703125 -5.96875 C 10.296875 -6.632812 9.800781 -7.1875 9.21875 -7.625 C 8.644531 -8.0625 7.863281 -8.570312 6.875 -9.15625 C 5.90625 -9.738281 5.144531 -10.242188 4.59375 -10.671875 C 4.039062 -11.097656 3.570312 -11.632812 3.1875 -12.28125 C 2.800781 -12.925781 2.609375 -13.679688 2.609375 -14.546875 C 2.609375 -15.554688 2.875 -16.421875 3.40625 -17.140625 C 3.945312 -17.859375 4.644531 -18.394531 5.5 -18.75 C 6.363281 -19.101562 7.28125 -19.28125 8.25 -19.28125 C 9.4375 -19.28125 10.617188 -19.035156 11.796875 -18.546875 C 12.097656 -18.453125 12.25 -18.28125 12.25 -18.03125 L 12.453125 -14.546875 C 12.453125 -14.460938 12.398438 -14.421875 12.296875 -14.421875 C 12.203125 -14.421875 12.144531 -14.460938 12.125 -14.546875 C 11.957031 -15.597656 11.519531 -16.570312 10.8125 -17.46875 C 10.113281 -18.375 9.097656 -18.828125 7.765625 -18.828125 C 6.628906 -18.828125 5.78125 -18.5 5.21875 -17.84375 C 4.664062 -17.1875 4.390625 -16.375 4.390625 -15.40625 Z M 4.390625 -15.40625 "/></g></g></g><g fill="#ffffff" fill-opacity="1"><g transform="translate(531.142111, 39.979513)"><g><path d="M 5.734375 -18.40625 C 4.453125 -18.40625 3.492188 -18.078125 2.859375 -17.421875 C 2.222656 -16.773438 1.765625 -15.675781 1.484375 -14.125 C 1.484375 -14.082031 1.425781 -14.0625 1.3125 -14.0625 C 1.207031 -14.0625 1.15625 -14.082031 1.15625 -14.125 C 1.226562 -14.851562 1.316406 -15.800781 1.421875 -16.96875 C 1.523438 -18.144531 1.578125 -19.023438 1.578125 -19.609375 C 1.578125 -19.710938 1.628906 -19.765625 1.734375 -19.765625 C 1.847656 -19.765625 1.90625 -19.710938 1.90625 -19.609375 C 1.90625 -19.171875 2.453125 -18.953125 3.546875 -18.953125 C 5.265625 -18.890625 7.296875 -18.859375 9.640625 -18.859375 C 10.828125 -18.859375 12.085938 -18.878906 13.421875 -18.921875 L 15.484375 -18.953125 C 16.210938 -18.953125 16.753906 -19 17.109375 -19.09375 C 17.460938 -19.195312 17.691406 -19.398438 17.796875 -19.703125 C 17.816406 -19.785156 17.875 -19.828125 17.96875 -19.828125 C 18.070312 -19.828125 18.125 -19.785156 18.125 -19.703125 C 18.0625 -19.117188 18 -18.226562 17.9375 -17.03125 C 17.882812 -15.84375 17.859375 -14.875 17.859375 -14.125 C 17.859375 -14.082031 17.796875 -14.0625 17.671875 -14.0625 C 17.546875 -14.0625 17.484375 -14.082031 17.484375 -14.125 C 17.429688 -15.695312 17.109375 -16.800781 16.515625 -17.4375 C 15.929688 -18.082031 14.960938 -18.40625 13.609375 -18.40625 C 12.703125 -18.40625 12.054688 -18.363281 11.671875 -18.28125 C 11.285156 -18.195312 11.019531 -18.023438 10.875 -17.765625 C 10.738281 -17.503906 10.671875 -17.054688 10.671875 -16.421875 L 10.671875 -2.453125 C 10.671875 -1.828125 10.738281 -1.375 10.875 -1.09375 C 11.019531 -0.8125 11.296875 -0.617188 11.703125 -0.515625 C 12.109375 -0.410156 12.742188 -0.359375 13.609375 -0.359375 C 13.671875 -0.359375 13.703125 -0.296875 13.703125 -0.171875 C 13.703125 -0.0546875 13.671875 0 13.609375 0 C 12.941406 0 12.40625 -0.0078125 12 -0.03125 L 9.640625 -0.0625 L 7.359375 -0.03125 C 6.960938 -0.0078125 6.410156 0 5.703125 0 C 5.660156 0 5.640625 -0.0546875 5.640625 -0.171875 C 5.640625 -0.296875 5.660156 -0.359375 5.703125 -0.359375 C 6.566406 -0.359375 7.203125 -0.410156 7.609375 -0.515625 C 8.015625 -0.617188 8.289062 -0.816406 8.4375 -1.109375 C 8.59375 -1.398438 8.671875 -1.847656 8.671875 -2.453125 L 8.671875 -16.484375 C 8.671875 -17.117188 8.597656 -17.5625 8.453125 -17.8125 C 8.316406 -18.0625 8.054688 -18.222656 7.671875 -18.296875 C 7.285156 -18.367188 6.640625 -18.40625 5.734375 -18.40625 Z M 5.734375 -18.40625 "/></g></g></g><g fill="#ffffff" fill-opacity="1"><g transform="translate(555.026992, 39.979513)"><g><path d="M 14.40625 -4.515625 C 14.40625 -4.554688 14.441406 -4.578125 14.515625 -4.578125 C 14.578125 -4.578125 14.632812 -4.566406 14.6875 -4.546875 C 14.738281 -4.523438 14.765625 -4.492188 14.765625 -4.453125 C 14.578125 -3.179688 14.484375 -1.847656 14.484375 -0.453125 C 14.484375 -0.296875 14.445312 -0.179688 14.375 -0.109375 C 14.3125 -0.0351562 14.1875 0 14 0 L 1.296875 0 C 1.265625 0 1.25 -0.0546875 1.25 -0.171875 C 1.25 -0.296875 1.265625 -0.359375 1.296875 -0.359375 C 2.066406 -0.359375 2.628906 -0.410156 2.984375 -0.515625 C 3.335938 -0.617188 3.578125 -0.816406 3.703125 -1.109375 C 3.835938 -1.398438 3.90625 -1.847656 3.90625 -2.453125 L 3.90625 -16.484375 C 3.90625 -17.097656 3.835938 -17.546875 3.703125 -17.828125 C 3.578125 -18.109375 3.335938 -18.300781 2.984375 -18.40625 C 2.628906 -18.519531 2.066406 -18.578125 1.296875 -18.578125 C 1.265625 -18.578125 1.25 -18.640625 1.25 -18.765625 C 1.25 -18.890625 1.265625 -18.953125 1.296875 -18.953125 L 13.484375 -18.953125 C 13.671875 -18.953125 13.765625 -18.859375 13.765625 -18.671875 L 13.828125 -14.9375 C 13.828125 -14.882812 13.773438 -14.851562 13.671875 -14.84375 C 13.566406 -14.832031 13.503906 -14.851562 13.484375 -14.90625 C 13.421875 -15.976562 13.097656 -16.8125 12.515625 -17.40625 C 11.929688 -18.007812 11.15625 -18.3125 10.1875 -18.3125 L 8.34375 -18.3125 C 7.632812 -18.3125 7.113281 -18.253906 6.78125 -18.140625 C 6.445312 -18.023438 6.210938 -17.832031 6.078125 -17.5625 C 5.941406 -17.289062 5.875 -16.882812 5.875 -16.34375 L 5.875 -10.1875 L 9.578125 -10.1875 C 10.546875 -10.1875 11.238281 -10.347656 11.65625 -10.671875 C 12.070312 -10.992188 12.28125 -11.539062 12.28125 -12.3125 C 12.28125 -12.351562 12.335938 -12.375 12.453125 -12.375 C 12.578125 -12.375 12.640625 -12.351562 12.640625 -12.3125 L 12.609375 -9.859375 C 12.609375 -9.265625 12.617188 -8.816406 12.640625 -8.515625 L 12.671875 -7.0625 C 12.671875 -7.019531 12.609375 -7 12.484375 -7 C 12.367188 -7 12.3125 -7.019531 12.3125 -7.0625 C 12.3125 -7.945312 12.09375 -8.582031 11.65625 -8.96875 C 11.21875 -9.351562 10.492188 -9.546875 9.484375 -9.546875 L 5.875 -9.546875 L 5.875 -2.578125 C 5.875 -2.015625 5.9375 -1.597656 6.0625 -1.328125 C 6.1875 -1.066406 6.410156 -0.882812 6.734375 -0.78125 C 7.054688 -0.6875 7.5625 -0.640625 8.25 -0.640625 L 10.671875 -0.640625 C 11.640625 -0.640625 12.445312 -0.984375 13.09375 -1.671875 C 13.738281 -2.359375 14.175781 -3.304688 14.40625 -4.515625 Z M 14.40625 -4.515625 "/></g></g></g><g fill="#ffffff" fill-opacity="1"><g transform="translate(223.079871, 74.014043)"><g><path d="M 12.828125 -0.21875 C 12.878906 -0.21875 12.90625 -0.179688 12.90625 -0.109375 C 12.90625 -0.0351562 12.878906 0 12.828125 0 C 12.597656 0 12.238281 -0.0078125 11.75 -0.03125 C 11.257812 -0.0625 10.90625 -0.078125 10.6875 -0.078125 C 10.414062 -0.078125 10.070312 -0.0625 9.65625 -0.03125 C 9.257812 -0.0078125 8.957031 0 8.75 0 C 8.707031 0 8.6875 -0.0351562 8.6875 -0.109375 C 8.6875 -0.179688 8.707031 -0.21875 8.75 -0.21875 C 9.207031 -0.21875 9.539062 -0.257812 9.75 -0.34375 C 9.957031 -0.4375 10.0625 -0.585938 10.0625 -0.796875 C 10.0625 -0.960938 9.984375 -1.222656 9.828125 -1.578125 L 7.71875 -6.078125 L 4.234375 -6.078125 L 2.65625 -2.328125 C 2.488281 -1.910156 2.40625 -1.566406 2.40625 -1.296875 C 2.40625 -0.578125 3.003906 -0.21875 4.203125 -0.21875 C 4.265625 -0.21875 4.296875 -0.179688 4.296875 -0.109375 C 4.296875 -0.0351562 4.265625 0 4.203125 0 C 3.984375 0 3.664062 -0.0078125 3.25 -0.03125 C 2.78125 -0.0625 2.375 -0.078125 2.03125 -0.078125 C 1.71875 -0.078125 1.351562 -0.0625 0.9375 -0.03125 C 0.570312 -0.0078125 0.265625 0 0.015625 0 C -0.046875 0 -0.078125 -0.0351562 -0.078125 -0.109375 C -0.078125 -0.179688 -0.046875 -0.21875 0.015625 -0.21875 C 0.359375 -0.21875 0.648438 -0.28125 0.890625 -0.40625 C 1.128906 -0.539062 1.351562 -0.769531 1.5625 -1.09375 C 1.78125 -1.414062 2.019531 -1.882812 2.28125 -2.5 L 6.15625 -11.640625 C 6.175781 -11.671875 6.21875 -11.6875 6.28125 -11.6875 C 6.34375 -11.6875 6.378906 -11.671875 6.390625 -11.640625 L 10.71875 -2.515625 C 11.132812 -1.609375 11.488281 -1 11.78125 -0.6875 C 12.082031 -0.375 12.429688 -0.21875 12.828125 -0.21875 Z M 4.40625 -6.46875 L 7.53125 -6.46875 L 5.875 -9.953125 Z M 4.40625 -6.46875 "/></g></g></g><g fill="#ffffff" fill-opacity="1"><g transform="translate(243.096571, 74.014043)"><g><path d="M 6.09375 -6.46875 C 7.0625 -6.394531 7.84375 -6.070312 8.4375 -5.5 C 9.03125 -4.925781 9.328125 -4.21875 9.328125 -3.375 C 9.328125 -2.726562 9.164062 -2.140625 8.84375 -1.609375 C 8.53125 -1.085938 8.09375 -0.675781 7.53125 -0.375 C 6.976562 -0.0703125 6.359375 0.078125 5.671875 0.078125 C 5.265625 0.078125 4.820312 0.0546875 4.34375 0.015625 C 4.175781 0.00390625 3.972656 -0.00390625 3.734375 -0.015625 C 3.503906 -0.0234375 3.25 -0.03125 2.96875 -0.03125 L 1.71875 -0.015625 C 1.5 -0.00390625 1.191406 0 0.796875 0 C 0.765625 0 0.75 -0.0351562 0.75 -0.109375 C 0.75 -0.179688 0.765625 -0.21875 0.796875 -0.21875 C 1.253906 -0.21875 1.59375 -0.25 1.8125 -0.3125 C 2.03125 -0.382812 2.179688 -0.503906 2.265625 -0.671875 C 2.359375 -0.847656 2.40625 -1.117188 2.40625 -1.484375 L 2.40625 -9.984375 C 2.40625 -10.347656 2.363281 -10.613281 2.28125 -10.78125 C 2.207031 -10.957031 2.054688 -11.078125 1.828125 -11.140625 C 1.609375 -11.210938 1.273438 -11.25 0.828125 -11.25 C 0.785156 -11.25 0.765625 -11.285156 0.765625 -11.359375 C 0.765625 -11.429688 0.785156 -11.46875 0.828125 -11.46875 L 1.71875 -11.453125 C 2.238281 -11.429688 2.65625 -11.421875 2.96875 -11.421875 C 3.195312 -11.421875 3.40625 -11.425781 3.59375 -11.4375 C 3.78125 -11.445312 3.941406 -11.457031 4.078125 -11.46875 C 4.453125 -11.507812 4.804688 -11.53125 5.140625 -11.53125 C 6.171875 -11.53125 6.941406 -11.304688 7.453125 -10.859375 C 7.960938 -10.410156 8.21875 -9.828125 8.21875 -9.109375 C 8.21875 -8.515625 8.03125 -7.988281 7.65625 -7.53125 C 7.28125 -7.070312 6.757812 -6.71875 6.09375 -6.46875 Z M 4.734375 -11.25 C 4.421875 -11.25 4.1875 -11.222656 4.03125 -11.171875 C 3.875 -11.128906 3.757812 -11.015625 3.6875 -10.828125 C 3.613281 -10.648438 3.578125 -10.359375 3.578125 -9.953125 L 3.578125 -6.46875 L 4.40625 -6.4375 C 5.300781 -6.4375 5.960938 -6.664062 6.390625 -7.125 C 6.816406 -7.59375 7.03125 -8.203125 7.03125 -8.953125 C 7.03125 -9.640625 6.84375 -10.191406 6.46875 -10.609375 C 6.09375 -11.035156 5.515625 -11.25 4.734375 -11.25 Z M 5.390625 -0.25 C 6.285156 -0.25 6.953125 -0.476562 7.390625 -0.9375 C 7.828125 -1.40625 8.046875 -2.066406 8.046875 -2.921875 C 8.046875 -3.847656 7.769531 -4.597656 7.21875 -5.171875 C 6.675781 -5.753906 5.925781 -6.050781 4.96875 -6.0625 C 4.582031 -6.070312 4.117188 -6.054688 3.578125 -6.015625 L 3.578125 -1.484375 C 3.578125 -1.171875 3.625 -0.925781 3.71875 -0.75 C 3.8125 -0.582031 3.988281 -0.457031 4.25 -0.375 C 4.507812 -0.289062 4.890625 -0.25 5.390625 -0.25 Z M 5.390625 -0.25 "/></g></g></g><g fill="#ffffff" fill-opacity="1"><g transform="translate(260.468856, 74.014043)"><g><path d="M 6.71875 0.21875 C 5.582031 0.21875 4.566406 -0.046875 3.671875 -0.578125 C 2.785156 -1.109375 2.101562 -1.828125 1.625 -2.734375 C 1.144531 -3.648438 0.90625 -4.648438 0.90625 -5.734375 C 0.90625 -6.992188 1.222656 -8.070312 1.859375 -8.96875 C 2.492188 -9.863281 3.304688 -10.535156 4.296875 -10.984375 C 5.296875 -11.441406 6.316406 -11.671875 7.359375 -11.671875 C 8.523438 -11.671875 9.546875 -11.398438 10.421875 -10.859375 C 11.304688 -10.316406 11.984375 -9.597656 12.453125 -8.703125 C 12.921875 -7.804688 13.15625 -6.859375 13.15625 -5.859375 C 13.15625 -4.742188 12.863281 -3.71875 12.28125 -2.78125 C 11.695312 -1.851562 10.910156 -1.117188 9.921875 -0.578125 C 8.941406 -0.046875 7.875 0.21875 6.71875 0.21875 Z M 7.359375 -0.171875 C 8.191406 -0.171875 8.941406 -0.367188 9.609375 -0.765625 C 10.273438 -1.171875 10.800781 -1.765625 11.1875 -2.546875 C 11.570312 -3.335938 11.765625 -4.269531 11.765625 -5.34375 C 11.765625 -6.488281 11.550781 -7.507812 11.125 -8.40625 C 10.695312 -9.300781 10.09375 -10 9.3125 -10.5 C 8.539062 -11 7.632812 -11.25 6.59375 -11.25 C 5.25 -11.25 4.195312 -10.8125 3.4375 -9.9375 C 2.675781 -9.070312 2.296875 -7.882812 2.296875 -6.375 C 2.296875 -5.21875 2.507812 -4.164062 2.9375 -3.21875 C 3.363281 -2.269531 3.960938 -1.523438 4.734375 -0.984375 C 5.503906 -0.441406 6.378906 -0.171875 7.359375 -0.171875 Z M 7.359375 -0.171875 "/></g></g></g><g fill="#ffffff" fill-opacity="1"><g transform="translate(281.660855, 74.014043)"><g><path d="M 7.4375 0.21875 C 6.101562 0.21875 4.9375 -0.0351562 3.9375 -0.546875 C 2.945312 -1.066406 2.191406 -1.765625 1.671875 -2.640625 C 1.160156 -3.523438 0.90625 -4.507812 0.90625 -5.59375 C 0.90625 -6.78125 1.207031 -7.832031 1.8125 -8.75 C 2.414062 -9.675781 3.242188 -10.394531 4.296875 -10.90625 C 5.359375 -11.414062 6.554688 -11.671875 7.890625 -11.671875 C 8.492188 -11.671875 9.066406 -11.613281 9.609375 -11.5 C 10.148438 -11.382812 10.59375 -11.222656 10.9375 -11.015625 C 11.039062 -10.953125 11.097656 -10.898438 11.109375 -10.859375 C 11.128906 -10.816406 11.144531 -10.726562 11.15625 -10.59375 L 11.390625 -8.53125 C 11.390625 -8.5 11.351562 -8.476562 11.28125 -8.46875 C 11.21875 -8.46875 11.175781 -8.484375 11.15625 -8.515625 C 10.894531 -9.398438 10.410156 -10.078125 9.703125 -10.546875 C 8.992188 -11.023438 8.128906 -11.265625 7.109375 -11.265625 C 5.566406 -11.265625 4.375 -10.816406 3.53125 -9.921875 C 2.6875 -9.035156 2.265625 -7.816406 2.265625 -6.265625 C 2.265625 -5.078125 2.503906 -4.015625 2.984375 -3.078125 C 3.460938 -2.140625 4.128906 -1.40625 4.984375 -0.875 C 5.847656 -0.351562 6.8125 -0.09375 7.875 -0.09375 C 8.5 -0.09375 8.984375 -0.144531 9.328125 -0.25 C 9.671875 -0.363281 9.921875 -0.578125 10.078125 -0.890625 C 10.234375 -1.210938 10.3125 -1.6875 10.3125 -2.3125 C 10.3125 -2.945312 10.269531 -3.390625 10.1875 -3.640625 C 10.113281 -3.890625 9.9375 -4.054688 9.65625 -4.140625 C 9.382812 -4.234375 8.914062 -4.28125 8.25 -4.28125 C 8.175781 -4.28125 8.140625 -4.328125 8.140625 -4.421875 C 8.140625 -4.460938 8.144531 -4.5 8.15625 -4.53125 C 8.175781 -4.5625 8.195312 -4.578125 8.21875 -4.578125 C 9.175781 -4.515625 9.945312 -4.484375 10.53125 -4.484375 C 11.113281 -4.484375 11.71875 -4.5 12.34375 -4.53125 C 12.363281 -4.53125 12.378906 -4.515625 12.390625 -4.484375 C 12.410156 -4.453125 12.421875 -4.425781 12.421875 -4.40625 C 12.421875 -4.320312 12.394531 -4.28125 12.34375 -4.28125 C 12.039062 -4.289062 11.828125 -4.25 11.703125 -4.15625 C 11.585938 -4.0625 11.507812 -3.875 11.46875 -3.59375 C 11.4375 -3.3125 11.421875 -2.820312 11.421875 -2.125 C 11.421875 -1.570312 11.441406 -1.179688 11.484375 -0.953125 C 11.523438 -0.722656 11.546875 -0.578125 11.546875 -0.515625 C 11.546875 -0.441406 11.53125 -0.390625 11.5 -0.359375 C 11.476562 -0.335938 11.425781 -0.316406 11.34375 -0.296875 C 9.863281 0.046875 8.5625 0.21875 7.4375 0.21875 Z M 7.4375 0.21875 "/></g></g></g><g fill="#ffffff" fill-opacity="1"><g transform="translate(301.897914, 74.014043)"><g><path d="M 12.828125 -0.21875 C 12.878906 -0.21875 12.90625 -0.179688 12.90625 -0.109375 C 12.90625 -0.0351562 12.878906 0 12.828125 0 C 12.597656 0 12.238281 -0.0078125 11.75 -0.03125 C 11.257812 -0.0625 10.90625 -0.078125 10.6875 -0.078125 C 10.414062 -0.078125 10.070312 -0.0625 9.65625 -0.03125 C 9.257812 -0.0078125 8.957031 0 8.75 0 C 8.707031 0 8.6875 -0.0351562 8.6875 -0.109375 C 8.6875 -0.179688 8.707031 -0.21875 8.75 -0.21875 C 9.207031 -0.21875 9.539062 -0.257812 9.75 -0.34375 C 9.957031 -0.4375 10.0625 -0.585938 10.0625 -0.796875 C 10.0625 -0.960938 9.984375 -1.222656 9.828125 -1.578125 L 7.71875 -6.078125 L 4.234375 -6.078125 L 2.65625 -2.328125 C 2.488281 -1.910156 2.40625 -1.566406 2.40625 -1.296875 C 2.40625 -0.578125 3.003906 -0.21875 4.203125 -0.21875 C 4.265625 -0.21875 4.296875 -0.179688 4.296875 -0.109375 C 4.296875 -0.0351562 4.265625 0 4.203125 0 C 3.984375 0 3.664062 -0.0078125 3.25 -0.03125 C 2.78125 -0.0625 2.375 -0.078125 2.03125 -0.078125 C 1.71875 -0.078125 1.351562 -0.0625 0.9375 -0.03125 C 0.570312 -0.0078125 0.265625 0 0.015625 0 C -0.046875 0 -0.078125 -0.0351562 -0.078125 -0.109375 C -0.078125 -0.179688 -0.046875 -0.21875 0.015625 -0.21875 C 0.359375 -0.21875 0.648438 -0.28125 0.890625 -0.40625 C 1.128906 -0.539062 1.351562 -0.769531 1.5625 -1.09375 C 1.78125 -1.414062 2.019531 -1.882812 2.28125 -2.5 L 6.15625 -11.640625 C 6.175781 -11.671875 6.21875 -11.6875 6.28125 -11.6875 C 6.34375 -11.6875 6.378906 -11.671875 6.390625 -11.640625 L 10.71875 -2.515625 C 11.132812 -1.609375 11.488281 -1 11.78125 -0.6875 C 12.082031 -0.375 12.429688 -0.21875 12.828125 -0.21875 Z M 4.40625 -6.46875 L 7.53125 -6.46875 L 5.875 -9.953125 Z M 4.40625 -6.46875 "/></g></g></g><g fill="#ffffff" fill-opacity="1"><g transform="translate(321.914611, 74.014043)"><g><path d="M 5.5625 0.078125 C 5.207031 0.078125 4.796875 0.0546875 4.328125 0.015625 C 4.160156 0.00390625 3.941406 -0.00390625 3.671875 -0.015625 C 3.410156 -0.0234375 3.125 -0.03125 2.8125 -0.03125 L 1.5625 -0.015625 C 1.34375 -0.00390625 1.035156 0 0.640625 0 C 0.617188 0 0.609375 -0.0351562 0.609375 -0.109375 C 0.609375 -0.179688 0.617188 -0.21875 0.640625 -0.21875 C 1.109375 -0.21875 1.445312 -0.25 1.65625 -0.3125 C 1.875 -0.375 2.019531 -0.492188 2.09375 -0.671875 C 2.175781 -0.847656 2.21875 -1.117188 2.21875 -1.484375 L 2.21875 -9.984375 C 2.21875 -10.347656 2.179688 -10.613281 2.109375 -10.78125 C 2.035156 -10.957031 1.890625 -11.078125 1.671875 -11.140625 C 1.460938 -11.210938 1.125 -11.25 0.65625 -11.25 C 0.632812 -11.25 0.625 -11.285156 0.625 -11.359375 C 0.625 -11.429688 0.632812 -11.46875 0.65625 -11.46875 L 1.578125 -11.453125 C 2.085938 -11.429688 2.5 -11.421875 2.8125 -11.421875 C 3.269531 -11.421875 3.726562 -11.4375 4.1875 -11.46875 C 4.726562 -11.5 5.101562 -11.515625 5.3125 -11.515625 C 6.582031 -11.515625 7.707031 -11.269531 8.6875 -10.78125 C 9.664062 -10.289062 10.425781 -9.625 10.96875 -8.78125 C 11.507812 -7.9375 11.78125 -6.988281 11.78125 -5.9375 C 11.78125 -4.75 11.5 -3.695312 10.9375 -2.78125 C 10.382812 -1.863281 9.628906 -1.15625 8.671875 -0.65625 C 7.722656 -0.164062 6.6875 0.078125 5.5625 0.078125 Z M 5.375 -0.203125 C 6.351562 -0.203125 7.222656 -0.40625 7.984375 -0.8125 C 8.742188 -1.226562 9.332031 -1.835938 9.75 -2.640625 C 10.175781 -3.441406 10.390625 -4.40625 10.390625 -5.53125 C 10.390625 -6.59375 10.1875 -7.554688 9.78125 -8.421875 C 9.382812 -9.296875 8.8125 -9.984375 8.0625 -10.484375 C 7.3125 -10.984375 6.445312 -11.234375 5.46875 -11.234375 C 4.945312 -11.234375 4.539062 -11.203125 4.25 -11.140625 C 3.957031 -11.078125 3.742188 -10.953125 3.609375 -10.765625 C 3.484375 -10.585938 3.421875 -10.316406 3.421875 -9.953125 L 3.421875 -1.6875 C 3.421875 -1.320312 3.472656 -1.035156 3.578125 -0.828125 C 3.679688 -0.617188 3.875 -0.460938 4.15625 -0.359375 C 4.445312 -0.253906 4.851562 -0.203125 5.375 -0.203125 Z M 5.375 -0.203125 "/></g></g></g><g fill="#ffffff" fill-opacity="1"><g transform="translate(341.7293, 74.014043)"><g><path d="M 6.71875 0.21875 C 5.582031 0.21875 4.566406 -0.046875 3.671875 -0.578125 C 2.785156 -1.109375 2.101562 -1.828125 1.625 -2.734375 C 1.144531 -3.648438 0.90625 -4.648438 0.90625 -5.734375 C 0.90625 -6.992188 1.222656 -8.070312 1.859375 -8.96875 C 2.492188 -9.863281 3.304688 -10.535156 4.296875 -10.984375 C 5.296875 -11.441406 6.316406 -11.671875 7.359375 -11.671875 C 8.523438 -11.671875 9.546875 -11.398438 10.421875 -10.859375 C 11.304688 -10.316406 11.984375 -9.597656 12.453125 -8.703125 C 12.921875 -7.804688 13.15625 -6.859375 13.15625 -5.859375 C 13.15625 -4.742188 12.863281 -3.71875 12.28125 -2.78125 C 11.695312 -1.851562 10.910156 -1.117188 9.921875 -0.578125 C 8.941406 -0.046875 7.875 0.21875 6.71875 0.21875 Z M 7.359375 -0.171875 C 8.191406 -0.171875 8.941406 -0.367188 9.609375 -0.765625 C 10.273438 -1.171875 10.800781 -1.765625 11.1875 -2.546875 C 11.570312 -3.335938 11.765625 -4.269531 11.765625 -5.34375 C 11.765625 -6.488281 11.550781 -7.507812 11.125 -8.40625 C 10.695312 -9.300781 10.09375 -10 9.3125 -10.5 C 8.539062 -11 7.632812 -11.25 6.59375 -11.25 C 5.25 -11.25 4.195312 -10.8125 3.4375 -9.9375 C 2.675781 -9.070312 2.296875 -7.882812 2.296875 -6.375 C 2.296875 -5.21875 2.507812 -4.164062 2.9375 -3.21875 C 3.363281 -2.269531 3.960938 -1.523438 4.734375 -0.984375 C 5.503906 -0.441406 6.378906 -0.171875 7.359375 -0.171875 Z M 7.359375 -0.171875 "/></g></g></g><g fill="#ffffff" fill-opacity="1"><g transform="translate(362.921293, 74.014043)"><g><path d="M 2.65625 -9.328125 C 2.65625 -8.847656 2.769531 -8.429688 3 -8.078125 C 3.238281 -7.722656 3.519531 -7.425781 3.84375 -7.1875 C 4.175781 -6.945312 4.644531 -6.644531 5.25 -6.28125 C 5.882812 -5.894531 6.378906 -5.570312 6.734375 -5.3125 C 7.085938 -5.0625 7.390625 -4.738281 7.640625 -4.34375 C 7.890625 -3.945312 8.015625 -3.472656 8.015625 -2.921875 C 8.015625 -2.328125 7.867188 -1.789062 7.578125 -1.3125 C 7.285156 -0.84375 6.851562 -0.46875 6.28125 -0.1875 C 5.71875 0.0820312 5.035156 0.21875 4.234375 0.21875 C 3.296875 0.21875 2.4375 0.00390625 1.65625 -0.421875 C 1.59375 -0.460938 1.550781 -0.503906 1.53125 -0.546875 C 1.507812 -0.597656 1.492188 -0.671875 1.484375 -0.765625 L 1.25 -3.265625 C 1.238281 -3.316406 1.265625 -3.347656 1.328125 -3.359375 C 1.398438 -3.367188 1.441406 -3.351562 1.453125 -3.3125 C 1.648438 -2.425781 2.015625 -1.664062 2.546875 -1.03125 C 3.078125 -0.394531 3.78125 -0.078125 4.65625 -0.078125 C 5.269531 -0.078125 5.785156 -0.242188 6.203125 -0.578125 C 6.628906 -0.910156 6.84375 -1.445312 6.84375 -2.1875 C 6.84375 -2.738281 6.71875 -3.210938 6.46875 -3.609375 C 6.226562 -4.015625 5.929688 -4.347656 5.578125 -4.609375 C 5.234375 -4.878906 4.765625 -5.191406 4.171875 -5.546875 C 3.578125 -5.898438 3.113281 -6.203125 2.78125 -6.453125 C 2.445312 -6.710938 2.160156 -7.035156 1.921875 -7.421875 C 1.691406 -7.816406 1.578125 -8.28125 1.578125 -8.8125 C 1.578125 -9.425781 1.738281 -9.945312 2.0625 -10.375 C 2.382812 -10.8125 2.804688 -11.132812 3.328125 -11.34375 C 3.847656 -11.5625 4.40625 -11.671875 5 -11.671875 C 5.71875 -11.671875 6.429688 -11.523438 7.140625 -11.234375 C 7.328125 -11.171875 7.421875 -11.066406 7.421875 -10.921875 L 7.546875 -8.8125 C 7.546875 -8.757812 7.515625 -8.734375 7.453125 -8.734375 C 7.390625 -8.734375 7.351562 -8.757812 7.34375 -8.8125 C 7.25 -9.445312 6.984375 -10.035156 6.546875 -10.578125 C 6.117188 -11.128906 5.503906 -11.40625 4.703125 -11.40625 C 4.015625 -11.40625 3.5 -11.203125 3.15625 -10.796875 C 2.820312 -10.398438 2.65625 -9.910156 2.65625 -9.328125 Z M 2.65625 -9.328125 "/></g></g></g></svg>