<svg xmlns="http://www.w3.org/2000/svg" xmlns:xlink="http://www.w3.org/1999/xlink" width="800" zoomAndPan="magnify" viewBox="0 0 600 74.999997" height="100" preserveAspectRatio="xMidYMid meet" version="1.0"><defs><g/></defs><g fill="#ffffff" fill-opacity="1"><g transform="translate(38.834889, 35.25868)"><g><path d="M 18.796875 -20.6875 L 10.25 0 L 8.921875 0 L 0.375 -20.6875 L 1.5625 -20.6875 C 1.695312 -20.6875 1.804688 -20.648438 1.890625 -20.578125 C 1.984375 -20.503906 2.054688 -20.410156 2.109375 -20.296875 L 9.15625 -3.125 C 9.226562 -2.914062 9.300781 -2.6875 9.375 -2.4375 C 9.457031 -2.195312 9.535156 -1.953125 9.609375 -1.703125 C 9.671875 -1.953125 9.734375 -2.195312 9.796875 -2.4375 C 9.867188 -2.6875 9.945312 -2.914062 10.03125 -3.125 L 17.0625 -20.296875 C 17.101562 -20.398438 17.171875 -20.488281 17.265625 -20.5625 C 17.367188 -20.644531 17.488281 -20.6875 17.625 -20.6875 Z M 18.796875 -20.6875 "/></g></g></g><g fill="#ffffff" fill-opacity="1"><g transform="translate(62.516921, 35.25868)"><g><path d="M 4.5625 0 L 3.0625 0 L 3.0625 -20.6875 L 4.5625 -20.6875 Z M 4.5625 0 "/></g></g></g><g fill="#ffffff" fill-opacity="1"><g transform="translate(74.643455, 35.25868)"><g><path d="M 14.359375 -1.265625 L 14.359375 0 L 3.0625 0 L 3.0625 -20.6875 L 4.5625 -20.6875 L 4.5625 -1.265625 Z M 14.359375 -1.265625 "/></g></g></g><g fill="#ffffff" fill-opacity="1"><g transform="translate(93.951953, 35.25868)"><g><path d="M 14.359375 -1.265625 L 14.359375 0 L 3.0625 0 L 3.0625 -20.6875 L 4.5625 -20.6875 L 4.5625 -1.265625 Z M 14.359375 -1.265625 "/></g></g></g><g fill="#ffffff" fill-opacity="1"><g transform="translate(113.260451, 35.25868)"><g><path d="M 14.21875 -7.515625 L 10 -17.96875 C 9.851562 -18.3125 9.710938 -18.722656 9.578125 -19.203125 C 9.515625 -18.972656 9.445312 -18.75 9.375 -18.53125 C 9.3125 -18.320312 9.242188 -18.128906 9.171875 -17.953125 L 4.953125 -7.515625 Z M 18.796875 0 L 17.640625 0 C 17.503906 0 17.390625 -0.0351562 17.296875 -0.109375 C 17.210938 -0.179688 17.144531 -0.273438 17.09375 -0.390625 L 14.671875 -6.40625 L 4.5 -6.40625 L 2.078125 -0.390625 C 2.035156 -0.285156 1.960938 -0.191406 1.859375 -0.109375 C 1.765625 -0.0351562 1.648438 0 1.515625 0 L 0.375 0 L 8.84375 -20.6875 L 10.328125 -20.6875 Z M 18.796875 0 "/></g></g></g><g fill="#ffffff" fill-opacity="1"><g transform="translate(136.942483, 35.25868)"><g><path d="M 8.140625 -10.46875 C 9.054688 -10.46875 9.878906 -10.578125 10.609375 -10.796875 C 11.335938 -11.015625 11.953125 -11.328125 12.453125 -11.734375 C 12.953125 -12.148438 13.332031 -12.644531 13.59375 -13.21875 C 13.863281 -13.789062 14 -14.441406 14 -15.171875 C 14 -16.640625 13.515625 -17.726562 12.546875 -18.4375 C 11.585938 -19.15625 10.1875 -19.515625 8.34375 -19.515625 L 4.5625 -19.515625 L 4.5625 -10.46875 Z M 17.328125 0 L 16.046875 0 C 15.878906 0 15.738281 -0.0234375 15.625 -0.078125 C 15.507812 -0.128906 15.40625 -0.226562 15.3125 -0.375 L 8.671875 -8.78125 C 8.597656 -8.882812 8.519531 -8.972656 8.4375 -9.046875 C 8.351562 -9.128906 8.257812 -9.191406 8.15625 -9.234375 C 8.050781 -9.273438 7.925781 -9.304688 7.78125 -9.328125 C 7.644531 -9.347656 7.472656 -9.359375 7.265625 -9.359375 L 4.5625 -9.359375 L 4.5625 0 L 3.0625 0 L 3.0625 -20.6875 L 8.34375 -20.6875 C 10.726562 -20.6875 12.507812 -20.226562 13.6875 -19.3125 C 14.875 -18.394531 15.46875 -17.039062 15.46875 -15.25 C 15.46875 -14.457031 15.332031 -13.734375 15.0625 -13.078125 C 14.789062 -12.429688 14.398438 -11.859375 13.890625 -11.359375 C 13.378906 -10.867188 12.757812 -10.46875 12.03125 -10.15625 C 11.300781 -9.851562 10.484375 -9.644531 9.578125 -9.53125 C 9.816406 -9.382812 10.023438 -9.191406 10.203125 -8.953125 Z M 17.328125 0 "/></g></g></g><g fill="#ffffff" fill-opacity="1"><g transform="translate(159.205678, 35.25868)"><g><path d="M 8.140625 -10.46875 C 9.054688 -10.46875 9.878906 -10.578125 10.609375 -10.796875 C 11.335938 -11.015625 11.953125 -11.328125 12.453125 -11.734375 C 12.953125 -12.148438 13.332031 -12.644531 13.59375 -13.21875 C 13.863281 -13.789062 14 -14.441406 14 -15.171875 C 14 -16.640625 13.515625 -17.726562 12.546875 -18.4375 C 11.585938 -19.15625 10.1875 -19.515625 8.34375 -19.515625 L 4.5625 -19.515625 L 4.5625 -10.46875 Z M 17.328125 0 L 16.046875 0 C 15.878906 0 15.738281 -0.0234375 15.625 -0.078125 C 15.507812 -0.128906 15.40625 -0.226562 15.3125 -0.375 L 8.671875 -8.78125 C 8.597656 -8.882812 8.519531 -8.972656 8.4375 -9.046875 C 8.351562 -9.128906 8.257812 -9.191406 8.15625 -9.234375 C 8.050781 -9.273438 7.925781 -9.304688 7.78125 -9.328125 C 7.644531 -9.347656 7.472656 -9.359375 7.265625 -9.359375 L 4.5625 -9.359375 L 4.5625 0 L 3.0625 0 L 3.0625 -20.6875 L 8.34375 -20.6875 C 10.726562 -20.6875 12.507812 -20.226562 13.6875 -19.3125 C 14.875 -18.394531 15.46875 -17.039062 15.46875 -15.25 C 15.46875 -14.457031 15.332031 -13.734375 15.0625 -13.078125 C 14.789062 -12.429688 14.398438 -11.859375 13.890625 -11.359375 C 13.378906 -10.867188 12.757812 -10.46875 12.03125 -10.15625 C 11.300781 -9.851562 10.484375 -9.644531 9.578125 -9.53125 C 9.816406 -9.382812 10.023438 -9.191406 10.203125 -8.953125 Z M 17.328125 0 "/></g></g></g><g fill="#ffffff" fill-opacity="1"><g transform="translate(181.468873, 35.25868)"><g><path d="M 21.4375 -10.359375 C 21.4375 -8.753906 21.195312 -7.300781 20.71875 -6 C 20.238281 -4.695312 19.566406 -3.582031 18.703125 -2.65625 C 17.835938 -1.738281 16.796875 -1.03125 15.578125 -0.53125 C 14.367188 -0.03125 13.03125 0.21875 11.5625 0.21875 C 10.101562 0.21875 8.769531 -0.03125 7.5625 -0.53125 C 6.351562 -1.03125 5.3125 -1.738281 4.4375 -2.65625 C 3.570312 -3.582031 2.898438 -4.695312 2.421875 -6 C 1.953125 -7.300781 1.71875 -8.753906 1.71875 -10.359375 C 1.71875 -11.941406 1.953125 -13.382812 2.421875 -14.6875 C 2.898438 -15.988281 3.570312 -17.097656 4.4375 -18.015625 C 5.3125 -18.941406 6.351562 -19.65625 7.5625 -20.15625 C 8.769531 -20.664062 10.101562 -20.921875 11.5625 -20.921875 C 13.03125 -20.921875 14.367188 -20.671875 15.578125 -20.171875 C 16.796875 -19.671875 17.835938 -18.957031 18.703125 -18.03125 C 19.566406 -17.101562 20.238281 -15.988281 20.71875 -14.6875 C 21.195312 -13.382812 21.4375 -11.941406 21.4375 -10.359375 Z M 19.890625 -10.359375 C 19.890625 -11.796875 19.6875 -13.085938 19.28125 -14.234375 C 18.882812 -15.390625 18.320312 -16.367188 17.59375 -17.171875 C 16.863281 -17.972656 15.984375 -18.582031 14.953125 -19 C 13.929688 -19.425781 12.800781 -19.640625 11.5625 -19.640625 C 10.332031 -19.640625 9.207031 -19.425781 8.1875 -19 C 7.164062 -18.582031 6.285156 -17.972656 5.546875 -17.171875 C 4.816406 -16.367188 4.25 -15.390625 3.84375 -14.234375 C 3.4375 -13.085938 3.234375 -11.796875 3.234375 -10.359375 C 3.234375 -8.898438 3.4375 -7.597656 3.84375 -6.453125 C 4.25 -5.304688 4.816406 -4.332031 5.546875 -3.53125 C 6.285156 -2.738281 7.164062 -2.128906 8.1875 -1.703125 C 9.207031 -1.285156 10.332031 -1.078125 11.5625 -1.078125 C 12.800781 -1.078125 13.929688 -1.285156 14.953125 -1.703125 C 15.984375 -2.128906 16.863281 -2.738281 17.59375 -3.53125 C 18.320312 -4.332031 18.882812 -5.304688 19.28125 -6.453125 C 19.6875 -7.597656 19.890625 -8.898438 19.890625 -10.359375 Z M 19.890625 -10.359375 "/></g></g></g><g fill="#ffffff" fill-opacity="1"><g transform="translate(209.129511, 35.25868)"><g><path d="M 15.484375 -1.25 L 15.453125 0 L 3.0625 0 L 3.0625 -20.6875 L 15.453125 -20.6875 L 15.453125 -19.453125 L 4.5625 -19.453125 L 4.5625 -11.078125 L 13.625 -11.078125 L 13.625 -9.875 L 4.5625 -9.875 L 4.5625 -1.25 Z M 15.484375 -1.25 "/></g></g></g><g fill="#ffffff" fill-opacity="1"><g transform="translate(230.602828, 35.25868)"><g><path d="M 14.359375 -1.265625 L 14.359375 0 L 3.0625 0 L 3.0625 -20.6875 L 4.5625 -20.6875 L 4.5625 -1.265625 Z M 14.359375 -1.265625 "/></g></g></g><g fill="#ffffff" fill-opacity="1"><g transform="translate(249.911335, 35.25868)"><g><path d="M 2.109375 3.484375 C 2.054688 3.441406 2.019531 3.398438 2 3.359375 C 1.988281 3.328125 1.984375 3.285156 1.984375 3.234375 C 1.984375 3.171875 2.023438 3.09375 2.109375 3 C 2.191406 2.90625 2.304688 2.757812 2.453125 2.5625 C 2.609375 2.375 2.765625 2.148438 2.921875 1.890625 C 3.085938 1.628906 3.234375 1.335938 3.359375 1.015625 C 3.492188 0.703125 3.582031 0.359375 3.625 -0.015625 C 3.476562 0.0351562 3.328125 0.0625 3.171875 0.0625 C 2.804688 0.0625 2.507812 -0.0546875 2.28125 -0.296875 C 2.050781 -0.546875 1.9375 -0.863281 1.9375 -1.25 C 1.9375 -1.582031 2.050781 -1.867188 2.28125 -2.109375 C 2.519531 -2.359375 2.832031 -2.484375 3.21875 -2.484375 C 3.632812 -2.484375 3.957031 -2.335938 4.1875 -2.046875 C 4.414062 -1.765625 4.53125 -1.390625 4.53125 -0.921875 C 4.53125 -0.523438 4.476562 -0.117188 4.375 0.296875 C 4.28125 0.710938 4.132812 1.117188 3.9375 1.515625 C 3.738281 1.921875 3.503906 2.304688 3.234375 2.671875 C 2.960938 3.046875 2.660156 3.390625 2.328125 3.703125 Z M 2.109375 3.484375 "/></g></g></g><g fill="#ffffff" fill-opacity="1"><g transform="translate(260.823812, 35.25868)"><g/></g></g><g fill="#ffffff" fill-opacity="1"><g transform="translate(273.272144, 35.25868)"><g><path d="M 14.359375 -1.265625 L 14.359375 0 L 3.0625 0 L 3.0625 -20.6875 L 4.5625 -20.6875 L 4.5625 -1.265625 Z M 14.359375 -1.265625 "/></g></g></g><g fill="#ffffff" fill-opacity="1"><g transform="translate(292.580652, 35.25868)"><g><path d="M 15.484375 -1.25 L 15.453125 0 L 3.0625 0 L 3.0625 -20.6875 L 15.453125 -20.6875 L 15.453125 -19.453125 L 4.5625 -19.453125 L 4.5625 -11.078125 L 13.625 -11.078125 L 13.625 -9.875 L 4.5625 -9.875 L 4.5625 -1.25 Z M 15.484375 -1.25 "/></g></g></g><g fill="#ffffff" fill-opacity="1"><g transform="translate(314.053969, 35.25868)"><g><path d="M 17.984375 -3.484375 C 18.085938 -3.484375 18.171875 -3.445312 18.234375 -3.375 L 18.828125 -2.75 C 18.390625 -2.289062 17.921875 -1.878906 17.421875 -1.515625 C 16.921875 -1.148438 16.367188 -0.835938 15.765625 -0.578125 C 15.171875 -0.316406 14.515625 -0.117188 13.796875 0.015625 C 13.078125 0.160156 12.289062 0.234375 11.4375 0.234375 C 10 0.234375 8.679688 -0.015625 7.484375 -0.515625 C 6.296875 -1.015625 5.269531 -1.722656 4.40625 -2.640625 C 3.550781 -3.566406 2.890625 -4.679688 2.421875 -5.984375 C 1.953125 -7.296875 1.71875 -8.753906 1.71875 -10.359375 C 1.71875 -11.921875 1.957031 -13.347656 2.4375 -14.640625 C 2.925781 -15.941406 3.609375 -17.054688 4.484375 -17.984375 C 5.367188 -18.921875 6.421875 -19.644531 7.640625 -20.15625 C 8.867188 -20.664062 10.226562 -20.921875 11.71875 -20.921875 C 13.125 -20.921875 14.375 -20.703125 15.46875 -20.265625 C 16.5625 -19.828125 17.554688 -19.207031 18.453125 -18.40625 L 18 -17.75 C 17.925781 -17.632812 17.804688 -17.578125 17.640625 -17.578125 C 17.523438 -17.578125 17.332031 -17.679688 17.0625 -17.890625 C 16.800781 -18.109375 16.4375 -18.347656 15.96875 -18.609375 C 15.5 -18.867188 14.914062 -19.101562 14.21875 -19.3125 C 13.519531 -19.53125 12.6875 -19.640625 11.71875 -19.640625 C 10.46875 -19.640625 9.320312 -19.425781 8.28125 -19 C 7.25 -18.570312 6.359375 -17.957031 5.609375 -17.15625 C 4.859375 -16.351562 4.273438 -15.375 3.859375 -14.21875 C 3.441406 -13.070312 3.234375 -11.785156 3.234375 -10.359375 C 3.234375 -8.890625 3.441406 -7.578125 3.859375 -6.421875 C 4.285156 -5.273438 4.867188 -4.304688 5.609375 -3.515625 C 6.359375 -2.722656 7.234375 -2.113281 8.234375 -1.6875 C 9.242188 -1.257812 10.335938 -1.046875 11.515625 -1.046875 C 12.253906 -1.046875 12.910156 -1.09375 13.484375 -1.1875 C 14.066406 -1.289062 14.601562 -1.441406 15.09375 -1.640625 C 15.582031 -1.835938 16.035156 -2.078125 16.453125 -2.359375 C 16.867188 -2.640625 17.285156 -2.96875 17.703125 -3.34375 C 17.742188 -3.382812 17.789062 -3.414062 17.84375 -3.4375 C 17.894531 -3.46875 17.941406 -3.484375 17.984375 -3.484375 Z M 17.984375 -3.484375 "/></g></g></g><g fill="#ffffff" fill-opacity="1"><g transform="translate(338.33571, 35.25868)"><g><path d="M 14.21875 -7.515625 L 10 -17.96875 C 9.851562 -18.3125 9.710938 -18.722656 9.578125 -19.203125 C 9.515625 -18.972656 9.445312 -18.75 9.375 -18.53125 C 9.3125 -18.320312 9.242188 -18.128906 9.171875 -17.953125 L 4.953125 -7.515625 Z M 18.796875 0 L 17.640625 0 C 17.503906 0 17.390625 -0.0351562 17.296875 -0.109375 C 17.210938 -0.179688 17.144531 -0.273438 17.09375 -0.390625 L 14.671875 -6.40625 L 4.5 -6.40625 L 2.078125 -0.390625 C 2.035156 -0.285156 1.960938 -0.191406 1.859375 -0.109375 C 1.765625 -0.0351562 1.648438 0 1.515625 0 L 0.375 0 L 8.84375 -20.6875 L 10.328125 -20.6875 Z M 18.796875 0 "/></g></g></g><g fill="#ffffff" fill-opacity="1"><g transform="translate(362.017737, 35.25868)"><g><path d="M 8.140625 -10.46875 C 9.054688 -10.46875 9.878906 -10.578125 10.609375 -10.796875 C 11.335938 -11.015625 11.953125 -11.328125 12.453125 -11.734375 C 12.953125 -12.148438 13.332031 -12.644531 13.59375 -13.21875 C 13.863281 -13.789062 14 -14.441406 14 -15.171875 C 14 -16.640625 13.515625 -17.726562 12.546875 -18.4375 C 11.585938 -19.15625 10.1875 -19.515625 8.34375 -19.515625 L 4.5625 -19.515625 L 4.5625 -10.46875 Z M 17.328125 0 L 16.046875 0 C 15.878906 0 15.738281 -0.0234375 15.625 -0.078125 C 15.507812 -0.128906 15.40625 -0.226562 15.3125 -0.375 L 8.671875 -8.78125 C 8.597656 -8.882812 8.519531 -8.972656 8.4375 -9.046875 C 8.351562 -9.128906 8.257812 -9.191406 8.15625 -9.234375 C 8.050781 -9.273438 7.925781 -9.304688 7.78125 -9.328125 C 7.644531 -9.347656 7.472656 -9.359375 7.265625 -9.359375 L 4.5625 -9.359375 L 4.5625 0 L 3.0625 0 L 3.0625 -20.6875 L 8.34375 -20.6875 C 10.726562 -20.6875 12.507812 -20.226562 13.6875 -19.3125 C 14.875 -18.394531 15.46875 -17.039062 15.46875 -15.25 C 15.46875 -14.457031 15.332031 -13.734375 15.0625 -13.078125 C 14.789062 -12.429688 14.398438 -11.859375 13.890625 -11.359375 C 13.378906 -10.867188 12.757812 -10.46875 12.03125 -10.15625 C 11.300781 -9.851562 10.484375 -9.644531 9.578125 -9.53125 C 9.816406 -9.382812 10.023438 -9.191406 10.203125 -8.953125 Z M 17.328125 0 "/></g></g></g><g fill="#ffffff" fill-opacity="1"><g transform="translate(384.280913, 35.25868)"><g><path d="M 21.4375 -10.359375 C 21.4375 -8.753906 21.195312 -7.300781 20.71875 -6 C 20.238281 -4.695312 19.566406 -3.582031 18.703125 -2.65625 C 17.835938 -1.738281 16.796875 -1.03125 15.578125 -0.53125 C 14.367188 -0.03125 13.03125 0.21875 11.5625 0.21875 C 10.101562 0.21875 8.769531 -0.03125 7.5625 -0.53125 C 6.351562 -1.03125 5.3125 -1.738281 4.4375 -2.65625 C 3.570312 -3.582031 2.898438 -4.695312 2.421875 -6 C 1.953125 -7.300781 1.71875 -8.753906 1.71875 -10.359375 C 1.71875 -11.941406 1.953125 -13.382812 2.421875 -14.6875 C 2.898438 -15.988281 3.570312 -17.097656 4.4375 -18.015625 C 5.3125 -18.941406 6.351562 -19.65625 7.5625 -20.15625 C 8.769531 -20.664062 10.101562 -20.921875 11.5625 -20.921875 C 13.03125 -20.921875 14.367188 -20.671875 15.578125 -20.171875 C 16.796875 -19.671875 17.835938 -18.957031 18.703125 -18.03125 C 19.566406 -17.101562 20.238281 -15.988281 20.71875 -14.6875 C 21.195312 -13.382812 21.4375 -11.941406 21.4375 -10.359375 Z M 19.890625 -10.359375 C 19.890625 -11.796875 19.6875 -13.085938 19.28125 -14.234375 C 18.882812 -15.390625 18.320312 -16.367188 17.59375 -17.171875 C 16.863281 -17.972656 15.984375 -18.582031 14.953125 -19 C 13.929688 -19.425781 12.800781 -19.640625 11.5625 -19.640625 C 10.332031 -19.640625 9.207031 -19.425781 8.1875 -19 C 7.164062 -18.582031 6.285156 -17.972656 5.546875 -17.171875 C 4.816406 -16.367188 4.25 -15.390625 3.84375 -14.234375 C 3.4375 -13.085938 3.234375 -11.796875 3.234375 -10.359375 C 3.234375 -8.898438 3.4375 -7.597656 3.84375 -6.453125 C 4.25 -5.304688 4.816406 -4.332031 5.546875 -3.53125 C 6.285156 -2.738281 7.164062 -2.128906 8.1875 -1.703125 C 9.207031 -1.285156 10.332031 -1.078125 11.5625 -1.078125 C 12.800781 -1.078125 13.929688 -1.285156 14.953125 -1.703125 C 15.984375 -2.128906 16.863281 -2.738281 17.59375 -3.53125 C 18.320312 -4.332031 18.882812 -5.304688 19.28125 -6.453125 C 19.6875 -7.597656 19.890625 -8.898438 19.890625 -10.359375 Z M 19.890625 -10.359375 "/></g></g></g><g fill="#ffffff" fill-opacity="1"><g transform="translate(411.941531, 35.25868)"><g><path d="M 13.109375 -18.171875 C 13.015625 -18.015625 12.882812 -17.9375 12.71875 -17.9375 C 12.59375 -17.9375 12.429688 -18.023438 12.234375 -18.203125 C 12.035156 -18.378906 11.765625 -18.578125 11.421875 -18.796875 C 11.078125 -19.015625 10.648438 -19.21875 10.140625 -19.40625 C 9.628906 -19.59375 9 -19.6875 8.25 -19.6875 C 7.5 -19.6875 6.835938 -19.578125 6.265625 -19.359375 C 5.691406 -19.148438 5.210938 -18.859375 4.828125 -18.484375 C 4.441406 -18.117188 4.148438 -17.691406 3.953125 -17.203125 C 3.753906 -16.710938 3.65625 -16.195312 3.65625 -15.65625 C 3.65625 -14.957031 3.800781 -14.378906 4.09375 -13.921875 C 4.394531 -13.460938 4.789062 -13.070312 5.28125 -12.75 C 5.769531 -12.425781 6.320312 -12.15625 6.9375 -11.9375 C 7.5625 -11.71875 8.195312 -11.5 8.84375 -11.28125 C 9.5 -11.070312 10.132812 -10.835938 10.75 -10.578125 C 11.375 -10.316406 11.925781 -9.992188 12.40625 -9.609375 C 12.894531 -9.222656 13.289062 -8.742188 13.59375 -8.171875 C 13.894531 -7.597656 14.046875 -6.890625 14.046875 -6.046875 C 14.046875 -5.171875 13.894531 -4.347656 13.59375 -3.578125 C 13.289062 -2.816406 12.859375 -2.15625 12.296875 -1.59375 C 11.734375 -1.03125 11.039062 -0.582031 10.21875 -0.25 C 9.40625 0.0703125 8.472656 0.234375 7.421875 0.234375 C 6.054688 0.234375 4.878906 -0.00390625 3.890625 -0.484375 C 2.898438 -0.972656 2.035156 -1.632812 1.296875 -2.46875 L 1.71875 -3.109375 C 1.832031 -3.253906 1.96875 -3.328125 2.125 -3.328125 C 2.207031 -3.328125 2.316406 -3.269531 2.453125 -3.15625 C 2.585938 -3.039062 2.753906 -2.894531 2.953125 -2.71875 C 3.148438 -2.550781 3.382812 -2.367188 3.65625 -2.171875 C 3.925781 -1.972656 4.238281 -1.785156 4.59375 -1.609375 C 4.957031 -1.441406 5.375 -1.300781 5.84375 -1.1875 C 6.3125 -1.070312 6.84375 -1.015625 7.4375 -1.015625 C 8.257812 -1.015625 8.992188 -1.132812 9.640625 -1.375 C 10.285156 -1.625 10.828125 -1.960938 11.265625 -2.390625 C 11.710938 -2.828125 12.050781 -3.335938 12.28125 -3.921875 C 12.519531 -4.515625 12.640625 -5.148438 12.640625 -5.828125 C 12.640625 -6.554688 12.488281 -7.15625 12.1875 -7.625 C 11.894531 -8.101562 11.503906 -8.5 11.015625 -8.8125 C 10.523438 -9.125 9.96875 -9.390625 9.34375 -9.609375 C 8.726562 -9.828125 8.09375 -10.035156 7.4375 -10.234375 C 6.789062 -10.441406 6.15625 -10.671875 5.53125 -10.921875 C 4.914062 -11.179688 4.363281 -11.503906 3.875 -11.890625 C 3.382812 -12.285156 2.988281 -12.78125 2.6875 -13.375 C 2.394531 -13.96875 2.25 -14.707031 2.25 -15.59375 C 2.25 -16.28125 2.378906 -16.945312 2.640625 -17.59375 C 2.910156 -18.238281 3.296875 -18.804688 3.796875 -19.296875 C 4.304688 -19.785156 4.929688 -20.175781 5.671875 -20.46875 C 6.421875 -20.769531 7.273438 -20.921875 8.234375 -20.921875 C 9.304688 -20.921875 10.269531 -20.75 11.125 -20.40625 C 11.976562 -20.070312 12.753906 -19.554688 13.453125 -18.859375 Z M 13.109375 -18.171875 "/></g></g></g><g fill="#ffffff" fill-opacity="1"><g transform="translate(432.098417, 35.25868)"><g/></g></g><g fill="#ffffff" fill-opacity="1"><g transform="translate(444.546769, 35.25868)"><g><path d="M 9.453125 -8.53125 L 9.453125 0 L 7.953125 0 L 7.953125 -8.53125 L 0.296875 -20.6875 L 1.609375 -20.6875 C 1.742188 -20.6875 1.851562 -20.65625 1.9375 -20.59375 C 2.03125 -20.53125 2.109375 -20.441406 2.171875 -20.328125 L 8.09375 -10.828125 C 8.21875 -10.597656 8.332031 -10.378906 8.4375 -10.171875 C 8.539062 -9.960938 8.632812 -9.753906 8.71875 -9.546875 C 8.789062 -9.753906 8.875 -9.960938 8.96875 -10.171875 C 9.070312 -10.378906 9.1875 -10.597656 9.3125 -10.828125 L 15.234375 -20.328125 C 15.285156 -20.429688 15.359375 -20.515625 15.453125 -20.578125 C 15.546875 -20.648438 15.660156 -20.6875 15.796875 -20.6875 L 17.109375 -20.6875 Z M 9.453125 -8.53125 "/></g></g></g><g fill="#ffffff" fill-opacity="1"><g transform="translate(466.458896, 35.25868)"><g/></g></g><g fill="#ffffff" fill-opacity="1"><g transform="translate(478.907247, 35.25868)"><g><path d="M 14.21875 -7.515625 L 10 -17.96875 C 9.851562 -18.3125 9.710938 -18.722656 9.578125 -19.203125 C 9.515625 -18.972656 9.445312 -18.75 9.375 -18.53125 C 9.3125 -18.320312 9.242188 -18.128906 9.171875 -17.953125 L 4.953125 -7.515625 Z M 18.796875 0 L 17.640625 0 C 17.503906 0 17.390625 -0.0351562 17.296875 -0.109375 C 17.210938 -0.179688 17.144531 -0.273438 17.09375 -0.390625 L 14.671875 -6.40625 L 4.5 -6.40625 L 2.078125 -0.390625 C 2.035156 -0.285156 1.960938 -0.191406 1.859375 -0.109375 C 1.765625 -0.0351562 1.648438 0 1.515625 0 L 0.375 0 L 8.84375 -20.6875 L 10.328125 -20.6875 Z M 18.796875 0 "/></g></g></g><g fill="#ffffff" fill-opacity="1"><g transform="translate(502.589294, 35.25868)"><g><path d="M 13.109375 -18.171875 C 13.015625 -18.015625 12.882812 -17.9375 12.71875 -17.9375 C 12.59375 -17.9375 12.429688 -18.023438 12.234375 -18.203125 C 12.035156 -18.378906 11.765625 -18.578125 11.421875 -18.796875 C 11.078125 -19.015625 10.648438 -19.21875 10.140625 -19.40625 C 9.628906 -19.59375 9 -19.6875 8.25 -19.6875 C 7.5 -19.6875 6.835938 -19.578125 6.265625 -19.359375 C 5.691406 -19.148438 5.210938 -18.859375 4.828125 -18.484375 C 4.441406 -18.117188 4.148438 -17.691406 3.953125 -17.203125 C 3.753906 -16.710938 3.65625 -16.195312 3.65625 -15.65625 C 3.65625 -14.957031 3.800781 -14.378906 4.09375 -13.921875 C 4.394531 -13.460938 4.789062 -13.070312 5.28125 -12.75 C 5.769531 -12.425781 6.320312 -12.15625 6.9375 -11.9375 C 7.5625 -11.71875 8.195312 -11.5 8.84375 -11.28125 C 9.5 -11.070312 10.132812 -10.835938 10.75 -10.578125 C 11.375 -10.316406 11.925781 -9.992188 12.40625 -9.609375 C 12.894531 -9.222656 13.289062 -8.742188 13.59375 -8.171875 C 13.894531 -7.597656 14.046875 -6.890625 14.046875 -6.046875 C 14.046875 -5.171875 13.894531 -4.347656 13.59375 -3.578125 C 13.289062 -2.816406 12.859375 -2.15625 12.296875 -1.59375 C 11.734375 -1.03125 11.039062 -0.582031 10.21875 -0.25 C 9.40625 0.0703125 8.472656 0.234375 7.421875 0.234375 C 6.054688 0.234375 4.878906 -0.00390625 3.890625 -0.484375 C 2.898438 -0.972656 2.035156 -1.632812 1.296875 -2.46875 L 1.71875 -3.109375 C 1.832031 -3.253906 1.96875 -3.328125 2.125 -3.328125 C 2.207031 -3.328125 2.316406 -3.269531 2.453125 -3.15625 C 2.585938 -3.039062 2.753906 -2.894531 2.953125 -2.71875 C 3.148438 -2.550781 3.382812 -2.367188 3.65625 -2.171875 C 3.925781 -1.972656 4.238281 -1.785156 4.59375 -1.609375 C 4.957031 -1.441406 5.375 -1.300781 5.84375 -1.1875 C 6.3125 -1.070312 6.84375 -1.015625 7.4375 -1.015625 C 8.257812 -1.015625 8.992188 -1.132812 9.640625 -1.375 C 10.285156 -1.625 10.828125 -1.960938 11.265625 -2.390625 C 11.710938 -2.828125 12.050781 -3.335938 12.28125 -3.921875 C 12.519531 -4.515625 12.640625 -5.148438 12.640625 -5.828125 C 12.640625 -6.554688 12.488281 -7.15625 12.1875 -7.625 C 11.894531 -8.101562 11.503906 -8.5 11.015625 -8.8125 C 10.523438 -9.125 9.96875 -9.390625 9.34375 -9.609375 C 8.726562 -9.828125 8.09375 -10.035156 7.4375 -10.234375 C 6.789062 -10.441406 6.15625 -10.671875 5.53125 -10.921875 C 4.914062 -11.179688 4.363281 -11.503906 3.875 -11.890625 C 3.382812 -12.285156 2.988281 -12.78125 2.6875 -13.375 C 2.394531 -13.96875 2.25 -14.707031 2.25 -15.59375 C 2.25 -16.28125 2.378906 -16.945312 2.640625 -17.59375 C 2.910156 -18.238281 3.296875 -18.804688 3.796875 -19.296875 C 4.304688 -19.785156 4.929688 -20.175781 5.671875 -20.46875 C 6.421875 -20.769531 7.273438 -20.921875 8.234375 -20.921875 C 9.304688 -20.921875 10.269531 -20.75 11.125 -20.40625 C 11.976562 -20.070312 12.753906 -19.554688 13.453125 -18.859375 Z M 13.109375 -18.171875 "/></g></g></g><g fill="#ffffff" fill-opacity="1"><g transform="translate(522.746181, 35.25868)"><g><path d="M 16.515625 -19.421875 L 9.25 -19.421875 L 9.25 0 L 7.734375 0 L 7.734375 -19.421875 L 0.421875 -19.421875 L 0.421875 -20.6875 L 16.515625 -20.6875 Z M 16.515625 -19.421875 "/></g></g></g><g fill="#ffffff" fill-opacity="1"><g transform="translate(544.190257, 35.25868)"><g><path d="M 15.484375 -1.25 L 15.453125 0 L 3.0625 0 L 3.0625 -20.6875 L 15.453125 -20.6875 L 15.453125 -19.453125 L 4.5625 -19.453125 L 4.5625 -11.078125 L 13.625 -11.078125 L 13.625 -9.875 L 4.5625 -9.875 L 4.5625 -1.25 Z M 15.484375 -1.25 "/></g></g></g><g fill="#ffffff" fill-opacity="1"><g transform="translate(238.265705, 67.434671)"><g><path d="M 7.125 -3.765625 L 5.015625 -9.015625 C 4.941406 -9.179688 4.875 -9.382812 4.8125 -9.625 C 4.78125 -9.507812 4.742188 -9.398438 4.703125 -9.296875 C 4.671875 -9.191406 4.632812 -9.097656 4.59375 -9.015625 L 2.484375 -3.765625 Z M 9.421875 0 L 8.84375 0 C 8.78125 0 8.722656 -0.015625 8.671875 -0.046875 C 8.628906 -0.0859375 8.597656 -0.140625 8.578125 -0.203125 L 7.359375 -3.21875 L 2.265625 -3.21875 L 1.046875 -0.203125 C 1.023438 -0.148438 0.988281 -0.101562 0.9375 -0.0625 C 0.882812 -0.0195312 0.828125 0 0.765625 0 L 0.1875 0 L 4.4375 -10.375 L 5.171875 -10.375 Z M 9.421875 0 "/></g></g></g><g fill="#ffffff" fill-opacity="1"><g transform="translate(253.877004, 67.434671)"><g><path d="M 4.890625 -0.59375 C 5.796875 -0.59375 6.484375 -0.789062 6.953125 -1.1875 C 7.421875 -1.582031 7.65625 -2.140625 7.65625 -2.859375 C 7.65625 -3.179688 7.59375 -3.472656 7.46875 -3.734375 C 7.34375 -3.992188 7.160156 -4.21875 6.921875 -4.40625 C 6.691406 -4.59375 6.40625 -4.734375 6.0625 -4.828125 C 5.71875 -4.921875 5.332031 -4.96875 4.90625 -4.96875 L 2.28125 -4.96875 L 2.28125 -0.59375 Z M 2.28125 -9.78125 L 2.28125 -5.53125 L 4.53125 -5.53125 C 5.007812 -5.53125 5.414062 -5.585938 5.75 -5.703125 C 6.09375 -5.828125 6.375 -5.988281 6.59375 -6.1875 C 6.8125 -6.394531 6.972656 -6.625 7.078125 -6.875 C 7.179688 -7.125 7.234375 -7.382812 7.234375 -7.65625 C 7.234375 -8.351562 7.007812 -8.878906 6.5625 -9.234375 C 6.125 -9.597656 5.441406 -9.78125 4.515625 -9.78125 Z M 4.515625 -10.375 C 5.109375 -10.375 5.625 -10.316406 6.0625 -10.203125 C 6.5 -10.085938 6.859375 -9.914062 7.140625 -9.6875 C 7.421875 -9.457031 7.628906 -9.175781 7.765625 -8.84375 C 7.898438 -8.519531 7.96875 -8.148438 7.96875 -7.734375 C 7.96875 -7.460938 7.921875 -7.195312 7.828125 -6.9375 C 7.734375 -6.6875 7.597656 -6.453125 7.421875 -6.234375 C 7.242188 -6.023438 7.023438 -5.835938 6.765625 -5.671875 C 6.503906 -5.515625 6.203125 -5.394531 5.859375 -5.3125 C 6.679688 -5.195312 7.3125 -4.925781 7.75 -4.5 C 8.1875 -4.082031 8.40625 -3.53125 8.40625 -2.84375 C 8.40625 -2.394531 8.328125 -1.992188 8.171875 -1.640625 C 8.015625 -1.296875 7.785156 -1 7.484375 -0.75 C 7.179688 -0.507812 6.8125 -0.320312 6.375 -0.1875 C 5.945312 -0.0625 5.457031 0 4.90625 0 L 1.53125 0 L 1.53125 -10.375 Z M 4.515625 -10.375 "/></g></g></g><g fill="#ffffff" fill-opacity="1"><g transform="translate(269.143682, 67.434671)"><g><path d="M 10.75 -5.1875 C 10.75 -4.382812 10.628906 -3.65625 10.390625 -3 C 10.148438 -2.351562 9.8125 -1.796875 9.375 -1.328125 C 8.945312 -0.867188 8.425781 -0.515625 7.8125 -0.265625 C 7.207031 -0.015625 6.535156 0.109375 5.796875 0.109375 C 5.066406 0.109375 4.398438 -0.015625 3.796875 -0.265625 C 3.191406 -0.515625 2.671875 -0.867188 2.234375 -1.328125 C 1.796875 -1.796875 1.457031 -2.351562 1.21875 -3 C 0.976562 -3.65625 0.859375 -4.382812 0.859375 -5.1875 C 0.859375 -5.988281 0.976562 -6.710938 1.21875 -7.359375 C 1.457031 -8.015625 1.796875 -8.570312 2.234375 -9.03125 C 2.671875 -9.5 3.191406 -9.859375 3.796875 -10.109375 C 4.398438 -10.367188 5.066406 -10.5 5.796875 -10.5 C 6.535156 -10.5 7.207031 -10.367188 7.8125 -10.109375 C 8.425781 -9.859375 8.945312 -9.5 9.375 -9.03125 C 9.8125 -8.570312 10.148438 -8.015625 10.390625 -7.359375 C 10.628906 -6.710938 10.75 -5.988281 10.75 -5.1875 Z M 9.984375 -5.1875 C 9.984375 -5.914062 9.878906 -6.566406 9.671875 -7.140625 C 9.472656 -7.722656 9.191406 -8.210938 8.828125 -8.609375 C 8.460938 -9.015625 8.019531 -9.320312 7.5 -9.53125 C 6.988281 -9.75 6.421875 -9.859375 5.796875 -9.859375 C 5.179688 -9.859375 4.617188 -9.75 4.109375 -9.53125 C 3.597656 -9.320312 3.15625 -9.015625 2.78125 -8.609375 C 2.414062 -8.210938 2.128906 -7.722656 1.921875 -7.140625 C 1.722656 -6.566406 1.625 -5.914062 1.625 -5.1875 C 1.625 -4.457031 1.722656 -3.804688 1.921875 -3.234375 C 2.128906 -2.660156 2.414062 -2.171875 2.78125 -1.765625 C 3.15625 -1.367188 3.597656 -1.066406 4.109375 -0.859375 C 4.617188 -0.648438 5.179688 -0.546875 5.796875 -0.546875 C 6.421875 -0.546875 6.988281 -0.648438 7.5 -0.859375 C 8.019531 -1.066406 8.460938 -1.367188 8.828125 -1.765625 C 9.191406 -2.171875 9.472656 -2.660156 9.671875 -3.234375 C 9.878906 -3.804688 9.984375 -4.457031 9.984375 -5.1875 Z M 9.984375 -5.1875 "/></g></g></g><g fill="#ffffff" fill-opacity="1"><g transform="translate(286.749412, 67.434671)"><g><path d="M 9.828125 -4.703125 L 9.828125 -1.015625 C 9.304688 -0.648438 8.75 -0.367188 8.15625 -0.171875 C 7.570312 0.0234375 6.914062 0.125 6.1875 0.125 C 5.363281 0.125 4.625 0 3.96875 -0.25 C 3.3125 -0.507812 2.75 -0.867188 2.28125 -1.328125 C 1.820312 -1.796875 1.46875 -2.351562 1.21875 -3 C 0.976562 -3.65625 0.859375 -4.382812 0.859375 -5.1875 C 0.859375 -5.988281 0.976562 -6.71875 1.21875 -7.375 C 1.457031 -8.03125 1.800781 -8.585938 2.25 -9.046875 C 2.707031 -9.503906 3.253906 -9.859375 3.890625 -10.109375 C 4.535156 -10.367188 5.257812 -10.5 6.0625 -10.5 C 6.457031 -10.5 6.820312 -10.472656 7.15625 -10.421875 C 7.5 -10.367188 7.8125 -10.285156 8.09375 -10.171875 C 8.382812 -10.066406 8.65625 -9.9375 8.90625 -9.78125 C 9.15625 -9.632812 9.394531 -9.460938 9.625 -9.265625 L 9.421875 -8.9375 C 9.347656 -8.820312 9.242188 -8.796875 9.109375 -8.859375 C 9.035156 -8.890625 8.929688 -8.957031 8.796875 -9.0625 C 8.660156 -9.164062 8.472656 -9.273438 8.234375 -9.390625 C 7.992188 -9.515625 7.695312 -9.625 7.34375 -9.71875 C 6.988281 -9.8125 6.554688 -9.859375 6.046875 -9.859375 C 5.367188 -9.859375 4.753906 -9.75 4.203125 -9.53125 C 3.660156 -9.3125 3.195312 -9 2.8125 -8.59375 C 2.4375 -8.195312 2.144531 -7.707031 1.9375 -7.125 C 1.726562 -6.550781 1.625 -5.90625 1.625 -5.1875 C 1.625 -4.457031 1.726562 -3.800781 1.9375 -3.21875 C 2.144531 -2.644531 2.441406 -2.15625 2.828125 -1.75 C 3.222656 -1.34375 3.703125 -1.03125 4.265625 -0.8125 C 4.828125 -0.59375 5.460938 -0.484375 6.171875 -0.484375 C 6.472656 -0.484375 6.753906 -0.503906 7.015625 -0.546875 C 7.285156 -0.585938 7.535156 -0.644531 7.765625 -0.71875 C 8.003906 -0.789062 8.234375 -0.878906 8.453125 -0.984375 C 8.679688 -1.085938 8.910156 -1.203125 9.140625 -1.328125 L 9.140625 -4.125 L 7.15625 -4.125 C 7.101562 -4.125 7.054688 -4.140625 7.015625 -4.171875 C 6.984375 -4.210938 6.96875 -4.253906 6.96875 -4.296875 L 6.96875 -4.703125 Z M 9.828125 -4.703125 "/></g></g></g><g fill="#ffffff" fill-opacity="1"><g transform="translate(303.526578, 67.434671)"><g><path d="M 7.125 -3.765625 L 5.015625 -9.015625 C 4.941406 -9.179688 4.875 -9.382812 4.8125 -9.625 C 4.78125 -9.507812 4.742188 -9.398438 4.703125 -9.296875 C 4.671875 -9.191406 4.632812 -9.097656 4.59375 -9.015625 L 2.484375 -3.765625 Z M 9.421875 0 L 8.84375 0 C 8.78125 0 8.722656 -0.015625 8.671875 -0.046875 C 8.628906 -0.0859375 8.597656 -0.140625 8.578125 -0.203125 L 7.359375 -3.21875 L 2.265625 -3.21875 L 1.046875 -0.203125 C 1.023438 -0.148438 0.988281 -0.101562 0.9375 -0.0625 C 0.882812 -0.0195312 0.828125 0 0.765625 0 L 0.1875 0 L 4.4375 -10.375 L 5.171875 -10.375 Z M 9.421875 0 "/></g></g></g><g fill="#ffffff" fill-opacity="1"><g transform="translate(319.137875, 67.434671)"><g><path d="M 10.28125 -5.1875 C 10.28125 -4.382812 10.160156 -3.660156 9.921875 -3.015625 C 9.679688 -2.378906 9.34375 -1.835938 8.90625 -1.390625 C 8.46875 -0.941406 7.941406 -0.597656 7.328125 -0.359375 C 6.722656 -0.117188 6.054688 0 5.328125 0 L 1.53125 0 L 1.53125 -10.375 L 5.328125 -10.375 C 6.054688 -10.375 6.722656 -10.253906 7.328125 -10.015625 C 7.941406 -9.773438 8.46875 -9.429688 8.90625 -8.984375 C 9.34375 -8.535156 9.679688 -7.988281 9.921875 -7.34375 C 10.160156 -6.707031 10.28125 -5.988281 10.28125 -5.1875 Z M 9.5 -5.1875 C 9.5 -5.914062 9.398438 -6.5625 9.203125 -7.125 C 9.003906 -7.695312 8.71875 -8.175781 8.34375 -8.5625 C 7.976562 -8.957031 7.535156 -9.253906 7.015625 -9.453125 C 6.503906 -9.660156 5.941406 -9.765625 5.328125 -9.765625 L 2.28125 -9.765625 L 2.28125 -0.609375 L 5.328125 -0.609375 C 5.941406 -0.609375 6.503906 -0.707031 7.015625 -0.90625 C 7.535156 -1.113281 7.976562 -1.414062 8.34375 -1.8125 C 8.71875 -2.207031 9.003906 -2.6875 9.203125 -3.25 C 9.398438 -3.8125 9.5 -4.457031 9.5 -5.1875 Z M 9.5 -5.1875 "/></g></g></g><g fill="#ffffff" fill-opacity="1"><g transform="translate(336.281661, 67.434671)"><g><path d="M 10.75 -5.1875 C 10.75 -4.382812 10.628906 -3.65625 10.390625 -3 C 10.148438 -2.351562 9.8125 -1.796875 9.375 -1.328125 C 8.945312 -0.867188 8.425781 -0.515625 7.8125 -0.265625 C 7.207031 -0.015625 6.535156 0.109375 5.796875 0.109375 C 5.066406 0.109375 4.398438 -0.015625 3.796875 -0.265625 C 3.191406 -0.515625 2.671875 -0.867188 2.234375 -1.328125 C 1.796875 -1.796875 1.457031 -2.351562 1.21875 -3 C 0.976562 -3.65625 0.859375 -4.382812 0.859375 -5.1875 C 0.859375 -5.988281 0.976562 -6.710938 1.21875 -7.359375 C 1.457031 -8.015625 1.796875 -8.570312 2.234375 -9.03125 C 2.671875 -9.5 3.191406 -9.859375 3.796875 -10.109375 C 4.398438 -10.367188 5.066406 -10.5 5.796875 -10.5 C 6.535156 -10.5 7.207031 -10.367188 7.8125 -10.109375 C 8.425781 -9.859375 8.945312 -9.5 9.375 -9.03125 C 9.8125 -8.570312 10.148438 -8.015625 10.390625 -7.359375 C 10.628906 -6.710938 10.75 -5.988281 10.75 -5.1875 Z M 9.984375 -5.1875 C 9.984375 -5.914062 9.878906 -6.566406 9.671875 -7.140625 C 9.472656 -7.722656 9.191406 -8.210938 8.828125 -8.609375 C 8.460938 -9.015625 8.019531 -9.320312 7.5 -9.53125 C 6.988281 -9.75 6.421875 -9.859375 5.796875 -9.859375 C 5.179688 -9.859375 4.617188 -9.75 4.109375 -9.53125 C 3.597656 -9.320312 3.15625 -9.015625 2.78125 -8.609375 C 2.414062 -8.210938 2.128906 -7.722656 1.921875 -7.140625 C 1.722656 -6.566406 1.625 -5.914062 1.625 -5.1875 C 1.625 -4.457031 1.722656 -3.804688 1.921875 -3.234375 C 2.128906 -2.660156 2.414062 -2.171875 2.78125 -1.765625 C 3.15625 -1.367188 3.597656 -1.066406 4.109375 -0.859375 C 4.617188 -0.648438 5.179688 -0.546875 5.796875 -0.546875 C 6.421875 -0.546875 6.988281 -0.648438 7.5 -0.859375 C 8.019531 -1.066406 8.460938 -1.367188 8.828125 -1.765625 C 9.191406 -2.171875 9.472656 -2.660156 9.671875 -3.234375 C 9.878906 -3.804688 9.984375 -4.457031 9.984375 -5.1875 Z M 9.984375 -5.1875 "/></g></g></g><g fill="#ffffff" fill-opacity="1"><g transform="translate(353.887395, 67.434671)"><g><path d="M 6.578125 -9.125 C 6.523438 -9.039062 6.457031 -9 6.375 -9 C 6.3125 -9 6.226562 -9.039062 6.125 -9.125 C 6.03125 -9.21875 5.894531 -9.316406 5.71875 -9.421875 C 5.550781 -9.535156 5.335938 -9.640625 5.078125 -9.734375 C 4.828125 -9.828125 4.515625 -9.875 4.140625 -9.875 C 3.765625 -9.875 3.429688 -9.816406 3.140625 -9.703125 C 2.859375 -9.597656 2.617188 -9.453125 2.421875 -9.265625 C 2.234375 -9.085938 2.085938 -8.875 1.984375 -8.625 C 1.878906 -8.382812 1.828125 -8.128906 1.828125 -7.859375 C 1.828125 -7.503906 1.898438 -7.210938 2.046875 -6.984375 C 2.203125 -6.753906 2.398438 -6.554688 2.640625 -6.390625 C 2.890625 -6.234375 3.171875 -6.097656 3.484375 -5.984375 C 3.796875 -5.878906 4.113281 -5.769531 4.4375 -5.65625 C 4.769531 -5.550781 5.085938 -5.429688 5.390625 -5.296875 C 5.703125 -5.171875 5.976562 -5.007812 6.21875 -4.8125 C 6.46875 -4.625 6.664062 -4.382812 6.8125 -4.09375 C 6.96875 -3.8125 7.046875 -3.457031 7.046875 -3.03125 C 7.046875 -2.59375 6.96875 -2.179688 6.8125 -1.796875 C 6.664062 -1.410156 6.453125 -1.078125 6.171875 -0.796875 C 5.890625 -0.515625 5.539062 -0.289062 5.125 -0.125 C 4.71875 0.0390625 4.25 0.125 3.71875 0.125 C 3.03125 0.125 2.4375 0.00390625 1.9375 -0.234375 C 1.445312 -0.484375 1.019531 -0.816406 0.65625 -1.234375 L 0.859375 -1.5625 C 0.921875 -1.632812 0.988281 -1.671875 1.0625 -1.671875 C 1.101562 -1.671875 1.15625 -1.640625 1.21875 -1.578125 C 1.289062 -1.523438 1.375 -1.453125 1.46875 -1.359375 C 1.570312 -1.273438 1.691406 -1.179688 1.828125 -1.078125 C 1.972656 -0.984375 2.132812 -0.894531 2.3125 -0.8125 C 2.488281 -0.726562 2.691406 -0.65625 2.921875 -0.59375 C 3.160156 -0.53125 3.429688 -0.5 3.734375 -0.5 C 4.140625 -0.5 4.503906 -0.5625 4.828125 -0.6875 C 5.148438 -0.8125 5.421875 -0.984375 5.640625 -1.203125 C 5.867188 -1.421875 6.039062 -1.675781 6.15625 -1.96875 C 6.28125 -2.257812 6.34375 -2.578125 6.34375 -2.921875 C 6.34375 -3.285156 6.265625 -3.585938 6.109375 -3.828125 C 5.960938 -4.066406 5.765625 -4.265625 5.515625 -4.421875 C 5.273438 -4.578125 5 -4.707031 4.6875 -4.8125 C 4.375 -4.925781 4.054688 -5.035156 3.734375 -5.140625 C 3.410156 -5.242188 3.09375 -5.359375 2.78125 -5.484375 C 2.46875 -5.609375 2.1875 -5.769531 1.9375 -5.96875 C 1.695312 -6.164062 1.5 -6.410156 1.34375 -6.703125 C 1.195312 -7.003906 1.125 -7.375 1.125 -7.8125 C 1.125 -8.164062 1.191406 -8.503906 1.328125 -8.828125 C 1.460938 -9.148438 1.65625 -9.429688 1.90625 -9.671875 C 2.15625 -9.921875 2.46875 -10.117188 2.84375 -10.265625 C 3.21875 -10.421875 3.644531 -10.5 4.125 -10.5 C 4.664062 -10.5 5.148438 -10.410156 5.578125 -10.234375 C 6.003906 -10.066406 6.394531 -9.804688 6.75 -9.453125 Z M 6.578125 -9.125 "/></g></g></g></svg>