<svg xmlns="http://www.w3.org/2000/svg" xmlns:xlink="http://www.w3.org/1999/xlink" width="300" zoomAndPan="magnify" viewBox="0 0 224.87999 37.5" height="50" preserveAspectRatio="xMidYMid meet" version="1.0"><defs><g/></defs><g fill="#ffffff" fill-opacity="1"><g transform="translate(10.293061, 15.919642)"><g><path d="M 4.234375 -1.136719 L 2.117188 -7.417969 L 2.03125 -7.6875 C 1.933594 -7.957031 2.214844 -8.042969 2.214844 -8.042969 L 0.464844 -8.042969 C 0.464844 -8.042969 0.882812 -8.007812 1.027344 -7.566406 L 3.574219 0 L 4.371094 0 L 4.492188 -0.355469 L 6.90625 -7.527344 C 7.050781 -7.980469 7.492188 -8.042969 7.492188 -8.042969 L 5.839844 -8.042969 C 5.839844 -8.042969 6.488281 -7.882812 6.378906 -7.527344 C 6.195312 -6.964844 4.234375 -1.136719 4.234375 -1.136719 Z M 4.234375 -1.136719 "/></g></g></g><g fill="#ffffff" fill-opacity="1"><g transform="translate(20.282204, 15.919642)"><g><path d="M 2.609375 -8.042969 L 0.464844 -8.042969 C 0.464844 -8.042969 1.027344 -7.882812 1.039062 -7.542969 L 1.039062 -0.5 C 1.027344 -0.160156 0.464844 0 0.464844 0 L 2.609375 0 C 2.609375 0 2.042969 -0.171875 2.03125 -0.5 L 2.03125 -7.554688 C 2.042969 -7.882812 2.609375 -8.042969 2.609375 -8.042969 Z M 2.609375 -8.042969 "/></g></g></g><g fill="#ffffff" fill-opacity="1"><g transform="translate(25.387018, 15.919642)"><g><path d="M 4.75 -0.5 L 2.03125 -0.5 L 2.03125 -7.578125 C 2.082031 -7.894531 2.609375 -8.042969 2.609375 -8.042969 L 0.464844 -8.042969 C 0.464844 -8.042969 1.027344 -7.882812 1.039062 -7.554688 L 1.039062 -0.5 C 1.027344 -0.160156 0.464844 0 0.464844 0 L 5.203125 0 L 5.203125 -1.066406 C 5.203125 -1.066406 5.054688 -0.585938 4.75 -0.5 Z M 4.75 -0.5 "/></g></g></g><g fill="#ffffff" fill-opacity="1"><g transform="translate(33.087013, 15.919642)"><g><path d="M 4.75 -0.5 L 2.03125 -0.5 L 2.03125 -7.578125 C 2.082031 -7.894531 2.609375 -8.042969 2.609375 -8.042969 L 0.464844 -8.042969 C 0.464844 -8.042969 1.027344 -7.882812 1.039062 -7.554688 L 1.039062 -0.5 C 1.027344 -0.160156 0.464844 0 0.464844 0 L 5.203125 0 L 5.203125 -1.066406 C 5.203125 -1.066406 5.054688 -0.585938 4.75 -0.5 Z M 4.75 -0.5 "/></g></g></g><g fill="#ffffff" fill-opacity="1"><g transform="translate(40.787009, 15.919642)"><g><path d="M 6.550781 -0.488281 L 4.003906 -8.042969 L 3.207031 -8.042969 L 0.6875 -0.515625 C 0.527344 -0.0625 0.0976562 0 0.0976562 0 L 1.738281 0 C 1.738281 0 1.101562 -0.171875 1.199219 -0.515625 L 1.789062 -2.277344 L 4.910156 -2.277344 L 5.460938 -0.625 L 5.558594 -0.355469 C 5.644531 -0.0859375 5.363281 0 5.363281 0 L 7.125 0 C 7.125 0 6.695312 -0.0507812 6.550781 -0.488281 Z M 1.957031 -2.765625 L 3.355469 -6.90625 L 4.738281 -2.765625 Z M 1.957031 -2.765625 "/></g></g></g><g fill="#ffffff" fill-opacity="1"><g transform="translate(50.029425, 15.919642)"><g><path d="M 5.617188 -0.90625 L 3.757812 -3.980469 C 4.578125 -4.273438 5.167969 -5.066406 5.167969 -5.9375 C 5.167969 -7.050781 4.210938 -8.042969 3.046875 -8.042969 L 0.464844 -8.042969 C 0.464844 -8.042969 1.027344 -7.882812 1.039062 -7.542969 L 1.039062 -0.5 C 1.027344 -0.160156 0.464844 0 0.464844 0 L 2.609375 0 C 2.609375 0 2.09375 -0.132812 2.03125 -0.453125 L 2.03125 -3.832031 L 2.730469 -3.832031 C 2.777344 -3.832031 2.839844 -3.769531 2.875 -3.683594 L 4.8125 -0.585938 C 5.25 0.0859375 5.851562 0.0234375 6.609375 -0.0117188 C 6.609375 -0.0117188 6.253906 -0.0117188 5.617188 -0.90625 Z M 2.03125 -4.164062 L 2.03125 -7.589844 C 2.042969 -7.675781 2.117188 -7.726562 2.203125 -7.726562 L 2.679688 -7.726562 C 3.671875 -7.726562 4.234375 -6.792969 4.234375 -5.9375 C 4.234375 -5.105469 3.722656 -4.164062 2.679688 -4.164062 Z M 2.03125 -4.164062 "/></g></g></g><g fill="#ffffff" fill-opacity="1"><g transform="translate(58.757702, 15.919642)"><g><path d="M 5.617188 -0.90625 L 3.757812 -3.980469 C 4.578125 -4.273438 5.167969 -5.066406 5.167969 -5.9375 C 5.167969 -7.050781 4.210938 -8.042969 3.046875 -8.042969 L 0.464844 -8.042969 C 0.464844 -8.042969 1.027344 -7.882812 1.039062 -7.542969 L 1.039062 -0.5 C 1.027344 -0.160156 0.464844 0 0.464844 0 L 2.609375 0 C 2.609375 0 2.09375 -0.132812 2.03125 -0.453125 L 2.03125 -3.832031 L 2.730469 -3.832031 C 2.777344 -3.832031 2.839844 -3.769531 2.875 -3.683594 L 4.8125 -0.585938 C 5.25 0.0859375 5.851562 0.0234375 6.609375 -0.0117188 C 6.609375 -0.0117188 6.253906 -0.0117188 5.617188 -0.90625 Z M 2.03125 -4.164062 L 2.03125 -7.589844 C 2.042969 -7.675781 2.117188 -7.726562 2.203125 -7.726562 L 2.679688 -7.726562 C 3.671875 -7.726562 4.234375 -6.792969 4.234375 -5.9375 C 4.234375 -5.105469 3.722656 -4.164062 2.679688 -4.164062 Z M 2.03125 -4.164062 "/></g></g></g><g fill="#ffffff" fill-opacity="1"><g transform="translate(67.485979, 15.919642)"><g><path d="M 3.964844 -8.09375 C 1.898438 -8.09375 0.234375 -6.269531 0.234375 -4.027344 C 0.234375 -1.773438 1.898438 0.0351562 3.964844 0.0351562 C 6.035156 0.0351562 7.710938 -1.773438 7.710938 -4.027344 C 7.710938 -6.269531 6.035156 -8.09375 3.964844 -8.09375 Z M 3.964844 -0.441406 C 2.191406 -0.441406 1.210938 -2.167969 1.210938 -3.867188 C 1.210938 -5.570312 2.058594 -7.613281 3.964844 -7.613281 C 5.742188 -7.613281 6.734375 -5.742188 6.734375 -4.027344 C 6.734375 -2.324219 5.839844 -0.441406 3.964844 -0.441406 Z M 3.964844 -0.441406 "/></g></g></g><g fill="#ffffff" fill-opacity="1"><g transform="translate(77.462878, 15.919642)"><g><path d="M 4.75 -0.5 L 2.03125 -0.5 L 2.03125 -3.769531 L 3.894531 -3.769531 C 4.136719 -3.769531 4.246094 -3.378906 4.246094 -3.378906 L 4.246094 -4.664062 C 4.246094 -4.664062 4.136719 -4.261719 3.894531 -4.261719 L 2.03125 -4.261719 L 2.03125 -7.554688 L 4.429688 -7.554688 L 4.429688 -7.542969 C 4.785156 -7.542969 4.945312 -6.964844 4.945312 -6.964844 L 4.945312 -8.042969 L 0.464844 -8.042969 C 0.464844 -8.042969 1.027344 -7.882812 1.039062 -7.554688 L 1.039062 -0.5 C 1.027344 -0.160156 0.464844 0 0.464844 0 L 5.203125 0 L 5.203125 -1.066406 C 5.203125 -1.066406 5.054688 -0.585938 4.75 -0.5 Z M 4.75 -0.5 "/></g></g></g><g fill="#ffffff" fill-opacity="1"><g transform="translate(85.162876, 15.919642)"><g><path d="M 4.75 -0.5 L 2.03125 -0.5 L 2.03125 -7.578125 C 2.082031 -7.894531 2.609375 -8.042969 2.609375 -8.042969 L 0.464844 -8.042969 C 0.464844 -8.042969 1.027344 -7.882812 1.039062 -7.554688 L 1.039062 -0.5 C 1.027344 -0.160156 0.464844 0 0.464844 0 L 5.203125 0 L 5.203125 -1.066406 C 5.203125 -1.066406 5.054688 -0.585938 4.75 -0.5 Z M 4.75 -0.5 "/></g></g></g><g fill="#ffffff" fill-opacity="1"><g transform="translate(92.862873, 15.919642)"><g><path d="M 1.605469 -0.636719 C 1.492188 -0.855469 1.25 -0.992188 1.003906 -0.992188 C 0.917969 -0.992188 0.820312 -0.96875 0.734375 -0.917969 C 0.441406 -0.757812 0.355469 -0.28125 0.601562 -0.0507812 C 0.734375 0.0742188 0.90625 0.0976562 1.066406 0.132812 C 1.089844 0.132812 1.101562 0.148438 1.113281 0.160156 C 1.136719 0.171875 1.136719 0.207031 1.136719 0.21875 C 1.113281 0.550781 1.027344 0.871094 0.894531 1.175781 C 0.84375 1.285156 0.796875 1.382812 0.734375 1.480469 C 0.6875 1.554688 0.5625 1.75 0.476562 1.773438 C 1.296875 1.605469 1.589844 0.734375 1.664062 0 C 1.6875 -0.207031 1.703125 -0.441406 1.605469 -0.636719 Z M 0.476562 1.773438 C 0.464844 1.773438 0.464844 1.773438 0.464844 1.773438 Z M 0.476562 1.773438 "/></g></g></g><g fill="#ffffff" fill-opacity="1"><g transform="translate(97.037339, 15.919642)"><g/></g></g><g fill="#ffffff" fill-opacity="1"><g transform="translate(102.815433, 15.919642)"><g><path d="M 4.75 -0.5 L 2.03125 -0.5 L 2.03125 -7.578125 C 2.082031 -7.894531 2.609375 -8.042969 2.609375 -8.042969 L 0.464844 -8.042969 C 0.464844 -8.042969 1.027344 -7.882812 1.039062 -7.554688 L 1.039062 -0.5 C 1.027344 -0.160156 0.464844 0 0.464844 0 L 5.203125 0 L 5.203125 -1.066406 C 5.203125 -1.066406 5.054688 -0.585938 4.75 -0.5 Z M 4.75 -0.5 "/></g></g></g><g fill="#ffffff" fill-opacity="1"><g transform="translate(110.51543, 15.919642)"><g><path d="M 4.75 -0.5 L 2.03125 -0.5 L 2.03125 -3.769531 L 3.894531 -3.769531 C 4.136719 -3.769531 4.246094 -3.378906 4.246094 -3.378906 L 4.246094 -4.664062 C 4.246094 -4.664062 4.136719 -4.261719 3.894531 -4.261719 L 2.03125 -4.261719 L 2.03125 -7.554688 L 4.429688 -7.554688 L 4.429688 -7.542969 C 4.785156 -7.542969 4.945312 -6.964844 4.945312 -6.964844 L 4.945312 -8.042969 L 0.464844 -8.042969 C 0.464844 -8.042969 1.027344 -7.882812 1.039062 -7.554688 L 1.039062 -0.5 C 1.027344 -0.160156 0.464844 0 0.464844 0 L 5.203125 0 L 5.203125 -1.066406 C 5.203125 -1.066406 5.054688 -0.585938 4.75 -0.5 Z M 4.75 -0.5 "/></g></g></g><g fill="#ffffff" fill-opacity="1"><g transform="translate(118.215428, 15.919642)"><g><path d="M 3.953125 -0.453125 C 3.5625 -0.453125 3.171875 -0.539062 2.828125 -0.722656 C 1.773438 -1.273438 1.210938 -2.570312 1.210938 -3.867188 C 1.210938 -5.363281 1.847656 -7.101562 3.292969 -7.527344 C 3.316406 -7.527344 3.328125 -7.542969 3.355469 -7.542969 C 3.539062 -7.589844 3.757812 -7.613281 3.964844 -7.613281 C 4.8125 -7.613281 5.484375 -7.1875 5.960938 -6.550781 C 5.960938 -6.539062 5.972656 -6.539062 5.972656 -6.539062 L 5.972656 -6.523438 C 6.171875 -6.242188 6.269531 -6.011719 6.269531 -6.011719 L 6.269531 -7.921875 C 6.15625 -7.664062 5.863281 -7.542969 5.679688 -7.640625 L 5.667969 -7.652344 C 5.167969 -7.933594 4.589844 -8.09375 3.964844 -8.09375 C 3.757812 -8.09375 3.539062 -8.066406 3.34375 -8.03125 L 3.34375 -8.042969 C 3.257812 -8.03125 3.183594 -8.007812 3.097656 -7.980469 C 1.457031 -7.554688 0.234375 -5.9375 0.234375 -4.027344 C 0.234375 -1.972656 1.640625 -0.269531 3.464844 0 C 3.625 0.0234375 3.796875 0.0351562 3.953125 0.0351562 C 5.238281 0.0351562 6.355469 -0.757812 6.964844 -1.945312 L 6.757812 -2.007812 C 6.21875 -1.027344 5.019531 -0.453125 3.953125 -0.453125 Z M 3.953125 -0.453125 "/></g></g></g><g fill="#ffffff" fill-opacity="1"><g transform="translate(127.445603, 15.919642)"><g><path d="M 6.550781 -0.488281 L 4.003906 -8.042969 L 3.207031 -8.042969 L 0.6875 -0.515625 C 0.527344 -0.0625 0.0976562 0 0.0976562 0 L 1.738281 0 C 1.738281 0 1.101562 -0.171875 1.199219 -0.515625 L 1.789062 -2.277344 L 4.910156 -2.277344 L 5.460938 -0.625 L 5.558594 -0.355469 C 5.644531 -0.0859375 5.363281 0 5.363281 0 L 7.125 0 C 7.125 0 6.695312 -0.0507812 6.550781 -0.488281 Z M 1.957031 -2.765625 L 3.355469 -6.90625 L 4.738281 -2.765625 Z M 1.957031 -2.765625 "/></g></g></g><g fill="#ffffff" fill-opacity="1"><g transform="translate(136.688016, 15.919642)"><g><path d="M 5.617188 -0.90625 L 3.757812 -3.980469 C 4.578125 -4.273438 5.167969 -5.066406 5.167969 -5.9375 C 5.167969 -7.050781 4.210938 -8.042969 3.046875 -8.042969 L 0.464844 -8.042969 C 0.464844 -8.042969 1.027344 -7.882812 1.039062 -7.542969 L 1.039062 -0.5 C 1.027344 -0.160156 0.464844 0 0.464844 0 L 2.609375 0 C 2.609375 0 2.09375 -0.132812 2.03125 -0.453125 L 2.03125 -3.832031 L 2.730469 -3.832031 C 2.777344 -3.832031 2.839844 -3.769531 2.875 -3.683594 L 4.8125 -0.585938 C 5.25 0.0859375 5.851562 0.0234375 6.609375 -0.0117188 C 6.609375 -0.0117188 6.253906 -0.0117188 5.617188 -0.90625 Z M 2.03125 -4.164062 L 2.03125 -7.589844 C 2.042969 -7.675781 2.117188 -7.726562 2.203125 -7.726562 L 2.679688 -7.726562 C 3.671875 -7.726562 4.234375 -6.792969 4.234375 -5.9375 C 4.234375 -5.105469 3.722656 -4.164062 2.679688 -4.164062 Z M 2.03125 -4.164062 "/></g></g></g><g fill="#ffffff" fill-opacity="1"><g transform="translate(145.416292, 15.919642)"><g><path d="M 3.964844 -8.09375 C 1.898438 -8.09375 0.234375 -6.269531 0.234375 -4.027344 C 0.234375 -1.773438 1.898438 0.0351562 3.964844 0.0351562 C 6.035156 0.0351562 7.710938 -1.773438 7.710938 -4.027344 C 7.710938 -6.269531 6.035156 -8.09375 3.964844 -8.09375 Z M 3.964844 -0.441406 C 2.191406 -0.441406 1.210938 -2.167969 1.210938 -3.867188 C 1.210938 -5.570312 2.058594 -7.613281 3.964844 -7.613281 C 5.742188 -7.613281 6.734375 -5.742188 6.734375 -4.027344 C 6.734375 -2.324219 5.839844 -0.441406 3.964844 -0.441406 Z M 3.964844 -0.441406 "/></g></g></g><g fill="#ffffff" fill-opacity="1"><g transform="translate(155.393192, 15.919642)"><g><path d="M 2.875 -4.785156 C 2.558594 -4.882812 1.921875 -5.128906 1.605469 -5.449219 C 1.335938 -5.742188 1.261719 -6.109375 1.261719 -6.414062 C 1.261719 -6.988281 1.617188 -7.726562 2.609375 -7.726562 C 3.121094 -7.726562 3.527344 -7.566406 3.820312 -7.246094 C 3.929688 -7.136719 4.027344 -6.953125 4.125 -6.734375 L 4.113281 -7.171875 L 4.125 -8.042969 L 4.101562 -8.007812 C 4.050781 -7.933594 3.820312 -7.921875 3.648438 -7.992188 C 3.402344 -8.066406 3.085938 -8.128906 2.71875 -8.128906 C 2.105469 -8.128906 1.554688 -7.96875 1.152344 -7.589844 C 0.808594 -7.273438 0.464844 -6.722656 0.464844 -6.15625 C 0.464844 -5.433594 0.660156 -4.910156 1.015625 -4.542969 C 1.492188 -4.039062 2.300781 -3.757812 2.644531 -3.648438 C 3.539062 -3.328125 4.359375 -2.902344 4.359375 -1.761719 C 4.359375 -0.757812 3.5 -0.355469 2.839844 -0.355469 C 2.226562 -0.355469 1.617188 -0.648438 1.285156 -1.175781 C 1.066406 -1.503906 0.96875 -1.773438 0.929688 -2.007812 L 0.929688 -0.613281 L 0.917969 -0.28125 C 0.992188 -0.402344 1.136719 -0.453125 1.347656 -0.332031 L 1.382812 -0.304688 L 1.394531 -0.304688 C 1.789062 -0.0625 2.265625 0.0859375 2.890625 0.0859375 C 4.359375 0.0859375 5.152344 -1.027344 5.152344 -2.351562 C 5.152344 -3.085938 4.957031 -3.511719 4.664062 -3.867188 C 4.261719 -4.359375 3.648438 -4.542969 2.875 -4.785156 Z M 2.875 -4.785156 "/></g></g></g><g fill="#ffffff" fill-opacity="1"><g transform="translate(163.044222, 15.919642)"><g/></g></g><g fill="#ffffff" fill-opacity="1"><g transform="translate(168.822308, 15.919642)"><g><path d="M 5.777344 -8.042969 L 4.136719 -8.042969 C 4.136719 -8.042969 4.738281 -7.859375 4.492188 -7.394531 L 3.625 -5.753906 L 3.367188 -5.265625 L 3.132812 -4.847656 L 2.679688 -5.753906 L 1.847656 -7.40625 L 1.714844 -7.675781 C 1.578125 -7.945312 1.847656 -8.03125 1.847656 -8.03125 L 0.0976562 -8.03125 C 0.0976562 -8.03125 0.527344 -7.992188 0.734375 -7.554688 L 2.449219 -4.125 L 2.449219 -0.539062 C 2.425781 -0.171875 1.859375 0 1.859375 0 L 4.015625 0 C 4.015625 0 3.453125 -0.171875 3.429688 -0.527344 L 3.429688 -4.210938 L 5.09375 -7.542969 C 5.324219 -7.957031 5.777344 -8.042969 5.777344 -8.042969 Z M 5.777344 -8.042969 "/></g></g></g><g fill="#ffffff" fill-opacity="1"><g transform="translate(176.73041, 15.919642)"><g/></g></g><g fill="#ffffff" fill-opacity="1"><g transform="translate(182.508496, 15.919642)"><g><path d="M 6.550781 -0.488281 L 4.003906 -8.042969 L 3.207031 -8.042969 L 0.6875 -0.515625 C 0.527344 -0.0625 0.0976562 0 0.0976562 0 L 1.738281 0 C 1.738281 0 1.101562 -0.171875 1.199219 -0.515625 L 1.789062 -2.277344 L 4.910156 -2.277344 L 5.460938 -0.625 L 5.558594 -0.355469 C 5.644531 -0.0859375 5.363281 0 5.363281 0 L 7.125 0 C 7.125 0 6.695312 -0.0507812 6.550781 -0.488281 Z M 1.957031 -2.765625 L 3.355469 -6.90625 L 4.738281 -2.765625 Z M 1.957031 -2.765625 "/></g></g></g><g fill="#ffffff" fill-opacity="1"><g transform="translate(191.750909, 15.919642)"><g><path d="M 2.875 -4.785156 C 2.558594 -4.882812 1.921875 -5.128906 1.605469 -5.449219 C 1.335938 -5.742188 1.261719 -6.109375 1.261719 -6.414062 C 1.261719 -6.988281 1.617188 -7.726562 2.609375 -7.726562 C 3.121094 -7.726562 3.527344 -7.566406 3.820312 -7.246094 C 3.929688 -7.136719 4.027344 -6.953125 4.125 -6.734375 L 4.113281 -7.171875 L 4.125 -8.042969 L 4.101562 -8.007812 C 4.050781 -7.933594 3.820312 -7.921875 3.648438 -7.992188 C 3.402344 -8.066406 3.085938 -8.128906 2.71875 -8.128906 C 2.105469 -8.128906 1.554688 -7.96875 1.152344 -7.589844 C 0.808594 -7.273438 0.464844 -6.722656 0.464844 -6.15625 C 0.464844 -5.433594 0.660156 -4.910156 1.015625 -4.542969 C 1.492188 -4.039062 2.300781 -3.757812 2.644531 -3.648438 C 3.539062 -3.328125 4.359375 -2.902344 4.359375 -1.761719 C 4.359375 -0.757812 3.5 -0.355469 2.839844 -0.355469 C 2.226562 -0.355469 1.617188 -0.648438 1.285156 -1.175781 C 1.066406 -1.503906 0.96875 -1.773438 0.929688 -2.007812 L 0.929688 -0.613281 L 0.917969 -0.28125 C 0.992188 -0.402344 1.136719 -0.453125 1.347656 -0.332031 L 1.382812 -0.304688 L 1.394531 -0.304688 C 1.789062 -0.0625 2.265625 0.0859375 2.890625 0.0859375 C 4.359375 0.0859375 5.152344 -1.027344 5.152344 -2.351562 C 5.152344 -3.085938 4.957031 -3.511719 4.664062 -3.867188 C 4.261719 -4.359375 3.648438 -4.542969 2.875 -4.785156 Z M 2.875 -4.785156 "/></g></g></g><g fill="#ffffff" fill-opacity="1"><g transform="translate(199.401939, 15.919642)"><g><path d="M 5.875 -8.042969 L 0.0976562 -8.042969 L 0.0976562 -6.976562 C 0.0976562 -6.976562 0.246094 -7.457031 0.539062 -7.554688 L 2.472656 -7.554688 C 2.484375 -7.515625 2.484375 -7.480469 2.484375 -7.457031 L 2.484375 -0.5 C 2.472656 -0.160156 1.910156 0 1.910156 0 L 4.0625 0 C 4.0625 0 3.5 -0.160156 3.476562 -0.488281 L 3.476562 -7.441406 C 3.476562 -7.480469 3.488281 -7.515625 3.5 -7.554688 L 5.433594 -7.554688 C 5.742188 -7.457031 5.875 -6.976562 5.875 -6.976562 Z M 5.875 -8.042969 "/></g></g></g><g fill="#ffffff" fill-opacity="1"><g transform="translate(207.407975, 15.919642)"><g><path d="M 4.75 -0.5 L 2.03125 -0.5 L 2.03125 -3.769531 L 3.894531 -3.769531 C 4.136719 -3.769531 4.246094 -3.378906 4.246094 -3.378906 L 4.246094 -4.664062 C 4.246094 -4.664062 4.136719 -4.261719 3.894531 -4.261719 L 2.03125 -4.261719 L 2.03125 -7.554688 L 4.429688 -7.554688 L 4.429688 -7.542969 C 4.785156 -7.542969 4.945312 -6.964844 4.945312 -6.964844 L 4.945312 -8.042969 L 0.464844 -8.042969 C 0.464844 -8.042969 1.027344 -7.882812 1.039062 -7.554688 L 1.039062 -0.5 C 1.027344 -0.160156 0.464844 0 0.464844 0 L 5.203125 0 L 5.203125 -1.066406 C 5.203125 -1.066406 5.054688 -0.585938 4.75 -0.5 Z M 4.75 -0.5 "/></g></g></g><g fill="#ffffff" fill-opacity="1"><g transform="translate(86.240916, 28.987278)"><g><path d="M 3.46875 -0.257812 L 2.121094 -4.261719 L 1.699219 -4.261719 L 0.363281 -0.273438 C 0.277344 -0.03125 0.0507812 0 0.0507812 0 L 0.921875 0 C 0.921875 0 0.582031 -0.0898438 0.636719 -0.273438 L 0.945312 -1.207031 L 2.601562 -1.207031 L 2.890625 -0.332031 L 2.945312 -0.1875 C 2.988281 -0.046875 2.839844 0 2.839844 0 L 3.773438 0 C 3.773438 0 3.546875 -0.0273438 3.46875 -0.257812 Z M 1.039062 -1.464844 L 1.777344 -3.65625 L 2.507812 -1.464844 Z M 1.039062 -1.464844 "/></g></g></g><g fill="#ffffff" fill-opacity="1"><g transform="translate(93.075531, 28.987278)"><g><path d="M 2.738281 -3.144531 C 2.738281 -3.734375 2.230469 -4.253906 1.613281 -4.261719 L 0.246094 -4.261719 C 0.246094 -4.261719 0.542969 -4.175781 0.550781 -3.996094 L 0.550781 -0.265625 C 0.542969 -0.0898438 0.246094 0 0.246094 0 L 1.613281 0 C 2.230469 0 2.738281 -0.511719 2.738281 -1.101562 C 2.738281 -1.550781 2.449219 -1.953125 2.035156 -2.125 C 2.449219 -2.289062 2.738281 -2.699219 2.738281 -3.144531 Z M 1.503906 -2.210938 L 1.101562 -2.203125 L 1.078125 -2.203125 L 1.078125 -4.015625 C 1.082031 -4.058594 1.121094 -4.089844 1.167969 -4.089844 L 1.421875 -4.089844 C 1.945312 -4.089844 2.242188 -3.597656 2.242188 -3.144531 C 2.242188 -2.722656 2.003906 -2.257812 1.503906 -2.210938 Z M 2.242188 -1.101562 C 2.242188 -0.65625 1.972656 -0.15625 1.421875 -0.15625 L 1.179688 -0.15625 C 1.132812 -0.15625 1.082031 -0.1875 1.078125 -0.238281 L 1.078125 -2.042969 L 1.109375 -2.042969 L 1.453125 -2.035156 C 1.957031 -2.015625 2.242188 -1.535156 2.242188 -1.101562 Z M 2.242188 -1.101562 "/></g></g></g><g fill="#ffffff" fill-opacity="1"><g transform="translate(99.073677, 28.987278)"><g><path d="M 2.101562 -4.285156 C 1.003906 -4.285156 0.125 -3.320312 0.125 -2.132812 C 0.125 -0.941406 1.003906 0.0195312 2.101562 0.0195312 C 3.195312 0.0195312 4.085938 -0.941406 4.085938 -2.132812 C 4.085938 -3.320312 3.195312 -4.285156 2.101562 -4.285156 Z M 2.101562 -0.234375 C 1.160156 -0.234375 0.640625 -1.148438 0.640625 -2.050781 C 0.640625 -2.949219 1.089844 -4.035156 2.101562 -4.035156 C 3.042969 -4.035156 3.566406 -3.042969 3.566406 -2.132812 C 3.566406 -1.230469 3.09375 -0.234375 2.101562 -0.234375 Z M 2.101562 -0.234375 "/></g></g></g><g fill="#ffffff" fill-opacity="1"><g transform="translate(106.297346, 28.987278)"><g><path d="M 3.035156 -1.386719 L 3.035156 -0.808594 C 3.035156 -0.601562 3.015625 -0.511719 2.964844 -0.46875 C 2.90625 -0.414062 2.699219 -0.238281 2.09375 -0.238281 C 1.886719 -0.238281 1.679688 -0.285156 1.496094 -0.382812 C 0.941406 -0.675781 0.640625 -1.363281 0.640625 -2.050781 C 0.640625 -2.839844 0.980469 -3.761719 1.746094 -3.988281 C 1.757812 -3.988281 1.765625 -3.996094 1.777344 -3.996094 C 1.875 -4.019531 1.992188 -4.035156 2.101562 -4.035156 C 2.546875 -4.035156 2.90625 -3.804688 3.15625 -3.46875 C 3.15625 -3.460938 3.164062 -3.460938 3.164062 -3.460938 L 3.164062 -3.457031 C 3.269531 -3.308594 3.320312 -3.183594 3.320312 -3.183594 L 3.320312 -4.195312 C 3.261719 -4.058594 3.105469 -3.996094 3.007812 -4.046875 L 3.003906 -4.050781 C 2.738281 -4.203125 2.429688 -4.285156 2.101562 -4.285156 C 1.992188 -4.285156 1.875 -4.273438 1.769531 -4.253906 L 1.769531 -4.261719 C 1.726562 -4.253906 1.6875 -4.242188 1.640625 -4.226562 C 0.773438 -4 0.125 -3.144531 0.125 -2.132812 C 0.125 -1.042969 0.867188 -0.144531 1.835938 0 C 1.917969 0.0117188 2.011719 0.0195312 2.09375 0.0195312 C 2.664062 0.0195312 3.242188 -0.277344 3.558594 -0.828125 L 3.558594 -1.394531 C 3.574219 -1.574219 3.863281 -1.652344 3.863281 -1.652344 L 2.722656 -1.652344 C 2.722656 -1.652344 3.035156 -1.574219 3.035156 -1.386719 Z M 3.035156 -1.386719 "/></g></g></g><g fill="#ffffff" fill-opacity="1"><g transform="translate(113.300552, 28.987278)"><g><path d="M 3.46875 -0.257812 L 2.121094 -4.261719 L 1.699219 -4.261719 L 0.363281 -0.273438 C 0.277344 -0.03125 0.0507812 0 0.0507812 0 L 0.921875 0 C 0.921875 0 0.582031 -0.0898438 0.636719 -0.273438 L 0.945312 -1.207031 L 2.601562 -1.207031 L 2.890625 -0.332031 L 2.945312 -0.1875 C 2.988281 -0.046875 2.839844 0 2.839844 0 L 3.773438 0 C 3.773438 0 3.546875 -0.0273438 3.46875 -0.257812 Z M 1.039062 -1.464844 L 1.777344 -3.65625 L 2.507812 -1.464844 Z M 1.039062 -1.464844 "/></g></g></g><g fill="#ffffff" fill-opacity="1"><g transform="translate(120.135166, 28.987278)"><g><path d="M 1.550781 -4.261719 L 0.246094 -4.261719 C 0.246094 -4.261719 0.539062 -4.175781 0.550781 -4 L 0.550781 -0.257812 C 0.539062 -0.0859375 0.246094 0 0.246094 0 L 1.078125 0 L 1.078125 -0.0078125 L 1.550781 -0.0078125 C 2.644531 -0.0078125 3.535156 -0.960938 3.535156 -2.132812 C 3.535156 -3.308594 2.644531 -4.261719 1.550781 -4.261719 Z M 1.550781 -0.253906 L 1.078125 -0.253906 L 1.078125 -4.015625 L 1.550781 -4.015625 C 2.488281 -4.015625 3.015625 -3.027344 3.015625 -2.132812 C 3.015625 -1.238281 2.542969 -0.253906 1.550781 -0.253906 Z M 1.550781 -0.253906 "/></g></g></g><g fill="#ffffff" fill-opacity="1"><g transform="translate(126.930873, 28.987278)"><g><path d="M 2.101562 -4.285156 C 1.003906 -4.285156 0.125 -3.320312 0.125 -2.132812 C 0.125 -0.941406 1.003906 0.0195312 2.101562 0.0195312 C 3.195312 0.0195312 4.085938 -0.941406 4.085938 -2.132812 C 4.085938 -3.320312 3.195312 -4.285156 2.101562 -4.285156 Z M 2.101562 -0.234375 C 1.160156 -0.234375 0.640625 -1.148438 0.640625 -2.050781 C 0.640625 -2.949219 1.089844 -4.035156 2.101562 -4.035156 C 3.042969 -4.035156 3.566406 -3.042969 3.566406 -2.132812 C 3.566406 -1.230469 3.09375 -0.234375 2.101562 -0.234375 Z M 2.101562 -0.234375 "/></g></g></g><g fill="#ffffff" fill-opacity="1"><g transform="translate(134.154541, 28.987278)"><g><path d="M 1.523438 -2.535156 C 1.355469 -2.585938 1.019531 -2.71875 0.847656 -2.886719 C 0.707031 -3.042969 0.667969 -3.234375 0.667969 -3.398438 C 0.667969 -3.703125 0.855469 -4.089844 1.382812 -4.089844 C 1.652344 -4.089844 1.867188 -4.007812 2.023438 -3.839844 C 2.082031 -3.78125 2.132812 -3.683594 2.183594 -3.566406 L 2.179688 -3.800781 L 2.183594 -4.261719 L 2.171875 -4.242188 C 2.144531 -4.203125 2.023438 -4.195312 1.933594 -4.234375 C 1.800781 -4.273438 1.632812 -4.304688 1.441406 -4.304688 C 1.117188 -4.304688 0.824219 -4.222656 0.609375 -4.019531 C 0.429688 -3.851562 0.246094 -3.558594 0.246094 -3.261719 C 0.246094 -2.878906 0.351562 -2.601562 0.539062 -2.40625 C 0.792969 -2.140625 1.21875 -1.992188 1.402344 -1.933594 C 1.875 -1.765625 2.308594 -1.535156 2.308594 -0.933594 C 2.308594 -0.402344 1.855469 -0.1875 1.503906 -0.1875 C 1.179688 -0.1875 0.855469 -0.34375 0.679688 -0.621094 C 0.5625 -0.796875 0.511719 -0.941406 0.492188 -1.0625 L 0.492188 -0.324219 L 0.484375 -0.148438 C 0.523438 -0.214844 0.601562 -0.238281 0.714844 -0.175781 L 0.734375 -0.160156 L 0.738281 -0.160156 C 0.945312 -0.03125 1.199219 0.046875 1.53125 0.046875 C 2.308594 0.046875 2.730469 -0.542969 2.730469 -1.246094 C 2.730469 -1.632812 2.625 -1.859375 2.46875 -2.050781 C 2.257812 -2.308594 1.933594 -2.40625 1.523438 -2.535156 Z M 1.523438 -2.535156 "/></g></g></g></svg>