<svg xmlns="http://www.w3.org/2000/svg" xmlns:xlink="http://www.w3.org/1999/xlink" width="800" zoomAndPan="magnify" viewBox="0 0 600 74.999997" height="100" preserveAspectRatio="xMidYMid meet" version="1.0"><defs><g/></defs><g fill="#ffffff" fill-opacity="1"><g transform="translate(44.104927, 31.519283)"><g><path d="M 10.691406 -2.875 L 5.34375 -18.722656 L 5.128906 -19.402344 C 4.882812 -20.082031 5.59375 -20.296875 5.59375 -20.296875 L 1.175781 -20.296875 C 1.175781 -20.296875 2.222656 -20.207031 2.59375 -19.09375 L 9.023438 0 L 11.03125 0 L 11.339844 -0.894531 L 17.425781 -19 C 17.796875 -20.144531 18.910156 -20.296875 18.910156 -20.296875 L 14.738281 -20.296875 C 14.738281 -20.296875 16.375 -19.898438 16.097656 -19 C 15.632812 -17.578125 10.691406 -2.875 10.691406 -2.875 Z M 10.691406 -2.875 "/></g></g></g><g fill="#ffffff" fill-opacity="1"><g transform="translate(69.315433, 31.519283)"><g><path d="M 6.582031 -20.296875 L 1.175781 -20.296875 C 1.175781 -20.296875 2.59375 -19.898438 2.625 -19.03125 L 2.625 -1.265625 C 2.59375 -0.402344 1.175781 0 1.175781 0 L 6.582031 0 C 6.582031 0 5.160156 -0.433594 5.128906 -1.265625 L 5.128906 -19.0625 C 5.160156 -19.898438 6.582031 -20.296875 6.582031 -20.296875 Z M 6.582031 -20.296875 "/></g></g></g><g fill="#ffffff" fill-opacity="1"><g transform="translate(82.198914, 31.519283)"><g><path d="M 11.988281 -1.265625 L 5.128906 -1.265625 L 5.128906 -19.125 C 5.253906 -19.929688 6.582031 -20.296875 6.582031 -20.296875 L 1.175781 -20.296875 C 1.175781 -20.296875 2.59375 -19.898438 2.625 -19.0625 L 2.625 -1.265625 C 2.59375 -0.402344 1.175781 0 1.175781 0 L 13.128906 0 L 13.128906 -2.6875 C 13.128906 -2.6875 12.761719 -1.484375 11.988281 -1.265625 Z M 11.988281 -1.265625 "/></g></g></g><g fill="#ffffff" fill-opacity="1"><g transform="translate(101.632091, 31.519283)"><g><path d="M 11.988281 -1.265625 L 5.128906 -1.265625 L 5.128906 -19.125 C 5.253906 -19.929688 6.582031 -20.296875 6.582031 -20.296875 L 1.175781 -20.296875 C 1.175781 -20.296875 2.59375 -19.898438 2.625 -19.0625 L 2.625 -1.265625 C 2.59375 -0.402344 1.175781 0 1.175781 0 L 13.128906 0 L 13.128906 -2.6875 C 13.128906 -2.6875 12.761719 -1.484375 11.988281 -1.265625 Z M 11.988281 -1.265625 "/></g></g></g><g fill="#ffffff" fill-opacity="1"><g transform="translate(121.065268, 31.519283)"><g><path d="M 16.53125 -1.234375 L 10.101562 -20.296875 L 8.09375 -20.296875 L 1.730469 -1.296875 C 1.328125 -0.15625 0.246094 0 0.246094 0 L 4.386719 0 C 4.386719 0 2.78125 -0.433594 3.027344 -1.296875 L 4.511719 -5.746094 L 12.390625 -5.746094 L 13.78125 -1.574219 L 14.027344 -0.894531 C 14.242188 -0.214844 13.53125 0 13.53125 0 L 17.980469 0 C 17.980469 0 16.898438 -0.125 16.53125 -1.234375 Z M 4.945312 -6.984375 L 8.464844 -17.425781 L 11.957031 -6.984375 Z M 4.945312 -6.984375 "/></g></g></g><g fill="#ffffff" fill-opacity="1"><g transform="translate(144.391194, 31.519283)"><g><path d="M 14.179688 -2.285156 L 9.484375 -10.042969 C 11.554688 -10.78125 13.039062 -12.789062 13.039062 -14.984375 C 13.039062 -17.796875 10.628906 -20.296875 7.691406 -20.296875 L 1.175781 -20.296875 C 1.175781 -20.296875 2.59375 -19.898438 2.625 -19.03125 L 2.625 -1.265625 C 2.59375 -0.402344 1.175781 0 1.175781 0 L 6.582031 0 C 6.582031 0 5.285156 -0.339844 5.128906 -1.144531 L 5.128906 -9.671875 L 6.890625 -9.671875 C 7.011719 -9.671875 7.167969 -9.515625 7.261719 -9.300781 L 12.140625 -1.484375 C 13.253906 0.214844 14.769531 0.0625 16.683594 -0.03125 C 16.683594 -0.03125 15.789062 -0.03125 14.179688 -2.285156 Z M 5.128906 -10.503906 L 5.128906 -19.15625 C 5.160156 -19.371094 5.34375 -19.496094 5.5625 -19.496094 L 6.765625 -19.496094 C 9.269531 -19.496094 10.691406 -17.148438 10.691406 -14.984375 C 10.691406 -12.882812 9.390625 -10.503906 6.765625 -10.503906 Z M 5.128906 -10.503906 "/></g></g></g><g fill="#ffffff" fill-opacity="1"><g transform="translate(166.419538, 31.519283)"><g><path d="M 14.179688 -2.285156 L 9.484375 -10.042969 C 11.554688 -10.78125 13.039062 -12.789062 13.039062 -14.984375 C 13.039062 -17.796875 10.628906 -20.296875 7.691406 -20.296875 L 1.175781 -20.296875 C 1.175781 -20.296875 2.59375 -19.898438 2.625 -19.03125 L 2.625 -1.265625 C 2.59375 -0.402344 1.175781 0 1.175781 0 L 6.582031 0 C 6.582031 0 5.285156 -0.339844 5.128906 -1.144531 L 5.128906 -9.671875 L 6.890625 -9.671875 C 7.011719 -9.671875 7.167969 -9.515625 7.261719 -9.300781 L 12.140625 -1.484375 C 13.253906 0.214844 14.769531 0.0625 16.683594 -0.03125 C 16.683594 -0.03125 15.789062 -0.03125 14.179688 -2.285156 Z M 5.128906 -10.503906 L 5.128906 -19.15625 C 5.160156 -19.371094 5.34375 -19.496094 5.5625 -19.496094 L 6.765625 -19.496094 C 9.269531 -19.496094 10.691406 -17.148438 10.691406 -14.984375 C 10.691406 -12.882812 9.390625 -10.503906 6.765625 -10.503906 Z M 5.128906 -10.503906 "/></g></g></g><g fill="#ffffff" fill-opacity="1"><g transform="translate(188.447883, 31.519283)"><g><path d="M 10.011719 -20.421875 C 4.789062 -20.421875 0.585938 -15.820312 0.585938 -10.164062 C 0.585938 -4.480469 4.789062 0.09375 10.011719 0.09375 C 15.230469 0.09375 19.464844 -4.480469 19.464844 -10.164062 C 19.464844 -15.820312 15.230469 -20.421875 10.011719 -20.421875 Z M 10.011719 -1.113281 C 5.53125 -1.113281 3.058594 -5.46875 3.058594 -9.761719 C 3.058594 -14.058594 5.191406 -19.21875 10.011719 -19.21875 C 14.488281 -19.21875 16.992188 -14.488281 16.992188 -10.164062 C 16.992188 -5.871094 14.738281 -1.113281 10.011719 -1.113281 Z M 10.011719 -1.113281 "/></g></g></g><g fill="#ffffff" fill-opacity="1"><g transform="translate(213.627489, 31.519283)"><g><path d="M 11.988281 -1.265625 L 5.128906 -1.265625 L 5.128906 -9.515625 L 9.824219 -9.515625 C 10.441406 -9.515625 10.722656 -8.527344 10.722656 -8.527344 L 10.722656 -11.769531 C 10.722656 -11.769531 10.441406 -10.75 9.824219 -10.75 L 5.128906 -10.75 L 5.128906 -19.0625 L 11.183594 -19.0625 L 11.183594 -19.03125 C 12.082031 -19.03125 12.480469 -17.578125 12.480469 -17.578125 L 12.480469 -20.296875 L 1.175781 -20.296875 C 1.175781 -20.296875 2.59375 -19.898438 2.625 -19.0625 L 2.625 -1.265625 C 2.59375 -0.402344 1.175781 0 1.175781 0 L 13.128906 0 L 13.128906 -2.6875 C 13.128906 -2.6875 12.761719 -1.484375 11.988281 -1.265625 Z M 11.988281 -1.265625 "/></g></g></g><g fill="#ffffff" fill-opacity="1"><g transform="translate(233.060671, 31.519283)"><g><path d="M 11.988281 -1.265625 L 5.128906 -1.265625 L 5.128906 -19.125 C 5.253906 -19.929688 6.582031 -20.296875 6.582031 -20.296875 L 1.175781 -20.296875 C 1.175781 -20.296875 2.59375 -19.898438 2.625 -19.0625 L 2.625 -1.265625 C 2.59375 -0.402344 1.175781 0 1.175781 0 L 13.128906 0 L 13.128906 -2.6875 C 13.128906 -2.6875 12.761719 -1.484375 11.988281 -1.265625 Z M 11.988281 -1.265625 "/></g></g></g><g fill="#ffffff" fill-opacity="1"><g transform="translate(252.493854, 31.519283)"><g><path d="M 4.046875 -1.605469 C 3.769531 -2.164062 3.152344 -2.503906 2.535156 -2.503906 C 2.316406 -2.503906 2.070312 -2.441406 1.855469 -2.316406 C 1.113281 -1.914062 0.894531 -0.710938 1.515625 -0.125 C 1.855469 0.183594 2.285156 0.246094 2.6875 0.339844 C 2.75 0.339844 2.78125 0.371094 2.8125 0.402344 C 2.875 0.433594 2.875 0.523438 2.875 0.554688 C 2.8125 1.390625 2.59375 2.195312 2.253906 2.964844 C 2.132812 3.242188 2.007812 3.492188 1.855469 3.738281 C 1.730469 3.921875 1.421875 4.417969 1.203125 4.480469 C 3.273438 4.046875 4.015625 1.855469 4.203125 0 C 4.261719 -0.523438 4.292969 -1.113281 4.046875 -1.605469 Z M 1.203125 4.480469 C 1.175781 4.480469 1.175781 4.480469 1.175781 4.480469 Z M 1.203125 4.480469 "/></g></g></g><g fill="#ffffff" fill-opacity="1"><g transform="translate(263.029332, 31.519283)"><g/></g></g><g fill="#ffffff" fill-opacity="1"><g transform="translate(277.612031, 31.519283)"><g><path d="M 11.988281 -1.265625 L 5.128906 -1.265625 L 5.128906 -19.125 C 5.253906 -19.929688 6.582031 -20.296875 6.582031 -20.296875 L 1.175781 -20.296875 C 1.175781 -20.296875 2.59375 -19.898438 2.625 -19.0625 L 2.625 -1.265625 C 2.59375 -0.402344 1.175781 0 1.175781 0 L 13.128906 0 L 13.128906 -2.6875 C 13.128906 -2.6875 12.761719 -1.484375 11.988281 -1.265625 Z M 11.988281 -1.265625 "/></g></g></g><g fill="#ffffff" fill-opacity="1"><g transform="translate(297.045213, 31.519283)"><g><path d="M 11.988281 -1.265625 L 5.128906 -1.265625 L 5.128906 -9.515625 L 9.824219 -9.515625 C 10.441406 -9.515625 10.722656 -8.527344 10.722656 -8.527344 L 10.722656 -11.769531 C 10.722656 -11.769531 10.441406 -10.75 9.824219 -10.75 L 5.128906 -10.75 L 5.128906 -19.0625 L 11.183594 -19.0625 L 11.183594 -19.03125 C 12.082031 -19.03125 12.480469 -17.578125 12.480469 -17.578125 L 12.480469 -20.296875 L 1.175781 -20.296875 C 1.175781 -20.296875 2.59375 -19.898438 2.625 -19.0625 L 2.625 -1.265625 C 2.59375 -0.402344 1.175781 0 1.175781 0 L 13.128906 0 L 13.128906 -2.6875 C 13.128906 -2.6875 12.761719 -1.484375 11.988281 -1.265625 Z M 11.988281 -1.265625 "/></g></g></g><g fill="#ffffff" fill-opacity="1"><g transform="translate(316.478396, 31.519283)"><g><path d="M 9.980469 -1.144531 C 8.992188 -1.144531 8.003906 -1.359375 7.136719 -1.824219 C 4.480469 -3.214844 3.058594 -6.488281 3.058594 -9.761719 C 3.058594 -13.53125 4.664062 -17.917969 8.3125 -19 C 8.371094 -19 8.402344 -19.03125 8.464844 -19.03125 C 8.929688 -19.15625 9.484375 -19.21875 10.011719 -19.21875 C 12.140625 -19.21875 13.839844 -18.136719 15.046875 -16.53125 C 15.046875 -16.5 15.078125 -16.5 15.078125 -16.5 L 15.078125 -16.46875 C 15.570312 -15.757812 15.820312 -15.171875 15.820312 -15.171875 L 15.820312 -19.988281 C 15.539062 -19.339844 14.800781 -19.03125 14.335938 -19.277344 L 14.304688 -19.308594 C 13.039062 -20.019531 11.585938 -20.421875 10.011719 -20.421875 C 9.484375 -20.421875 8.929688 -20.359375 8.433594 -20.269531 L 8.433594 -20.296875 C 8.21875 -20.269531 8.03125 -20.207031 7.816406 -20.144531 C 3.675781 -19.0625 0.585938 -14.984375 0.585938 -10.164062 C 0.585938 -4.972656 4.140625 -0.679688 8.742188 0 C 9.144531 0.0625 9.578125 0.09375 9.980469 0.09375 C 13.222656 0.09375 16.035156 -1.914062 17.578125 -4.914062 L 17.054688 -5.066406 C 15.695312 -2.59375 12.667969 -1.144531 9.980469 -1.144531 Z M 9.980469 -1.144531 "/></g></g></g><g fill="#ffffff" fill-opacity="1"><g transform="translate(339.773426, 31.519283)"><g><path d="M 16.53125 -1.234375 L 10.101562 -20.296875 L 8.09375 -20.296875 L 1.730469 -1.296875 C 1.328125 -0.15625 0.246094 0 0.246094 0 L 4.386719 0 C 4.386719 0 2.78125 -0.433594 3.027344 -1.296875 L 4.511719 -5.746094 L 12.390625 -5.746094 L 13.78125 -1.574219 L 14.027344 -0.894531 C 14.242188 -0.214844 13.53125 0 13.53125 0 L 17.980469 0 C 17.980469 0 16.898438 -0.125 16.53125 -1.234375 Z M 4.945312 -6.984375 L 8.464844 -17.425781 L 11.957031 -6.984375 Z M 4.945312 -6.984375 "/></g></g></g><g fill="#ffffff" fill-opacity="1"><g transform="translate(363.099341, 31.519283)"><g><path d="M 14.179688 -2.285156 L 9.484375 -10.042969 C 11.554688 -10.78125 13.039062 -12.789062 13.039062 -14.984375 C 13.039062 -17.796875 10.628906 -20.296875 7.691406 -20.296875 L 1.175781 -20.296875 C 1.175781 -20.296875 2.59375 -19.898438 2.625 -19.03125 L 2.625 -1.265625 C 2.59375 -0.402344 1.175781 0 1.175781 0 L 6.582031 0 C 6.582031 0 5.285156 -0.339844 5.128906 -1.144531 L 5.128906 -9.671875 L 6.890625 -9.671875 C 7.011719 -9.671875 7.167969 -9.515625 7.261719 -9.300781 L 12.140625 -1.484375 C 13.253906 0.214844 14.769531 0.0625 16.683594 -0.03125 C 16.683594 -0.03125 15.789062 -0.03125 14.179688 -2.285156 Z M 5.128906 -10.503906 L 5.128906 -19.15625 C 5.160156 -19.371094 5.34375 -19.496094 5.5625 -19.496094 L 6.765625 -19.496094 C 9.269531 -19.496094 10.691406 -17.148438 10.691406 -14.984375 C 10.691406 -12.882812 9.390625 -10.503906 6.765625 -10.503906 Z M 5.128906 -10.503906 "/></g></g></g><g fill="#ffffff" fill-opacity="1"><g transform="translate(385.127686, 31.519283)"><g><path d="M 10.011719 -20.421875 C 4.789062 -20.421875 0.585938 -15.820312 0.585938 -10.164062 C 0.585938 -4.480469 4.789062 0.09375 10.011719 0.09375 C 15.230469 0.09375 19.464844 -4.480469 19.464844 -10.164062 C 19.464844 -15.820312 15.230469 -20.421875 10.011719 -20.421875 Z M 10.011719 -1.113281 C 5.53125 -1.113281 3.058594 -5.46875 3.058594 -9.761719 C 3.058594 -14.058594 5.191406 -19.21875 10.011719 -19.21875 C 14.488281 -19.21875 16.992188 -14.488281 16.992188 -10.164062 C 16.992188 -5.871094 14.738281 -1.113281 10.011719 -1.113281 Z M 10.011719 -1.113281 "/></g></g></g><g fill="#ffffff" fill-opacity="1"><g transform="translate(410.307292, 31.519283)"><g><path d="M 7.261719 -12.082031 C 6.457031 -12.328125 4.851562 -12.945312 4.046875 -13.75 C 3.367188 -14.488281 3.183594 -15.417969 3.183594 -16.191406 C 3.183594 -17.640625 4.078125 -19.496094 6.582031 -19.496094 C 7.878906 -19.496094 8.898438 -19.09375 9.640625 -18.289062 C 9.917969 -18.011719 10.164062 -17.550781 10.410156 -16.992188 L 10.382812 -18.105469 L 10.410156 -20.296875 L 10.351562 -20.207031 C 10.226562 -20.019531 9.640625 -19.988281 9.207031 -20.175781 C 8.589844 -20.359375 7.785156 -20.515625 6.859375 -20.515625 C 5.3125 -20.515625 3.921875 -20.113281 2.902344 -19.15625 C 2.039062 -18.351562 1.175781 -16.960938 1.175781 -15.539062 C 1.175781 -13.71875 1.667969 -12.390625 2.5625 -11.460938 C 3.769531 -10.195312 5.808594 -9.484375 6.671875 -9.207031 C 8.929688 -8.402344 11 -7.324219 11 -4.449219 C 11 -1.914062 8.835938 -0.894531 7.167969 -0.894531 C 5.625 -0.894531 4.078125 -1.636719 3.242188 -2.964844 C 2.6875 -3.800781 2.441406 -4.480469 2.347656 -5.066406 L 2.347656 -1.542969 L 2.316406 -0.710938 C 2.503906 -1.019531 2.875 -1.144531 3.398438 -0.835938 L 3.492188 -0.773438 L 3.523438 -0.773438 C 4.511719 -0.15625 5.714844 0.214844 7.292969 0.214844 C 11 0.214844 13.007812 -2.59375 13.007812 -5.933594 C 13.007812 -7.785156 12.511719 -8.867188 11.769531 -9.761719 C 10.75 -11 9.207031 -11.460938 7.261719 -12.082031 Z M 7.261719 -12.082031 "/></g></g></g><g fill="#ffffff" fill-opacity="1"><g transform="translate(429.616892, 31.519283)"><g/></g></g><g fill="#ffffff" fill-opacity="1"><g transform="translate(444.199571, 31.519283)"><g><path d="M 14.582031 -20.296875 L 10.441406 -20.296875 C 10.441406 -20.296875 11.957031 -19.835938 11.339844 -18.660156 L 9.144531 -14.519531 L 8.496094 -13.285156 L 7.910156 -12.234375 L 6.765625 -14.519531 L 4.664062 -18.691406 L 4.324219 -19.371094 C 3.984375 -20.050781 4.664062 -20.269531 4.664062 -20.269531 L 0.246094 -20.269531 C 0.246094 -20.269531 1.328125 -20.175781 1.855469 -19.0625 L 6.179688 -10.410156 L 6.179688 -1.359375 C 6.117188 -0.433594 4.695312 0 4.695312 0 L 10.132812 0 C 10.132812 0 8.710938 -0.433594 8.652344 -1.328125 L 8.652344 -10.628906 L 12.851562 -19.03125 C 13.441406 -20.082031 14.582031 -20.296875 14.582031 -20.296875 Z M 14.582031 -20.296875 "/></g></g></g><g fill="#ffffff" fill-opacity="1"><g transform="translate(464.157967, 31.519283)"><g/></g></g><g fill="#ffffff" fill-opacity="1"><g transform="translate(478.740646, 31.519283)"><g><path d="M 16.53125 -1.234375 L 10.101562 -20.296875 L 8.09375 -20.296875 L 1.730469 -1.296875 C 1.328125 -0.15625 0.246094 0 0.246094 0 L 4.386719 0 C 4.386719 0 2.78125 -0.433594 3.027344 -1.296875 L 4.511719 -5.746094 L 12.390625 -5.746094 L 13.78125 -1.574219 L 14.027344 -0.894531 C 14.242188 -0.214844 13.53125 0 13.53125 0 L 17.980469 0 C 17.980469 0 16.898438 -0.125 16.53125 -1.234375 Z M 4.945312 -6.984375 L 8.464844 -17.425781 L 11.957031 -6.984375 Z M 4.945312 -6.984375 "/></g></g></g><g fill="#ffffff" fill-opacity="1"><g transform="translate(502.066561, 31.519283)"><g><path d="M 7.261719 -12.082031 C 6.457031 -12.328125 4.851562 -12.945312 4.046875 -13.75 C 3.367188 -14.488281 3.183594 -15.417969 3.183594 -16.191406 C 3.183594 -17.640625 4.078125 -19.496094 6.582031 -19.496094 C 7.878906 -19.496094 8.898438 -19.09375 9.640625 -18.289062 C 9.917969 -18.011719 10.164062 -17.550781 10.410156 -16.992188 L 10.382812 -18.105469 L 10.410156 -20.296875 L 10.351562 -20.207031 C 10.226562 -20.019531 9.640625 -19.988281 9.207031 -20.175781 C 8.589844 -20.359375 7.785156 -20.515625 6.859375 -20.515625 C 5.3125 -20.515625 3.921875 -20.113281 2.902344 -19.15625 C 2.039062 -18.351562 1.175781 -16.960938 1.175781 -15.539062 C 1.175781 -13.71875 1.667969 -12.390625 2.5625 -11.460938 C 3.769531 -10.195312 5.808594 -9.484375 6.671875 -9.207031 C 8.929688 -8.402344 11 -7.324219 11 -4.449219 C 11 -1.914062 8.835938 -0.894531 7.167969 -0.894531 C 5.625 -0.894531 4.078125 -1.636719 3.242188 -2.964844 C 2.6875 -3.800781 2.441406 -4.480469 2.347656 -5.066406 L 2.347656 -1.542969 L 2.316406 -0.710938 C 2.503906 -1.019531 2.875 -1.144531 3.398438 -0.835938 L 3.492188 -0.773438 L 3.523438 -0.773438 C 4.511719 -0.15625 5.714844 0.214844 7.292969 0.214844 C 11 0.214844 13.007812 -2.59375 13.007812 -5.933594 C 13.007812 -7.785156 12.511719 -8.867188 11.769531 -9.761719 C 10.75 -11 9.207031 -11.460938 7.261719 -12.082031 Z M 7.261719 -12.082031 "/></g></g></g><g fill="#ffffff" fill-opacity="1"><g transform="translate(521.376162, 31.519283)"><g><path d="M 14.832031 -20.296875 L 0.246094 -20.296875 L 0.246094 -17.609375 C 0.246094 -17.609375 0.617188 -18.816406 1.359375 -19.0625 L 6.242188 -19.0625 C 6.273438 -18.96875 6.273438 -18.878906 6.273438 -18.816406 L 6.273438 -1.265625 C 6.242188 -0.402344 4.820312 0 4.820312 0 L 10.257812 0 C 10.257812 0 8.835938 -0.402344 8.773438 -1.234375 L 8.773438 -18.785156 C 8.773438 -18.878906 8.804688 -18.96875 8.835938 -19.0625 L 13.71875 -19.0625 C 14.488281 -18.816406 14.832031 -17.609375 14.832031 -17.609375 Z M 14.832031 -20.296875 "/></g></g></g><g fill="#ffffff" fill-opacity="1"><g transform="translate(541.581722, 31.519283)"><g><path d="M 11.988281 -1.265625 L 5.128906 -1.265625 L 5.128906 -9.515625 L 9.824219 -9.515625 C 10.441406 -9.515625 10.722656 -8.527344 10.722656 -8.527344 L 10.722656 -11.769531 C 10.722656 -11.769531 10.441406 -10.75 9.824219 -10.75 L 5.128906 -10.75 L 5.128906 -19.0625 L 11.183594 -19.0625 L 11.183594 -19.03125 C 12.082031 -19.03125 12.480469 -17.578125 12.480469 -17.578125 L 12.480469 -20.296875 L 1.175781 -20.296875 C 1.175781 -20.296875 2.59375 -19.898438 2.625 -19.0625 L 2.625 -1.265625 C 2.59375 -0.402344 1.175781 0 1.175781 0 L 13.128906 0 L 13.128906 -2.6875 C 13.128906 -2.6875 12.761719 -1.484375 11.988281 -1.265625 Z M 11.988281 -1.265625 "/></g></g></g><g fill="#ffffff" fill-opacity="1"><g transform="translate(235.781419, 64.499261)"><g><path d="M 8.753906 -0.65625 L 5.351562 -10.75 L 4.289062 -10.75 L 0.917969 -0.6875 C 0.703125 -0.0820312 0.132812 0 0.132812 0 L 2.324219 0 C 2.324219 0 1.472656 -0.230469 1.605469 -0.6875 L 2.390625 -3.042969 L 6.5625 -3.042969 L 7.296875 -0.835938 L 7.429688 -0.472656 C 7.542969 -0.113281 7.167969 0 7.167969 0 L 9.523438 0 C 9.523438 0 8.953125 -0.0664062 8.753906 -0.65625 Z M 2.617188 -3.699219 L 4.484375 -9.230469 L 6.332031 -3.699219 Z M 2.617188 -3.699219 "/></g></g></g><g fill="#ffffff" fill-opacity="1"><g transform="translate(253.030557, 64.499261)"><g><path d="M 6.90625 -7.9375 C 6.90625 -9.425781 5.628906 -10.734375 4.074219 -10.75 L 0.621094 -10.75 C 0.621094 -10.75 1.375 -10.539062 1.390625 -10.082031 L 1.390625 -0.671875 C 1.375 -0.230469 0.621094 0 0.621094 0 L 4.074219 0 C 5.628906 0 6.90625 -1.292969 6.90625 -2.78125 C 6.90625 -3.910156 6.1875 -4.925781 5.136719 -5.367188 C 6.1875 -5.777344 6.90625 -6.808594 6.90625 -7.9375 Z M 3.796875 -5.582031 L 2.78125 -5.5625 L 2.714844 -5.5625 L 2.714844 -10.128906 C 2.734375 -10.246094 2.832031 -10.328125 2.945312 -10.328125 L 3.582031 -10.328125 C 4.910156 -10.328125 5.664062 -9.082031 5.664062 -7.9375 C 5.664062 -6.875 5.058594 -5.695312 3.796875 -5.582031 Z M 5.664062 -2.78125 C 5.664062 -1.652344 4.976562 -0.394531 3.582031 -0.394531 L 2.976562 -0.394531 C 2.863281 -0.394531 2.734375 -0.472656 2.714844 -0.605469 L 2.714844 -5.15625 L 2.796875 -5.15625 L 3.664062 -5.136719 C 4.941406 -5.089844 5.664062 -3.878906 5.664062 -2.78125 Z M 5.664062 -2.78125 "/></g></g></g><g fill="#ffffff" fill-opacity="1"><g transform="translate(268.168622, 64.499261)"><g><path d="M 5.300781 -10.816406 C 2.535156 -10.816406 0.3125 -8.378906 0.3125 -5.382812 C 0.3125 -2.371094 2.535156 0.0507812 5.300781 0.0507812 C 8.066406 0.0507812 10.308594 -2.371094 10.308594 -5.382812 C 10.308594 -8.378906 8.066406 -10.816406 5.300781 -10.816406 Z M 5.300781 -0.589844 C 2.929688 -0.589844 1.621094 -2.898438 1.621094 -5.171875 C 1.621094 -7.445312 2.75 -10.179688 5.300781 -10.179688 C 7.675781 -10.179688 9 -7.675781 9 -5.382812 C 9 -3.109375 7.804688 -0.589844 5.300781 -0.589844 Z M 5.300781 -0.589844 "/></g></g></g><g fill="#ffffff" fill-opacity="1"><g transform="translate(286.399653, 64.499261)"><g><path d="M 7.660156 -3.503906 L 7.660156 -2.046875 C 7.660156 -1.523438 7.609375 -1.292969 7.480469 -1.179688 C 7.332031 -1.046875 6.808594 -0.605469 5.285156 -0.605469 C 4.761719 -0.605469 4.238281 -0.71875 3.78125 -0.964844 C 2.371094 -1.703125 1.621094 -3.4375 1.621094 -5.171875 C 1.621094 -7.167969 2.472656 -9.492188 4.402344 -10.066406 C 4.433594 -10.066406 4.453125 -10.082031 4.484375 -10.082031 C 4.730469 -10.144531 5.023438 -10.179688 5.300781 -10.179688 C 6.429688 -10.179688 7.332031 -9.605469 7.96875 -8.753906 C 7.96875 -8.738281 7.984375 -8.738281 7.984375 -8.738281 L 7.984375 -8.722656 C 8.246094 -8.347656 8.378906 -8.035156 8.378906 -8.035156 L 8.378906 -10.589844 C 8.230469 -10.246094 7.839844 -10.082031 7.59375 -10.210938 L 7.578125 -10.226562 C 6.90625 -10.605469 6.136719 -10.816406 5.300781 -10.816406 C 5.023438 -10.816406 4.730469 -10.785156 4.46875 -10.734375 L 4.46875 -10.75 C 4.351562 -10.734375 4.253906 -10.703125 4.140625 -10.671875 C 1.949219 -10.097656 0.3125 -7.9375 0.3125 -5.382812 C 0.3125 -2.636719 2.191406 -0.359375 4.632812 0 C 4.84375 0.03125 5.074219 0.0507812 5.285156 0.0507812 C 6.726562 0.0507812 8.183594 -0.703125 8.984375 -2.09375 L 8.984375 -3.519531 C 9.015625 -3.976562 9.753906 -4.171875 9.753906 -4.171875 L 6.875 -4.171875 C 6.875 -4.171875 7.660156 -3.976562 7.660156 -3.503906 Z M 7.660156 -3.503906 "/></g></g></g><g fill="#ffffff" fill-opacity="1"><g transform="translate(304.074279, 64.499261)"><g><path d="M 8.753906 -0.65625 L 5.351562 -10.75 L 4.289062 -10.75 L 0.917969 -0.6875 C 0.703125 -0.0820312 0.132812 0 0.132812 0 L 2.324219 0 C 2.324219 0 1.472656 -0.230469 1.605469 -0.6875 L 2.390625 -3.042969 L 6.5625 -3.042969 L 7.296875 -0.835938 L 7.429688 -0.472656 C 7.542969 -0.113281 7.167969 0 7.167969 0 L 9.523438 0 C 9.523438 0 8.953125 -0.0664062 8.753906 -0.65625 Z M 2.617188 -3.699219 L 4.484375 -9.230469 L 6.332031 -3.699219 Z M 2.617188 -3.699219 "/></g></g></g><g fill="#ffffff" fill-opacity="1"><g transform="translate(321.323414, 64.499261)"><g><path d="M 3.910156 -10.75 L 0.621094 -10.75 C 0.621094 -10.75 1.359375 -10.539062 1.390625 -10.097656 L 1.390625 -0.65625 C 1.359375 -0.210938 0.621094 0 0.621094 0 L 2.714844 0 L 2.714844 -0.015625 L 3.910156 -0.015625 C 6.675781 -0.015625 8.917969 -2.421875 8.917969 -5.382812 C 8.917969 -8.347656 6.675781 -10.75 3.910156 -10.75 Z M 3.910156 -0.636719 L 2.714844 -0.636719 L 2.714844 -10.128906 L 3.910156 -10.128906 C 6.285156 -10.128906 7.609375 -7.640625 7.609375 -5.382812 C 7.609375 -3.125 6.414062 -0.636719 3.910156 -0.636719 Z M 3.910156 -0.636719 "/></g></g></g><g fill="#ffffff" fill-opacity="1"><g transform="translate(338.474356, 64.499261)"><g><path d="M 5.300781 -10.816406 C 2.535156 -10.816406 0.3125 -8.378906 0.3125 -5.382812 C 0.3125 -2.371094 2.535156 0.0507812 5.300781 0.0507812 C 8.066406 0.0507812 10.308594 -2.371094 10.308594 -5.382812 C 10.308594 -8.378906 8.066406 -10.816406 5.300781 -10.816406 Z M 5.300781 -0.589844 C 2.929688 -0.589844 1.621094 -2.898438 1.621094 -5.171875 C 1.621094 -7.445312 2.75 -10.179688 5.300781 -10.179688 C 7.675781 -10.179688 9 -7.675781 9 -5.382812 C 9 -3.109375 7.804688 -0.589844 5.300781 -0.589844 Z M 5.300781 -0.589844 "/></g></g></g><g fill="#ffffff" fill-opacity="1"><g transform="translate(356.705382, 64.499261)"><g><path d="M 3.847656 -6.398438 C 3.421875 -6.53125 2.570312 -6.855469 2.144531 -7.28125 C 1.785156 -7.675781 1.6875 -8.167969 1.6875 -8.574219 C 1.6875 -9.34375 2.160156 -10.328125 3.484375 -10.328125 C 4.171875 -10.328125 4.714844 -10.113281 5.105469 -9.6875 C 5.253906 -9.539062 5.382812 -9.296875 5.515625 -9 L 5.5 -9.589844 L 5.515625 -10.75 L 5.480469 -10.703125 C 5.417969 -10.605469 5.105469 -10.589844 4.875 -10.6875 C 4.550781 -10.785156 4.125 -10.867188 3.632812 -10.867188 C 2.816406 -10.867188 2.078125 -10.652344 1.539062 -10.144531 C 1.082031 -9.722656 0.621094 -8.984375 0.621094 -8.230469 C 0.621094 -7.265625 0.882812 -6.5625 1.359375 -6.070312 C 1.996094 -5.402344 3.078125 -5.023438 3.535156 -4.875 C 4.730469 -4.453125 5.824219 -3.878906 5.824219 -2.355469 C 5.824219 -1.015625 4.679688 -0.472656 3.796875 -0.472656 C 2.976562 -0.472656 2.160156 -0.867188 1.71875 -1.570312 C 1.421875 -2.011719 1.292969 -2.371094 1.242188 -2.683594 L 1.242188 -0.816406 L 1.226562 -0.375 C 1.324219 -0.539062 1.523438 -0.605469 1.800781 -0.441406 L 1.847656 -0.410156 L 1.867188 -0.410156 C 2.390625 -0.0820312 3.027344 0.113281 3.863281 0.113281 C 5.824219 0.113281 6.890625 -1.375 6.890625 -3.140625 C 6.890625 -4.125 6.628906 -4.695312 6.234375 -5.171875 C 5.695312 -5.824219 4.875 -6.070312 3.847656 -6.398438 Z M 3.847656 -6.398438 "/></g></g></g></svg>